<?xml version="1.0" encoding="utf-8"?>
<!-- Generator: Adobe Illustrator 24.0.1, SVG Export Plug-In . SVG Version: 6.00 Build 0)  -->
<svg version="1.1" id="Layer_1" xmlns="http://www.w3.org/2000/svg" xmlns:xlink="http://www.w3.org/1999/xlink" x="0px" y="0px"
	 viewBox="0 0 669.74 786.68" style="enable-background:new 0 0 669.74 786.68;" xml:space="preserve">
<style type="text/css">
	.st0{fill:#151616;}
	.st1{fill:#F7F7F7;}
	.st2{fill:#3D5A80;}
	.st3{fill:#EE6C4D;}
</style>
<path class="st0" d="M1.85,3525.21l160.74-160.74c4.06-4.06,11.01-1.19,11.01,4.56v357.14c0,1.73-0.7,3.39-1.94,4.61l-160.74,157.4
	c-4.08,4-10.96,1.11-10.96-4.61v-353.81C-0.04,3528.06,0.64,3526.42,1.85,3525.21z"/>
<path class="st0" d="M667.37,3525.21l-160.74-160.74c-4.06-4.06-11.01-1.19-11.01,4.56v357.14c0,1.73,0.7,3.39,1.94,4.61
	l160.74,157.4c4.08,4,10.96,1.11,10.96-4.61v-353.81C669.26,3528.06,668.58,3526.42,667.37,3525.21z"/>
<path class="st0" d="M223.53,3728.89h223.35c4.71,0,7.83,4.89,5.85,9.16l-110.45,238.09c-2.3,4.96-9.34,4.99-11.68,0.05
	L217.7,3738.1C215.68,3733.82,218.8,3728.89,223.53,3728.89z"/>
<path class="st0" d="M330.05,3197.01L215.1,3311.96c-1.21,1.21-1.89,2.85-1.89,4.56l0,367.06c0,3.56,2.89,6.45,6.45,6.45l231,0
	c3.56,0,6.45-2.89,6.45-6.45l0,0l-0.25-0.49l0-365.73c0-1.71-0.68-3.35-1.89-4.56l-115.8-115.8
	C336.65,3194.49,332.57,3194.49,330.05,3197.01z"/>
<path class="st1" d="M1.85,2486.21l160.74-160.74c4.06-4.06,11.01-1.19,11.01,4.56v357.14c0,1.73-0.7,3.39-1.94,4.61l-160.74,157.4
	c-4.08,4-10.96,1.11-10.96-4.61v-353.81C-0.04,2489.06,0.64,2487.42,1.85,2486.21z"/>
<path class="st1" d="M667.37,2486.21l-160.74-160.74c-4.06-4.06-11.01-1.19-11.01,4.56v357.14c0,1.73,0.7,3.39,1.94,4.61
	l160.74,157.4c4.08,4,10.96,1.11,10.96-4.61v-353.81C669.26,2489.06,668.58,2487.42,667.37,2486.21z"/>
<path class="st1" d="M223.53,2689.89h223.35c4.71,0,7.83,4.89,5.85,9.16l-110.45,238.09c-2.3,4.96-9.34,4.99-11.68,0.05
	L217.7,2699.1C215.68,2694.82,218.8,2689.89,223.53,2689.89z"/>
<path class="st1" d="M330.05,2158.01L215.1,2272.96c-1.21,1.21-1.89,2.85-1.89,4.56l0,367.06c0,3.56,2.89,6.45,6.45,6.45l231,0
	c3.56,0,6.45-2.89,6.45-6.45l0,0l-0.25-0.49l0-365.73c0-1.71-0.68-3.35-1.89-4.56l-115.8-115.8
	C336.65,2155.49,332.57,2155.49,330.05,2158.01z"/>
<path class="st2" d="M1.85,1434.21l160.74-160.74c4.06-4.06,11.01-1.19,11.01,4.56v357.14c0,1.73-0.7,3.39-1.94,4.61l-160.74,157.4
	c-4.08,4-10.96,1.11-10.96-4.61v-353.81C-0.04,1437.06,0.64,1435.42,1.85,1434.21z"/>
<path class="st2" d="M667.37,1434.21l-160.74-160.74c-4.06-4.06-11.01-1.19-11.01,4.56v357.14c0,1.73,0.7,3.39,1.94,4.61
	l160.74,157.4c4.08,4,10.96,1.11,10.96-4.61v-353.81C669.26,1437.06,668.58,1435.42,667.37,1434.21z"/>
<path class="st2" d="M223.53,1637.89h223.35c4.71,0,7.83,4.89,5.85,9.16l-110.45,238.09c-2.3,4.96-9.34,4.99-11.68,0.05
	L217.7,1647.1C215.68,1642.82,218.8,1637.89,223.53,1637.89z"/>
<path class="st2" d="M330.05,1106.01L215.1,1220.96c-1.21,1.21-1.89,2.85-1.89,4.56l0,367.06c0,3.56,2.89,6.45,6.45,6.45l231,0
	c3.56,0,6.45-2.89,6.45-6.45l0,0l-0.25-0.49l0-365.73c0-1.71-0.68-3.35-1.89-4.56l-115.8-115.8
	C336.65,1103.49,332.57,1103.49,330.05,1106.01z"/>
<path class="st3" d="M1.85,332.21l160.74-160.74c4.06-4.06,11.01-1.19,11.01,4.56v357.14c0,1.73-0.7,3.39-1.94,4.61L10.92,695.18
	c-4.08,4-10.96,1.11-10.96-4.61V336.77C-0.04,335.06,0.64,333.42,1.85,332.21z"/>
<path class="st3" d="M667.37,332.21L506.64,171.47c-4.06-4.06-11.01-1.19-11.01,4.56v357.14c0,1.73,0.7,3.39,1.94,4.61l160.74,157.4
	c4.08,4,10.96,1.11,10.96-4.61V336.77C669.26,335.06,668.58,333.42,667.37,332.21z"/>
<path class="st3" d="M223.53,535.89h223.35c4.71,0,7.83,4.89,5.85,9.16L342.29,783.15c-2.3,4.96-9.34,4.99-11.68,0.05L217.7,545.1
	C215.68,540.82,218.8,535.89,223.53,535.89z"/>
<path class="st3" d="M330.05,4.01L215.1,118.96c-1.21,1.21-1.89,2.85-1.89,4.56l0,367.07c0,3.56,2.89,6.45,6.45,6.45l231,0
	c3.56,0,6.45-2.89,6.45-6.45l0,0l-0.25-0.49l0-365.73c0-1.71-0.68-3.35-1.89-4.56L339.17,4.01C336.65,1.49,332.57,1.49,330.05,4.01z
	"/>
<path class="st0" d="M-3567.44,5938.1l110.23-110.23c2.79-2.79,7.55-0.81,7.55,3.13v244.93c0,1.19-0.48,2.33-1.33,3.16
	l-110.23,107.94c-2.8,2.74-7.52,0.76-7.52-3.16v-242.64C-3568.74,5940.05-3568.27,5938.93-3567.44,5938.1z"/>
<path class="st0" d="M-3111.03,5938.1l-110.23-110.23c-2.79-2.79-7.55-0.81-7.55,3.13v244.93c0,1.19,0.48,2.33,1.33,3.16
	l110.23,107.94c2.8,2.74,7.52,0.76,7.52-3.16v-242.64C-3109.73,5940.05-3110.2,5938.93-3111.03,5938.1z"/>
<path class="st0" d="M-3415.42,6077.78h153.17c3.23,0,5.37,3.35,4.01,6.28l-75.74,163.29c-1.58,3.4-6.4,3.42-8.01,0.03
	l-77.43-163.29C-3420.8,6081.16-3418.66,6077.78-3415.42,6077.78z"/>
<path class="st0" d="M-3342.36,5713.02l-78.84,78.84c-0.83,0.83-1.3,1.95-1.3,3.13l0,251.73c0,2.44,1.98,4.42,4.42,4.42l158.42,0
	c2.44,0,4.42-1.98,4.42-4.42l0,0l-0.17-0.34l0-250.82c0-1.17-0.47-2.3-1.3-3.13l-79.41-79.41
	C-3337.84,5711.29-3340.64,5711.29-3342.36,5713.02z"/>
<path class="st0" d="M-2839.29,5904.27h-79.74v207.81h-48.34v-207.81h-80.44v-42.69h208.51V5904.27z"/>
<path class="st0" d="M-2807.9,6112.08v-250.5h111.14c11.29,0,21.82,2.36,31.58,7.06c9.76,4.71,18.23,11.06,25.4,19.05
	c7.17,8,12.7,16.94,16.58,26.81c3.88,9.88,5.82,20,5.82,30.34c0,10.58-1.82,20.7-5.47,30.34c-3.65,9.65-8.88,18.17-15.7,25.58
	c-6.82,7.41-14.82,13.11-23.99,17.11l57.16,94.2h-53.63l-51.51-83.97h-48.69v83.97H-2807.9z M-2759.21,5985.42h61.04
	c6.11,0,11.52-1.82,16.23-5.47c4.7-3.64,8.47-8.52,11.29-14.64c2.82-6.11,4.23-12.93,4.23-20.46c0-7.76-1.65-14.7-4.94-20.82
	c-3.3-6.11-7.41-10.94-12.35-14.46c-4.94-3.53-10.35-5.29-16.23-5.29h-59.27V5985.42z"/>
<path class="st0" d="M-2509.06,5861.58h49.39l92.08,250.5h-50.1l-20.82-62.45h-91.97l-20.93,62.45h-50.1L-2509.06,5861.58z
	 M-2449.9,6015.41l-34.46-103.37l-34.64,103.37H-2449.9z"/>
<path class="st0" d="M-2339.71,6112.08v-250.5h91.03c27.28,0,50.1,5.59,68.45,16.76c18.35,11.17,32.11,26.23,41.28,45.16
	c9.17,18.94,13.76,39.93,13.76,62.98c0,25.4-5.06,47.51-15.17,66.33c-10.11,18.82-24.4,33.4-42.87,43.75
	c-18.47,10.35-40.28,15.52-65.45,15.52H-2339.71z M-2174.24,5986.48c0-16.23-2.94-30.52-8.82-42.87
	c-5.88-12.35-14.35-21.99-25.4-28.93c-11.06-6.94-24.46-10.41-40.22-10.41h-42.34v165.12h42.34c16.23,0,29.81-3.64,40.75-10.94
	c10.94-7.29,19.28-17.16,25.05-29.64C-2177.13,6016.35-2174.24,6002.24-2174.24,5986.48z"/>
<path class="st0" d="M-2108.97,6075.74l139.71-171.47h-135.83v-42.69h193.7v36.34l-135.13,171.47h136.19v42.69h-198.63V6075.74z"/>
<path class="st0" d="M-1773.09,6113.85c-18.35,0-34.93-3.53-49.75-10.58c-14.82-7.05-27.64-16.64-38.46-28.75
	c-10.82-12.11-19.17-25.75-25.05-40.93c-5.88-15.17-8.82-30.75-8.82-46.75c0-16.7,3.11-32.64,9.35-47.81
	c6.23-15.17,14.82-28.69,25.75-40.57c10.94-11.87,23.93-21.28,38.99-28.22c15.05-6.94,31.4-10.41,49.04-10.41
	c18.11,0,34.63,3.65,49.57,10.94c14.93,7.29,27.7,17.06,38.28,29.28c10.58,12.23,18.75,25.88,24.52,40.92
	c5.76,15.06,8.64,30.58,8.64,46.57c0,16.46-3,32.28-9,47.45c-6,15.17-14.47,28.7-25.4,40.57c-10.94,11.88-23.88,21.23-38.81,28.05
	C-1739.17,6110.44-1755.45,6113.85-1773.09,6113.85z M-1845.77,5986.83c0,10.82,1.64,21.29,4.94,31.4
	c3.29,10.12,8.05,19.11,14.29,26.99c6.23,7.88,13.87,14.11,22.93,18.7c9.05,4.59,19.34,6.88,30.87,6.88
	c11.99,0,22.46-2.41,31.4-7.23c8.94-4.82,16.52-11.23,22.76-19.23c6.23-7.99,10.88-17.05,13.94-27.17
	c3.06-10.11,4.59-20.23,4.59-30.34c0-10.82-1.65-21.22-4.94-31.22c-3.3-10-8.12-18.93-14.47-26.81c-6.35-7.88-14-14.11-22.93-18.7
	c-8.94-4.59-19.17-6.88-30.69-6.88c-11.53,0-21.82,2.41-30.87,7.23c-9.06,4.82-16.7,11.17-22.93,19.05
	c-6.24,7.88-10.94,16.82-14.11,26.81C-1844.18,5966.31-1845.77,5976.48-1845.77,5986.83z"/>
<path class="st1" d="M-3567.44,5065.1l110.23-110.23c2.79-2.79,7.55-0.81,7.55,3.13v244.93c0,1.19-0.48,2.33-1.33,3.16
	l-110.23,107.94c-2.8,2.74-7.52,0.76-7.52-3.16v-242.64C-3568.74,5067.05-3568.27,5065.93-3567.44,5065.1z"/>
<path class="st1" d="M-3111.03,5065.1l-110.23-110.23c-2.79-2.79-7.55-0.81-7.55,3.13v244.93c0,1.19,0.48,2.33,1.33,3.16
	l110.23,107.94c2.8,2.74,7.52,0.76,7.52-3.16v-242.64C-3109.73,5067.05-3110.2,5065.93-3111.03,5065.1z"/>
<path class="st1" d="M-3415.42,5204.78h153.17c3.23,0,5.37,3.35,4.01,6.28l-75.74,163.29c-1.58,3.4-6.4,3.42-8.01,0.03
	l-77.43-163.29C-3420.8,5208.16-3418.66,5204.78-3415.42,5204.78z"/>
<path class="st1" d="M-3342.36,4840.02l-78.84,78.84c-0.83,0.83-1.3,1.95-1.3,3.13l0,251.73c0,2.44,1.98,4.42,4.42,4.42l158.42,0
	c2.44,0,4.42-1.98,4.42-4.42l0,0l-0.17-0.34l0-250.82c0-1.17-0.47-2.3-1.3-3.13l-79.41-79.41
	C-3337.84,4838.29-3340.64,4838.29-3342.36,4840.02z"/>
<path class="st1" d="M-2839.29,5031.27h-79.74v207.81h-48.34v-207.81h-80.44v-42.69h208.51V5031.27z"/>
<path class="st1" d="M-2807.9,5239.08v-250.5h111.14c11.29,0,21.82,2.36,31.58,7.06c9.76,4.71,18.23,11.06,25.4,19.05
	c7.17,8,12.7,16.94,16.58,26.81c3.88,9.88,5.82,20,5.82,30.34c0,10.58-1.82,20.7-5.47,30.34c-3.65,9.65-8.88,18.17-15.7,25.58
	c-6.82,7.41-14.82,13.11-23.99,17.11l57.16,94.2h-53.63l-51.51-83.97h-48.69v83.97H-2807.9z M-2759.21,5112.42h61.04
	c6.11,0,11.52-1.82,16.23-5.47c4.7-3.64,8.47-8.52,11.29-14.64c2.82-6.11,4.23-12.93,4.23-20.46c0-7.76-1.65-14.7-4.94-20.82
	c-3.3-6.11-7.41-10.94-12.35-14.46c-4.94-3.53-10.35-5.29-16.23-5.29h-59.27V5112.42z"/>
<path class="st1" d="M-2509.06,4988.58h49.39l92.08,250.5h-50.1l-20.82-62.45h-91.97l-20.93,62.45h-50.1L-2509.06,4988.58z
	 M-2449.9,5142.41l-34.46-103.37l-34.64,103.37H-2449.9z"/>
<path class="st1" d="M-2339.71,5239.08v-250.5h91.03c27.28,0,50.1,5.59,68.45,16.76c18.35,11.17,32.11,26.23,41.28,45.16
	c9.17,18.94,13.76,39.93,13.76,62.98c0,25.4-5.06,47.51-15.17,66.33c-10.11,18.82-24.4,33.4-42.87,43.75
	c-18.47,10.35-40.28,15.52-65.45,15.52H-2339.71z M-2174.24,5113.48c0-16.23-2.94-30.52-8.82-42.87
	c-5.88-12.35-14.35-21.99-25.4-28.93c-11.06-6.94-24.46-10.41-40.22-10.41h-42.34v165.12h42.34c16.23,0,29.81-3.64,40.75-10.94
	c10.94-7.29,19.28-17.16,25.05-29.64C-2177.13,5143.35-2174.24,5129.24-2174.24,5113.48z"/>
<path class="st1" d="M-2108.97,5202.74l139.71-171.47h-135.83v-42.69h193.7v36.34l-135.13,171.47h136.19v42.69h-198.63V5202.74z"/>
<path class="st1" d="M-1773.09,5240.85c-18.35,0-34.93-3.53-49.75-10.58c-14.82-7.05-27.64-16.64-38.46-28.75
	c-10.82-12.11-19.17-25.75-25.05-40.93c-5.88-15.17-8.82-30.75-8.82-46.75c0-16.7,3.11-32.64,9.35-47.81
	c6.23-15.17,14.82-28.69,25.75-40.57c10.94-11.87,23.93-21.28,38.99-28.22c15.05-6.94,31.4-10.41,49.04-10.41
	c18.11,0,34.63,3.65,49.57,10.94c14.93,7.29,27.7,17.06,38.28,29.28c10.58,12.23,18.75,25.88,24.52,40.92
	c5.76,15.06,8.64,30.58,8.64,46.57c0,16.46-3,32.28-9,47.45c-6,15.17-14.47,28.7-25.4,40.57c-10.94,11.88-23.88,21.23-38.81,28.05
	C-1739.17,5237.44-1755.45,5240.85-1773.09,5240.85z M-1845.77,5113.83c0,10.82,1.64,21.29,4.94,31.4
	c3.29,10.12,8.05,19.11,14.29,26.99c6.23,7.88,13.87,14.11,22.93,18.7c9.05,4.59,19.34,6.88,30.87,6.88
	c11.99,0,22.46-2.41,31.4-7.23c8.94-4.82,16.52-11.23,22.76-19.23c6.23-7.99,10.88-17.05,13.94-27.17
	c3.06-10.11,4.59-20.23,4.59-30.34c0-10.82-1.65-21.22-4.94-31.22c-3.3-10-8.12-18.93-14.47-26.81c-6.35-7.88-14-14.11-22.93-18.7
	c-8.94-4.59-19.17-6.88-30.69-6.88c-11.53,0-21.82,2.41-30.87,7.23c-9.06,4.82-16.7,11.17-22.93,19.05
	c-6.24,7.88-10.94,16.82-14.11,26.81C-1844.18,5093.31-1845.77,5103.48-1845.77,5113.83z"/>
<path class="st2" d="M-3567.44,4351.1l110.23-110.23c2.79-2.79,7.55-0.81,7.55,3.13v244.93c0,1.19-0.48,2.33-1.33,3.16
	l-110.23,107.94c-2.8,2.74-7.52,0.76-7.52-3.16v-242.64C-3568.74,4353.05-3568.27,4351.93-3567.44,4351.1z"/>
<path class="st2" d="M-3111.03,4351.1l-110.23-110.23c-2.79-2.79-7.55-0.81-7.55,3.13v244.93c0,1.19,0.48,2.33,1.33,3.16
	l110.23,107.94c2.8,2.74,7.52,0.76,7.52-3.16v-242.64C-3109.73,4353.05-3110.2,4351.93-3111.03,4351.1z"/>
<path class="st2" d="M-3415.42,4490.78h153.17c3.23,0,5.37,3.35,4.01,6.28l-75.74,163.29c-1.58,3.4-6.4,3.42-8.01,0.03
	l-77.43-163.29C-3420.8,4494.16-3418.66,4490.78-3415.42,4490.78z"/>
<path class="st2" d="M-3342.36,4126.02l-78.84,78.84c-0.83,0.83-1.3,1.95-1.3,3.13l0,251.73c0,2.44,1.98,4.42,4.42,4.42l158.42,0
	c2.44,0,4.42-1.98,4.42-4.42l0,0l-0.17-0.34l0-250.82c0-1.17-0.47-2.3-1.3-3.13l-79.41-79.41
	C-3337.84,4124.29-3340.64,4124.29-3342.36,4126.02z"/>
<path class="st2" d="M-2839.29,4317.27h-79.74v207.81h-48.34v-207.81h-80.44v-42.69h208.51V4317.27z"/>
<path class="st2" d="M-2807.9,4525.08v-250.5h111.14c11.29,0,21.82,2.36,31.58,7.06c9.76,4.71,18.23,11.06,25.4,19.05
	c7.17,8,12.7,16.94,16.58,26.81c3.88,9.88,5.82,20,5.82,30.34c0,10.58-1.82,20.7-5.47,30.34c-3.65,9.65-8.88,18.17-15.7,25.58
	c-6.82,7.41-14.82,13.11-23.99,17.11l57.16,94.2h-53.63l-51.51-83.97h-48.69v83.97H-2807.9z M-2759.21,4398.42h61.04
	c6.11,0,11.52-1.82,16.23-5.47c4.7-3.64,8.47-8.52,11.29-14.64c2.82-6.11,4.23-12.93,4.23-20.46c0-7.76-1.65-14.7-4.94-20.82
	c-3.3-6.11-7.41-10.94-12.35-14.46c-4.94-3.53-10.35-5.29-16.23-5.29h-59.27V4398.42z"/>
<path class="st2" d="M-2509.06,4274.58h49.39l92.08,250.5h-50.1l-20.82-62.45h-91.97l-20.93,62.45h-50.1L-2509.06,4274.58z
	 M-2449.9,4428.41l-34.46-103.37l-34.64,103.37H-2449.9z"/>
<path class="st2" d="M-2339.71,4525.08v-250.5h91.03c27.28,0,50.1,5.59,68.45,16.76c18.35,11.17,32.11,26.23,41.28,45.16
	c9.17,18.94,13.76,39.93,13.76,62.98c0,25.4-5.06,47.51-15.17,66.33c-10.11,18.82-24.4,33.4-42.87,43.75
	c-18.47,10.35-40.28,15.52-65.45,15.52H-2339.71z M-2174.24,4399.48c0-16.23-2.94-30.52-8.82-42.87
	c-5.88-12.35-14.35-21.99-25.4-28.93c-11.06-6.94-24.46-10.41-40.22-10.41h-42.34v165.12h42.34c16.23,0,29.81-3.64,40.75-10.94
	c10.94-7.29,19.28-17.16,25.05-29.64C-2177.13,4429.35-2174.24,4415.24-2174.24,4399.48z"/>
<path class="st2" d="M-2108.97,4488.74l139.71-171.47h-135.83v-42.69h193.7v36.34l-135.13,171.47h136.19v42.69h-198.63V4488.74z"/>
<path class="st2" d="M-1773.09,4526.85c-18.35,0-34.93-3.53-49.75-10.58c-14.82-7.05-27.64-16.64-38.46-28.75
	c-10.82-12.11-19.17-25.75-25.05-40.93c-5.88-15.17-8.82-30.75-8.82-46.75c0-16.7,3.11-32.64,9.35-47.81
	c6.23-15.17,14.82-28.69,25.75-40.57c10.94-11.87,23.93-21.28,38.99-28.22c15.05-6.94,31.4-10.41,49.04-10.41
	c18.11,0,34.63,3.65,49.57,10.94c14.93,7.29,27.7,17.06,38.28,29.28c10.58,12.23,18.75,25.88,24.52,40.92
	c5.76,15.06,8.64,30.58,8.64,46.57c0,16.46-3,32.28-9,47.45c-6,15.17-14.47,28.7-25.4,40.57c-10.94,11.88-23.88,21.23-38.81,28.05
	C-1739.17,4523.44-1755.45,4526.85-1773.09,4526.85z M-1845.77,4399.83c0,10.82,1.64,21.29,4.94,31.4
	c3.29,10.12,8.05,19.11,14.29,26.99c6.23,7.88,13.87,14.11,22.93,18.7c9.05,4.59,19.34,6.88,30.87,6.88
	c11.99,0,22.46-2.41,31.4-7.23c8.94-4.82,16.52-11.23,22.76-19.23c6.23-7.99,10.88-17.05,13.94-27.17
	c3.06-10.11,4.59-20.23,4.59-30.34c0-10.82-1.65-21.22-4.94-31.22c-3.3-10-8.12-18.93-14.47-26.81c-6.35-7.88-14-14.11-22.93-18.7
	c-8.94-4.59-19.17-6.88-30.69-6.88c-11.53,0-21.82,2.41-30.87,7.23c-9.06,4.82-16.7,11.17-22.93,19.05
	c-6.24,7.88-10.94,16.82-14.11,26.81C-1844.18,4379.31-1845.77,4389.48-1845.77,4399.83z"/>
<path class="st3" d="M-3567.44,3600.1l110.23-110.23c2.79-2.79,7.55-0.81,7.55,3.13v244.93c0,1.19-0.48,2.33-1.33,3.16
	l-110.23,107.94c-2.8,2.74-7.52,0.76-7.52-3.16v-242.64C-3568.74,3602.05-3568.27,3600.93-3567.44,3600.1z"/>
<path class="st3" d="M-3111.03,3600.1l-110.23-110.23c-2.79-2.79-7.55-0.81-7.55,3.13v244.93c0,1.19,0.48,2.33,1.33,3.16
	l110.23,107.94c2.8,2.74,7.52,0.76,7.52-3.16v-242.64C-3109.73,3602.05-3110.2,3600.93-3111.03,3600.1z"/>
<path class="st3" d="M-3415.42,3739.78h153.17c3.23,0,5.37,3.35,4.01,6.28l-75.74,163.29c-1.58,3.4-6.4,3.42-8.01,0.03
	l-77.43-163.29C-3420.8,3743.16-3418.66,3739.78-3415.42,3739.78z"/>
<path class="st3" d="M-3342.36,3375.02l-78.84,78.84c-0.83,0.83-1.3,1.95-1.3,3.13l0,251.73c0,2.44,1.98,4.42,4.42,4.42l158.42,0
	c2.44,0,4.42-1.98,4.42-4.42l0,0l-0.17-0.34l0-250.82c0-1.17-0.47-2.3-1.3-3.13l-79.41-79.41
	C-3337.84,3373.29-3340.64,3373.29-3342.36,3375.02z"/>
<path class="st2" d="M-2839.29,3566.27h-79.74v207.81h-48.34v-207.81h-80.44v-42.69h208.51V3566.27z"/>
<path class="st2" d="M-2807.9,3774.08v-250.5h111.14c11.29,0,21.82,2.36,31.58,7.06c9.76,4.71,18.23,11.06,25.4,19.05
	c7.17,8,12.7,16.94,16.58,26.81c3.88,9.88,5.82,20,5.82,30.34c0,10.58-1.82,20.7-5.47,30.34c-3.65,9.65-8.88,18.17-15.7,25.58
	c-6.82,7.41-14.82,13.11-23.99,17.11l57.16,94.2h-53.63l-51.51-83.97h-48.69v83.97H-2807.9z M-2759.21,3647.42h61.04
	c6.11,0,11.52-1.82,16.23-5.47c4.7-3.64,8.47-8.52,11.29-14.64c2.82-6.11,4.23-12.93,4.23-20.46c0-7.76-1.65-14.7-4.94-20.82
	c-3.3-6.11-7.41-10.94-12.35-14.46c-4.94-3.53-10.35-5.29-16.23-5.29h-59.27V3647.42z"/>
<path class="st2" d="M-2509.06,3523.58h49.39l92.08,250.5h-50.1l-20.82-62.45h-91.97l-20.93,62.45h-50.1L-2509.06,3523.58z
	 M-2449.9,3677.41l-34.46-103.37l-34.64,103.37H-2449.9z"/>
<path class="st2" d="M-2339.71,3774.08v-250.5h91.03c27.28,0,50.1,5.59,68.45,16.76c18.35,11.17,32.11,26.23,41.28,45.16
	c9.17,18.94,13.76,39.93,13.76,62.98c0,25.4-5.06,47.52-15.17,66.33c-10.11,18.82-24.4,33.4-42.87,43.75
	c-18.47,10.35-40.28,15.52-65.45,15.52H-2339.71z M-2174.24,3648.48c0-16.23-2.94-30.52-8.82-42.87
	c-5.88-12.35-14.35-21.99-25.4-28.93c-11.06-6.93-24.46-10.41-40.22-10.41h-42.34v165.12h42.34c16.23,0,29.81-3.64,40.75-10.94
	c10.94-7.29,19.28-17.17,25.05-29.64C-2177.13,3678.35-2174.24,3664.24-2174.24,3648.48z"/>
<path class="st2" d="M-2108.97,3737.74l139.71-171.47h-135.83v-42.69h193.7v36.34l-135.13,171.47h136.19v42.69h-198.63V3737.74z"/>
<path class="st2" d="M-1773.09,3775.85c-18.35,0-34.93-3.53-49.75-10.58c-14.82-7.05-27.64-16.64-38.46-28.76
	c-10.82-12.11-19.17-25.75-25.05-40.93c-5.88-15.17-8.82-30.75-8.82-46.75c0-16.7,3.11-32.64,9.35-47.81
	c6.23-15.17,14.82-28.69,25.75-40.57c10.94-11.87,23.93-21.28,38.99-28.22c15.05-6.93,31.4-10.41,49.04-10.41
	c18.11,0,34.63,3.65,49.57,10.94c14.93,7.29,27.7,17.06,38.28,29.28c10.58,12.23,18.75,25.88,24.52,40.92
	c5.76,15.06,8.64,30.58,8.64,46.57c0,16.47-3,32.28-9,47.45c-6,15.17-14.47,28.7-25.4,40.57c-10.94,11.88-23.88,21.23-38.81,28.05
	C-1739.17,3772.44-1755.45,3775.85-1773.09,3775.85z M-1845.77,3648.83c0,10.82,1.64,21.29,4.94,31.4
	c3.29,10.11,8.05,19.11,14.29,26.99c6.23,7.88,13.87,14.11,22.93,18.7c9.05,4.59,19.34,6.88,30.87,6.88
	c11.99,0,22.46-2.41,31.4-7.23c8.94-4.82,16.52-11.23,22.76-19.23c6.23-7.99,10.88-17.05,13.94-27.17
	c3.06-10.11,4.59-20.23,4.59-30.34c0-10.82-1.65-21.22-4.94-31.22c-3.3-10-8.12-18.93-14.47-26.81c-6.35-7.88-14-14.11-22.93-18.7
	c-8.94-4.59-19.17-6.88-30.69-6.88c-11.53,0-21.82,2.41-30.87,7.23c-9.06,4.82-16.7,11.17-22.93,19.05
	c-6.24,7.88-10.94,16.82-14.11,26.81C-1844.18,3628.31-1845.77,3638.48-1845.77,3648.83z"/>
</svg>
