<?xml version="1.0" encoding="utf-8"?>
<!-- Generator: Adobe Illustrator 24.0.1, SVG Export Plug-In . SVG Version: 6.00 Build 0)  -->
<svg version="1.1" id="Layer_1" xmlns="http://www.w3.org/2000/svg" xmlns:xlink="http://www.w3.org/1999/xlink" x="0px" y="0px"
	 viewBox="0 0 669.3 784.76" style="enable-background:new 0 0 669.3 784.76;" xml:space="preserve">
<style type="text/css">
	.st0{fill:#151616;}
	.st1{fill:#F7F7F7;}
	.st2{fill:#3D5A80;}
	.st3{fill:#EE6C4D;}
</style>
<path class="st0" d="M1.89,330.09l160.74-160.74c4.06-4.06,11.01-1.19,11.01,4.56v357.14c0,1.73-0.7,3.39-1.94,4.61L10.96,693.06
	c-4.08,4-10.96,1.11-10.96-4.61V334.64C0,332.94,0.68,331.3,1.89,330.09z"/>
<path class="st0" d="M667.41,330.09L506.67,169.35c-4.06-4.06-11.01-1.19-11.01,4.56v357.14c0,1.73,0.7,3.39,1.94,4.61l160.74,157.4
	c4.08,4,10.96,1.11,10.96-4.61V334.64C669.3,332.94,668.62,331.3,667.41,330.09z"/>
<path class="st0" d="M223.57,533.77h223.35c4.71,0,7.83,4.89,5.85,9.16L342.32,781.02c-2.3,4.96-9.34,4.99-11.68,0.05l-112.9-238.09
	C215.72,538.7,218.84,533.77,223.57,533.77z"/>
<path class="st0" d="M330.09,1.89L215.14,116.84c-1.21,1.21-1.89,2.85-1.89,4.56v367.06c0,3.56,2.89,6.45,6.45,6.45h231
	c3.56,0,6.45-2.89,6.45-6.45l0,0l-0.25-0.49V122.24c0-1.71-0.68-3.35-1.89-4.56L339.21,1.88C336.69-0.63,332.61-0.63,330.09,1.89z"
	/>
</svg>
