<?xml version="1.0" encoding="utf-8"?>
<!-- Generator: Adobe Illustrator 24.0.1, SVG Export Plug-In . SVG Version: 6.00 Build 0)  -->
<svg version="1.1" id="Layer_1" xmlns="http://www.w3.org/2000/svg" xmlns:xlink="http://www.w3.org/1999/xlink" x="0px" y="0px"
	 viewBox="0 0 1917.71 538.19" style="enable-background:new 0 0 1917.71 538.19;" xml:space="preserve">
<style type="text/css">
	.st0{fill:#151616;}
	.st1{fill:#F7F7F7;}
	.st2{fill:#3D5A80;}
	.st3{fill:#EE6C4D;}
</style>
<path class="st0" d="M1.3,226.38l110.23-110.23c2.79-2.79,7.55-0.81,7.55,3.13v244.93c0,1.19-0.48,2.33-1.33,3.16L7.52,475.31
	c-2.8,2.74-7.52,0.76-7.52-3.16V229.51C0,228.33,0.47,227.21,1.3,226.38z"/>
<path class="st0" d="M457.71,226.38L347.48,116.15c-2.79-2.79-7.55-0.81-7.55,3.13v244.93c0,1.19,0.48,2.33,1.33,3.16l110.23,107.94
	c2.8,2.74,7.52,0.76,7.52-3.16V229.51C459.01,228.33,458.54,227.21,457.71,226.38z"/>
<path class="st0" d="M153.32,366.06h153.17c3.23,0,5.37,3.35,4.01,6.28l-75.74,163.29c-1.58,3.4-6.4,3.42-8.01,0.03l-77.43-163.29
	C147.94,369.44,150.08,366.06,153.32,366.06z"/>
<path class="st0" d="M226.38,1.3l-78.84,78.84c-0.83,0.83-1.3,1.95-1.3,3.13V335c0,2.44,1.98,4.42,4.42,4.42h158.42
	c2.44,0,4.42-1.98,4.42-4.42l0,0l-0.17-0.34V83.84c0-1.17-0.47-2.3-1.3-3.13L232.62,1.3C230.9-0.43,228.1-0.43,226.38,1.3z"/>
<path class="st0" d="M729.45,192.55h-79.74v207.81h-48.34V192.55h-80.44v-42.69h208.51v42.69H729.45z"/>
<path class="st0" d="M760.84,400.36v-250.5h111.14c11.29,0,21.82,2.36,31.58,7.06c9.76,4.71,18.23,11.06,25.4,19.05
	c7.17,8,12.7,16.94,16.58,26.81c3.88,9.88,5.82,20,5.82,30.34c0,10.58-1.82,20.7-5.47,30.34c-3.65,9.65-8.88,18.17-15.7,25.58
	s-14.82,13.11-23.99,17.11l57.16,94.2h-53.63l-51.51-83.97h-48.69v83.97h-48.69V400.36z M809.53,273.7h61.04
	c6.11,0,11.52-1.82,16.23-5.47c4.7-3.64,8.47-8.52,11.29-14.64c2.82-6.11,4.23-12.93,4.23-20.46c0-7.76-1.65-14.7-4.94-20.82
	c-3.3-6.11-7.41-10.94-12.35-14.46c-4.94-3.53-10.35-5.29-16.23-5.29h-59.27V273.7z"/>
<path class="st0" d="M1059.68,149.86h49.39l92.08,250.5h-50.1l-20.82-62.45h-91.97l-20.93,62.45h-50.1L1059.68,149.86z
	 M1118.84,303.69l-34.46-103.37l-34.64,103.37H1118.84z"/>
<path class="st0" d="M1229.03,400.36v-250.5h91.03c27.28,0,50.1,5.59,68.45,16.76c18.35,11.17,32.11,26.23,41.28,45.16
	c9.17,18.94,13.76,39.93,13.76,62.98c0,25.4-5.06,47.51-15.17,66.33c-10.11,18.82-24.4,33.4-42.87,43.75
	c-18.47,10.35-40.28,15.52-65.45,15.52H1229.03z M1394.5,274.76c0-16.23-2.94-30.52-8.82-42.87c-5.88-12.35-14.35-21.99-25.4-28.93
	c-11.06-6.94-24.46-10.41-40.22-10.41h-42.34v165.12h42.34c16.23,0,29.81-3.64,40.75-10.94c10.94-7.29,19.28-17.16,25.05-29.64
	C1391.61,304.63,1394.5,290.52,1394.5,274.76z"/>
<path class="st0" d="M1459.77,364.02l139.71-171.47h-135.83v-42.69h193.7v36.34l-135.13,171.47h136.19v42.69h-198.63v-36.34H1459.77
	z"/>
<path class="st0" d="M1795.65,402.13c-18.35,0-34.93-3.53-49.75-10.58c-14.82-7.05-27.64-16.64-38.46-28.75
	s-19.17-25.75-25.05-40.93c-5.88-15.17-8.82-30.75-8.82-46.75c0-16.7,3.11-32.64,9.35-47.81c6.23-15.17,14.82-28.69,25.75-40.57
	c10.94-11.87,23.93-21.28,38.99-28.22c15.05-6.94,31.4-10.41,49.04-10.41c18.11,0,34.63,3.65,49.57,10.94
	c14.93,7.29,27.7,17.06,38.28,29.28c10.58,12.23,18.75,25.88,24.52,40.92c5.76,15.06,8.64,30.58,8.64,46.57c0,16.46-3,32.28-9,47.45
	c-6,15.17-14.47,28.7-25.4,40.57c-10.94,11.88-23.88,21.23-38.81,28.05C1829.57,398.72,1813.29,402.13,1795.65,402.13z
	 M1722.97,275.11c0,10.82,1.64,21.29,4.94,31.4c3.29,10.12,8.05,19.11,14.29,26.99c6.23,7.88,13.87,14.11,22.93,18.7
	c9.05,4.59,19.34,6.88,30.87,6.88c11.99,0,22.46-2.41,31.4-7.23c8.94-4.82,16.52-11.23,22.76-19.23
	c6.23-7.99,10.88-17.05,13.94-27.17c3.06-10.11,4.59-20.23,4.59-30.34c0-10.82-1.65-21.22-4.94-31.22
	c-3.3-10-8.12-18.93-14.47-26.81s-14-14.11-22.93-18.7c-8.94-4.59-19.17-6.88-30.69-6.88c-11.53,0-21.82,2.41-30.87,7.23
	c-9.06,4.82-16.7,11.17-22.93,19.05c-6.24,7.88-10.94,16.82-14.11,26.81C1724.56,254.59,1722.97,264.76,1722.97,275.11z"/>
</svg>
