<?xml version="1.0" encoding="utf-8"?>
<!-- Generator: Adobe Illustrator 24.0.1, SVG Export Plug-In . SVG Version: 6.00 Build 0)  -->
<svg version="1.1" id="Layer_1" xmlns="http://www.w3.org/2000/svg" xmlns:xlink="http://www.w3.org/1999/xlink" x="0px" y="0px"
	 viewBox="0 0 669.74 786.68" style="enable-background:new 0 0 669.74 786.68;" xml:space="preserve">
<style type="text/css">
	.st0{fill:#151616;}
	.st1{fill:#F7F7F7;}
	.st2{fill:#3D5A80;}
	.st3{fill:#EE6C4D;}
</style>
<path class="st3" d="M1.85,332.21l160.74-160.74c4.06-4.06,11.01-1.19,11.01,4.56v357.14c0,1.73-0.7,3.39-1.94,4.61L10.92,695.18
	c-4.08,4-10.96,1.11-10.96-4.61v-353.8C-0.04,335.06,0.64,333.42,1.85,332.21z"/>
<path class="st3" d="M667.37,332.21L506.64,171.47c-4.06-4.06-11.01-1.19-11.01,4.56v357.14c0,1.73,0.7,3.39,1.94,4.61l160.74,157.4
	c4.08,4,10.96,1.11,10.96-4.61v-353.8C669.26,335.06,668.58,333.42,667.37,332.21z"/>
<path class="st3" d="M223.53,535.89h223.35c4.71,0,7.83,4.89,5.85,9.16l-110.44,238.1c-2.3,4.96-9.34,4.99-11.68,0.05L217.7,545.1
	C215.68,540.82,218.8,535.89,223.53,535.89z"/>
<path class="st3" d="M330.05,4.01L215.1,118.96c-1.21,1.21-1.89,2.85-1.89,4.56v367.07c0,3.56,2.89,6.45,6.45,6.45h231
	c3.56,0,6.45-2.89,6.45-6.45l0,0l-0.25-0.49V124.37c0-1.71-0.68-3.35-1.89-4.56L339.17,4.01C336.65,1.49,332.57,1.49,330.05,4.01z"
	/>
</svg>
