<svg width="28" height="28" viewBox="0 0 28 28" fill="none" xmlns="http://www.w3.org/2000/svg">
<g clip-path="url(#clip0_790_7154)">
<path d="M22.167 7C24.1 7 25.667 5.433 25.667 3.5C25.667 1.567 24.1 0 22.167 0C20.234 0 18.667 1.567 18.667 3.5C18.667 5.433 20.234 7 22.167 7Z" fill="#FF3422"/>
<path d="M7.00016 9.3335V7.00016H17.5352C16.1235 5.1335 16.2752 3.25516 16.4618 2.3335H4.6785C3.39516 2.3335 2.34516 3.37183 2.34516 4.66683L2.3335 25.6668L7.00016 21.0002H23.3335C24.6168 21.0002 25.6668 19.9502 25.6668 18.6668V8.13183C24.6868 8.8785 23.4852 9.3335 22.1668 9.3335H7.00016ZM16.3335 16.3335H7.00016V14.0002H16.3335V16.3335ZM21.0002 12.8335H7.00016V10.5002H21.0002V12.8335Z" fill="#1D2839"/>
</g>
<defs>
<clipPath id="clip0_790_7154">
<rect width="28" height="28" fill="white"/>
</clipPath>
</defs>
</svg>
