<svg id="Layer_1" data-name="Layer 1" xmlns="http://www.w3.org/2000/svg" viewBox="0 0 2000 538.19"><defs><style>.cls-1{fill:#f7f7f7;}</style></defs><title>Final Logos</title><path class="cls-1" d="M1.3,226.38,111.53,116.14a4.43,4.43,0,0,1,7.55,3.13V364.2a4.42,4.42,0,0,1-1.33,3.16L7.52,475.3A4.42,4.42,0,0,1,0,472.14V229.5A4.41,4.41,0,0,1,1.3,226.38Z"/><path class="cls-1" d="M457.71,226.38,347.48,116.14a4.42,4.42,0,0,0-7.55,3.13V364.2a4.42,4.42,0,0,0,1.33,3.16L451.49,475.3a4.42,4.42,0,0,0,7.52-3.16V229.5A4.41,4.41,0,0,0,457.71,226.38Z"/><path class="cls-1" d="M153.32,366.06H306.5a4.42,4.42,0,0,1,4,6.28L234.77,535.63a4.42,4.42,0,0,1-8,0L149.33,372.38A4.42,4.42,0,0,1,153.32,366.06Z"/><path class="cls-1" d="M226.38,1.3,147.54,80.13a4.44,4.44,0,0,0-1.3,3.13V335a4.43,4.43,0,0,0,4.43,4.42H309.09a4.42,4.42,0,0,0,4.42-4.42h0l-.17-.33V83.84a4.42,4.42,0,0,0-1.3-3.13L232.63,1.3A4.41,4.41,0,0,0,226.38,1.3Z"/><path class="cls-1" d="M729.45,192.55H649.71V400.36H601.38V192.55H520.93V149.86H729.45Z"/><path class="cls-1" d="M760.84,400.36V149.86H872a71.88,71.88,0,0,1,31.58,7.06A81.44,81.44,0,0,1,929,176a88.29,88.29,0,0,1,16.58,26.81,82.41,82.41,0,0,1,5.82,30.35,85,85,0,0,1-5.47,30.34,78.08,78.08,0,0,1-15.7,25.58,70.58,70.58,0,0,1-24,17.11l57.16,94.2H909.73l-51.51-84H809.53v84ZM809.53,273.7h61a25.76,25.76,0,0,0,16.23-5.47,38.46,38.46,0,0,0,11.29-14.64,48.25,48.25,0,0,0,4.23-20.46,43.27,43.27,0,0,0-4.94-20.82A41.65,41.65,0,0,0,885,197.85a27.32,27.32,0,0,0-16.23-5.3H809.53Z"/><path class="cls-1" d="M1059.68,149.86h49.39l92.09,250.5h-50.1l-20.82-62.45h-92l-20.93,62.45h-50.1Zm59.16,153.83-34.46-103.37-34.64,103.37Z"/><path class="cls-1" d="M1229,400.36V149.86h91q40.93,0,68.45,16.76a106.32,106.32,0,0,1,41.28,45.16q13.76,28.41,13.76,63,0,38.1-15.17,66.33a107.46,107.46,0,0,1-42.87,43.75q-27.7,15.53-65.45,15.52Zm165.47-125.6q0-24.35-8.83-42.87a67.6,67.6,0,0,0-25.4-28.93q-16.59-10.4-40.22-10.41h-42.34V357.67h42.34q24.35,0,40.75-10.94a70.11,70.11,0,0,0,25-29.63Q1394.49,298.4,1394.5,274.76Z"/><path class="cls-1" d="M1459.77,364l139.71-171.47H1463.64V149.86h193.7V186.2L1522.21,357.67H1658.4v42.69H1459.77Z"/><path class="cls-1" d="M1795.65,402.13q-27.53,0-49.75-10.59a120.41,120.41,0,0,1-38.46-28.75,133.3,133.3,0,0,1-25-40.93,128.29,128.29,0,0,1-8.82-46.75,124.6,124.6,0,0,1,9.35-47.8,135.12,135.12,0,0,1,25.76-40.58,121.68,121.68,0,0,1,39-28.22,115.66,115.66,0,0,1,49-10.41q27.16,0,49.57,10.94a119.24,119.24,0,0,1,38.28,29.28,137.15,137.15,0,0,1,24.52,40.93,129.85,129.85,0,0,1-25.76,134.59,119.67,119.67,0,0,1-38.81,28.05A116.08,116.08,0,0,1,1795.65,402.13Zm-72.68-127a100.56,100.56,0,0,0,4.94,31.4,85.61,85.61,0,0,0,14.29,27,68,68,0,0,0,22.93,18.7q13.57,6.89,30.87,6.88,18,0,31.4-7.23a71.72,71.72,0,0,0,22.76-19.23,82.64,82.64,0,0,0,13.93-27.17,104.24,104.24,0,0,0,4.59-30.34,99.27,99.27,0,0,0-4.94-31.22,84.48,84.48,0,0,0-14.46-26.81,70.5,70.5,0,0,0-22.94-18.7q-13.41-6.88-30.69-6.88t-30.87,7.23a72,72,0,0,0-22.94,19.05,83.78,83.78,0,0,0-14.11,26.81A100.42,100.42,0,0,0,1723,275.11Z"/><path class="cls-1" d="M1979.88,163c.06-.12.11-.2.14-.28q4.18-10.37,8.36-20.73c.75-1.86,1.51-3.72,2.25-5.58a.41.41,0,0,1,.46-.31c2,0,3.93,0,5.9,0h.36q1.32,18.38,2.65,36.73h-6.66q-.83-11.49-1.64-23h-.07c-.2.46-.39.93-.58,1.39l-8.76,21.33a.42.42,0,0,1-.46.31H1978a.45.45,0,0,1-.51-.34q-3.7-9.06-7.43-18.11l-1.8-4.39c0-.07-.07-.12-.15-.27,0,.4-.06.71-.08,1q-.4,5.64-.8,11.28l-.75,10.51c0,.19,0,.29-.27.29H1960l-.2,0q1.32-18.34,2.65-36.72l.35,0c2,0,3.91,0,5.86,0a.47.47,0,0,1,.53.36q2.65,6.6,5.32,13.2l5.28,13.11C1979.79,162.81,1979.83,162.87,1979.88,163Z"/><path class="cls-1" d="M1946.83,172.82H1940V142.18H1927.1V136.1h32.47v6.07h-12.74Z"/></svg>