<svg width="867" height="455" viewBox="0 0 867 455" fill="none" xmlns="http://www.w3.org/2000/svg">
<rect width="867" height="455" fill="#F5F5F5"/>
<path d="M853.354 396.47C846.551 402.011 840.31 408.208 834.721 414.972C825.975 425.521 818.897 437.349 813.735 450.043C813.357 450.969 814.86 451.372 815.234 450.456C823.681 429.826 837.165 411.643 854.453 397.57C855.229 396.938 854.123 395.843 853.354 396.47Z" fill="white"/>
<path d="M619.757 267.462H17.119C12.5803 267.457 8.22902 265.652 5.0197 262.443C1.81038 259.233 0.0051267 254.882 0 250.343V17.1191C0.00512669 12.5805 1.81038 8.22914 5.0197 5.01979C8.22902 1.81044 12.5803 0.00516646 17.119 0H619.757C624.296 0.00515053 628.647 1.81041 631.856 5.01976C635.066 8.22911 636.871 12.5804 636.876 17.1191V250.343C636.871 254.882 635.066 259.233 631.856 262.443C628.647 265.652 624.296 267.457 619.757 267.462Z" fill="#3F3D56"/>
<path d="M619.757 3.50003H17.1189C13.5084 3.50484 10.0472 4.94123 7.4942 7.49423C4.9412 10.0472 3.50481 13.5085 3.5 17.119V250.343C3.50481 253.954 4.9412 257.415 7.4942 259.968C10.0472 262.521 13.5084 263.957 17.1189 263.962H619.757C623.368 263.957 626.829 262.521 629.382 259.968C631.935 257.415 633.371 253.954 633.376 250.343V17.119C633.371 13.5085 631.935 10.0472 629.382 7.49423C626.829 4.94123 623.368 3.50484 619.757 3.50003Z" fill="white"/>
<path d="M633.376 41.4544V250.343C633.371 253.954 631.935 257.415 629.382 259.968C626.829 262.521 623.368 263.957 619.757 263.962H17.1189C13.5084 263.957 10.0472 262.521 7.4942 259.968C4.9412 257.415 3.50481 253.954 3.5 250.343V227.702C5.84907 218.049 15.1867 209.648 25.3669 207.273C39.0286 204.09 53.1837 208.542 66.53 212.883C79.8684 217.224 94.1 221.548 107.702 218.109C147.18 208.159 151.691 144.201 190.99 133.603C214.006 127.398 236.631 143.188 255.246 158.083C273.861 172.971 296.409 188.82 319.46 182.734C336.339 178.274 347.863 163.267 359.303 150.082C370.743 136.898 385.758 123.764 403.148 125.287C421.355 126.879 434.599 143.962 452.304 148.491C475.584 154.432 498.6 137.025 512.346 117.32C526.084 97.6154 535.218 74.2589 553.041 58.163C574.329 38.9348 605.449 34.1256 633.376 41.4544Z" fill="#EE6C4D"/>
</svg>
