<svg width="800" height="700" viewBox="0 0 800 700" fill="none" xmlns="http://www.w3.org/2000/svg">
<g clip-path="url(#clip0_1_115)">
<mask id="mask0_1_115" style="mask-type:luminance" maskUnits="userSpaceOnUse" x="0" y="0" width="800" height="700">
<path d="M800 0H0V700H800V0Z" fill="white"/>
</mask>
<g mask="url(#mask0_1_115)">
<path d="M653.418 439.002H138.171C134.654 438.997 131.282 437.251 128.795 434.148C126.307 431.044 124.909 426.836 124.905 422.447V25.9801C124.907 22.7646 125.932 19.6818 127.754 17.4081C129.576 15.1343 132.047 13.8553 134.623 13.8516H656.797C659.419 13.8553 661.932 15.1564 663.785 17.4695C665.639 19.7825 666.681 22.9187 666.684 26.1898V422.447C666.68 426.836 665.281 431.044 662.794 434.148C660.307 437.251 656.935 438.997 653.418 439.002Z" fill="#F2F2F2"/>
<path d="M634.622 415.558H154.425C147.386 415.558 141.659 408.866 141.659 400.64V55.3914C141.659 49.2911 145.903 44.3279 151.119 44.3279H637.771C643.074 44.3279 647.388 49.3729 647.388 55.5736V400.64C647.388 408.866 641.661 415.558 634.622 415.558Z" fill="white"/>
<path d="M666.5 25.0331H124.718V16.6048C124.723 12.2011 126.128 7.97975 128.624 4.86683C131.12 1.75391 134.504 0.00363819 138.033 0H653.185C656.714 0.00361699 660.098 1.75388 662.594 4.86681C665.09 7.97974 666.494 12.2011 666.5 16.6048V25.0331Z" fill="#293241"/>
<path d="M148.916 16.8392C150.818 16.8392 152.36 14.9151 152.36 12.5416C152.36 10.168 150.818 8.2439 148.916 8.2439C147.014 8.2439 145.472 10.168 145.472 12.5416C145.472 14.9151 147.014 16.8392 148.916 16.8392Z" fill="white"/>
<path d="M161.988 16.8392C163.89 16.8392 165.432 14.9151 165.432 12.5416C165.432 10.168 163.89 8.2439 161.988 8.2439C160.086 8.2439 158.544 10.168 158.544 12.5416C158.544 14.9151 160.086 16.8392 161.988 16.8392Z" fill="white"/>
<path d="M175.061 16.8392C176.963 16.8392 178.504 14.9151 178.504 12.5416C178.504 10.168 176.963 8.2439 175.061 8.2439C173.158 8.2439 171.617 10.168 171.617 12.5416C171.617 14.9151 173.158 16.8392 175.061 16.8392Z" fill="white"/>
<path d="M581.767 357.654H209.636C205.905 357.649 202.329 355.797 199.691 352.505C197.053 349.214 195.569 344.751 195.565 340.096V116.2C195.568 112.719 196.678 109.381 198.651 106.919C200.623 104.457 203.298 103.072 206.088 103.068H585.146C587.981 103.072 590.698 104.479 592.702 106.981C594.707 109.482 595.834 112.873 595.837 116.41V340.096C595.833 344.751 594.349 349.214 591.712 352.505C589.074 355.797 585.497 357.649 581.767 357.654ZM206.088 105.075C203.725 105.078 201.458 106.252 199.787 108.337C198.116 110.423 197.176 113.251 197.173 116.2V340.096C197.177 344.219 198.491 348.172 200.827 351.087C203.164 354.003 206.331 355.643 209.636 355.647H581.767C585.071 355.643 588.239 354.003 590.575 351.087C592.911 348.172 594.226 344.219 594.229 340.096V116.41C594.227 113.405 593.269 110.524 591.566 108.399C589.863 106.274 587.554 105.078 585.146 105.075H206.088Z" fill="#CCCCCC"/>
<path d="M222.5 340.096H568.903C572.315 340.096 575.587 338.404 577.999 335.394C580.412 332.383 581.767 328.3 581.767 324.043V136.875C581.767 132.617 580.412 128.534 577.999 125.523C575.587 122.513 572.315 120.822 568.903 120.822H222.5C219.088 120.822 215.816 122.513 213.404 125.523C210.991 128.534 209.636 132.617 209.636 136.875V324.043C209.636 328.3 210.991 332.383 213.404 335.394C215.816 338.404 219.088 340.096 222.5 340.096Z" fill="#F2F2F2"/>
<path d="M261.832 175.276C265.828 175.276 269.068 171.233 269.068 166.246C269.068 161.259 265.828 157.216 261.832 157.216C257.836 157.216 254.596 161.259 254.596 166.246C254.596 171.233 257.836 175.276 261.832 175.276Z" fill="#CCCCCC"/>
<path d="M261.832 209.389C265.828 209.389 269.068 205.346 269.068 200.359C269.068 195.372 265.828 191.329 261.832 191.329C257.836 191.329 254.596 195.372 254.596 200.359C254.596 205.346 257.836 209.389 261.832 209.389Z" fill="#CCCCCC"/>
<path d="M261.832 243.502C265.828 243.502 269.068 239.459 269.068 234.472C269.068 229.485 265.828 225.442 261.832 225.442C257.836 225.442 254.596 229.485 254.596 234.472C254.596 239.459 257.836 243.502 261.832 243.502Z" fill="#CCCCCC"/>
<path d="M261.832 277.615C265.828 277.615 269.068 273.572 269.068 268.585C269.068 263.598 265.828 259.555 261.832 259.555C257.836 259.555 254.596 263.598 254.596 268.585C254.596 273.572 257.836 277.615 261.832 277.615Z" fill="#CCCCCC"/>
<path d="M536.003 167.249H298.013C297.8 167.249 297.595 167.144 297.444 166.955C297.294 166.767 297.209 166.512 297.209 166.246C297.209 165.98 297.294 165.725 297.444 165.536C297.595 165.348 297.8 165.243 298.013 165.243H536.003C536.216 165.243 536.421 165.348 536.571 165.536C536.722 165.725 536.807 165.98 536.807 166.246C536.807 166.512 536.722 166.767 536.571 166.955C536.421 167.144 536.216 167.249 536.003 167.249Z" fill="#CCCCCC"/>
<path d="M536.003 201.362H298.013C297.8 201.362 297.595 201.257 297.444 201.068C297.294 200.88 297.209 200.625 297.209 200.359C297.209 200.093 297.294 199.838 297.444 199.649C297.595 199.461 297.8 199.356 298.013 199.356H536.003C536.216 199.356 536.421 199.461 536.571 199.649C536.722 199.838 536.807 200.093 536.807 200.359C536.807 200.625 536.722 200.88 536.571 201.068C536.421 201.257 536.216 201.362 536.003 201.362Z" fill="#CCCCCC"/>
<path d="M536.003 235.475H298.013C297.8 235.475 297.595 235.37 297.444 235.181C297.294 234.993 297.209 234.738 297.209 234.472C297.209 234.206 297.294 233.951 297.444 233.763C297.595 233.574 297.8 233.469 298.013 233.469H536.003C536.216 233.469 536.421 233.574 536.571 233.763C536.722 233.951 536.807 234.206 536.807 234.472C536.807 234.738 536.722 234.993 536.571 235.181C536.421 235.37 536.216 235.475 536.003 235.475Z" fill="#CCCCCC"/>
<path d="M536.003 269.588H298.013C297.8 269.588 297.595 269.483 297.444 269.294C297.294 269.106 297.209 268.851 297.209 268.585C297.209 268.319 297.294 268.064 297.444 267.876C297.595 267.687 297.8 267.582 298.013 267.582H536.003C536.216 267.582 536.421 267.687 536.571 267.876C536.722 268.064 536.807 268.319 536.807 268.585C536.807 268.851 536.722 269.106 536.571 269.294C536.421 269.483 536.216 269.588 536.003 269.588Z" fill="#CCCCCC"/>
<path d="M343.038 303.701H319.721C318.656 303.7 317.634 303.171 316.88 302.23C316.126 301.29 315.703 300.015 315.701 298.685V271.595C315.703 270.265 316.126 268.99 316.88 268.049C317.634 267.109 318.656 266.58 319.721 266.578H343.038C344.104 266.58 345.126 267.109 345.879 268.049C346.633 268.99 347.057 270.265 347.058 271.595V298.685C347.057 300.015 346.633 301.29 345.879 302.23C345.126 303.171 344.104 303.7 343.038 303.701Z" fill="#EE6C4D"/>
<path d="M395.299 303.701H371.983C370.917 303.7 369.895 303.171 369.141 302.23C368.388 301.29 367.964 300.015 367.963 298.685V237.482C367.964 236.152 368.388 234.877 369.141 233.936C369.895 232.996 370.917 232.467 371.983 232.465H395.299C396.365 232.467 397.387 232.996 398.141 233.936C398.894 234.877 399.318 236.152 399.319 237.482V298.685C399.318 300.015 398.894 301.29 398.141 302.23C397.387 303.171 396.365 303.7 395.299 303.701Z" fill="#EE6C4D"/>
<path d="M448.365 303.701H425.048C423.982 303.7 422.96 303.171 422.207 302.23C421.453 301.29 421.029 300.015 421.028 298.685V203.369C421.029 202.039 421.453 200.764 422.207 199.823C422.96 198.883 423.982 198.354 425.048 198.352H448.365C449.43 198.354 450.452 198.883 451.206 199.823C451.96 200.764 452.384 202.039 452.385 203.369V298.685C452.384 300.015 451.96 301.29 451.206 302.23C450.452 303.171 449.43 303.7 448.365 303.701Z" fill="#EE6C4D"/>
<path d="M503.038 303.701H479.722C478.656 303.7 477.634 303.171 476.88 302.23C476.127 301.29 475.703 300.015 475.701 298.685V170.259C475.703 168.929 476.127 167.654 476.88 166.714C477.634 165.773 478.656 165.244 479.722 165.243H503.038C504.104 165.244 505.126 165.773 505.879 166.714C506.633 167.654 507.057 168.929 507.058 170.259V298.685C507.057 300.015 506.633 301.29 505.879 302.23C505.126 303.171 504.104 303.7 503.038 303.701Z" fill="#EE6C4D"/>
<path d="M536.003 303.701H298.013C297.8 303.701 297.595 303.596 297.444 303.407C297.294 303.219 297.209 302.964 297.209 302.698C297.209 302.432 297.294 302.177 297.444 301.989C297.595 301.8 297.8 301.695 298.013 301.695H536.003C536.216 301.695 536.421 301.8 536.571 301.989C536.722 302.177 536.807 302.432 536.807 302.698C536.807 302.964 536.722 303.219 536.571 303.407C536.421 303.596 536.216 303.701 536.003 303.701Z" fill="#3F3D56"/>
<path d="M640.564 490.869C641.215 489.638 642.075 488.601 643.083 487.83C644.09 487.059 645.221 486.573 646.396 486.406C647.57 486.239 648.759 486.396 649.88 486.865C651.001 487.333 652.025 488.103 652.882 489.12L678.414 472.677L676.826 491.202L652.824 503.977C651.36 505.659 649.452 506.613 647.463 506.657C645.473 506.702 643.539 505.834 642.028 504.218C640.517 502.603 639.533 500.351 639.263 497.891C638.993 495.43 639.456 492.932 640.564 490.869Z" fill="#FFB8B8"/>
<path d="M662.532 497.778C661.952 497.211 661.525 496.437 661.307 495.559L659.276 487.373C659.058 486.486 659.063 485.537 659.292 484.653C659.52 483.77 659.96 482.996 660.552 482.435L681.246 462.93L703.658 411.046C704.597 409.537 705.764 408.274 707.094 407.328C708.424 406.383 709.89 405.773 711.409 405.535C712.928 405.296 714.469 405.434 715.945 405.938C717.422 406.443 718.804 407.306 720.013 408.478C721.222 409.649 722.234 411.106 722.992 412.766C723.749 414.426 724.238 416.255 724.429 418.151C724.62 420.046 724.51 421.969 724.105 423.811C723.7 425.654 723.009 427.378 722.07 428.887L709.319 462.468C705.451 472.661 698.747 480.754 690.455 485.24L666.203 498.367C665.737 498.619 665.233 498.745 664.725 498.739C664.217 498.732 663.715 498.592 663.253 498.327C662.996 498.18 662.754 497.996 662.532 497.778Z" fill="#3F3D56"/>
<path d="M722.633 389.392C733.54 389.392 742.381 378.359 742.381 364.75C742.381 351.14 733.54 340.107 722.633 340.107C711.727 340.107 702.886 351.14 702.886 364.75C702.886 378.359 711.727 389.392 722.633 389.392Z" fill="#FFB8B8"/>
<path d="M714.623 688.016L704.766 688.015L700.078 640.57L714.627 640.571L714.623 688.016Z" fill="#FFB8B8"/>
<path d="M697.725 684.5H716.735V699.437H685.756C685.756 697.475 686.065 695.533 686.667 693.721C687.268 691.909 688.15 690.262 689.261 688.875C690.373 687.488 691.692 686.388 693.144 685.637C694.597 684.887 696.153 684.5 697.725 684.5Z" fill="#2F2E41"/>
<path d="M746.784 688.018L736.927 688.017L732.239 640.571L746.788 640.573L746.784 688.018Z" fill="#FFB8B8"/>
<path d="M729.886 684.502H748.896V699.439H717.916C717.916 697.477 718.226 695.535 718.827 693.723C719.429 691.91 720.311 690.264 721.422 688.877C722.533 687.49 723.853 686.39 725.305 685.639C726.757 684.889 728.314 684.502 729.886 684.502Z" fill="#2F2E41"/>
<path d="M747.504 675.979L735.953 675.978C735.157 675.977 734.384 675.649 733.753 675.045C733.122 674.442 732.667 673.596 732.459 672.638L715.833 595.682C715.807 595.562 715.746 595.458 715.662 595.391C715.579 595.324 715.478 595.297 715.38 595.317C715.282 595.337 715.193 595.402 715.131 595.499C715.068 595.596 715.037 595.718 715.043 595.842L718.402 668.827C718.432 669.472 718.35 670.118 718.162 670.72C717.975 671.323 717.686 671.868 717.315 672.319C716.944 672.77 716.5 673.117 716.012 673.335C715.525 673.553 715.005 673.638 714.489 673.584L701.506 672.233C700.674 672.145 699.892 671.7 699.292 670.976C698.692 670.251 698.311 669.291 698.213 668.256L686.385 515.004L690.961 518.43L733.838 509.346L751.091 670.867C751.159 671.505 751.117 672.153 750.968 672.769C750.818 673.385 750.566 673.954 750.226 674.438C749.886 674.922 749.468 675.31 748.998 675.576C748.529 675.841 748.019 675.979 747.504 675.979Z" fill="#293241"/>
<path d="M700.725 531.179C695.995 531.132 691.36 529.504 687.305 526.466C686.68 526.004 686.181 525.317 685.875 524.495C685.568 523.673 685.468 522.755 685.587 521.861C687.095 510.337 694.981 451.22 702.156 418.991C705.079 405.865 711.54 398.795 721.362 397.978C735.728 396.802 748.497 410.828 749.827 429.282C752.173 461.838 742.645 508.093 738.439 526.469C738.276 527.179 737.976 527.828 737.565 528.359C737.154 528.89 736.645 529.288 736.083 529.516C735.52 529.745 734.921 529.797 734.338 529.669C733.756 529.542 733.207 529.237 732.741 528.783L724.169 520.462C723.641 519.959 722.989 519.703 722.326 519.737C721.662 519.772 721.03 520.095 720.537 520.651C713.312 528.693 706.449 531.179 700.725 531.179Z" fill="#3F3D56"/>
<path opacity="0.2" d="M729.075 445.213L736.31 483.34L725.856 515.446L733.094 484.344L729.075 445.213Z" fill="black"/>
<path d="M733.901 385.014C735.658 385.055 737.404 384.661 739.038 383.855C739.756 383.509 740.503 383.225 741.22 382.879C747.557 379.824 751.732 371.403 751.882 362.927C752.032 354.452 748.515 346.225 743.292 340.804C738.069 335.382 731.305 332.598 724.531 331.954C717.234 331.261 709.018 333.569 704.94 341.152C703.855 343.17 703.096 345.619 703.739 348.056C703.931 348.792 704.275 349.451 704.736 349.969C706.557 351.99 708.372 350.47 710.229 350.336C712.78 350.152 715.071 352.729 715.895 355.748C716.718 358.767 716.356 362.091 715.691 365.17C715.184 367.023 714.865 368.947 714.74 370.899C714.686 371.877 714.833 372.857 715.168 373.745C715.503 374.632 716.013 375.398 716.652 375.97C718.246 377.173 720.34 376.477 721.935 375.277C723.53 374.076 724.909 372.407 726.632 371.523C728.355 370.64 730.67 370.836 731.673 372.795C731.992 373.508 732.207 374.285 732.31 375.092C733.209 380.203 733.003 379.902 733.901 385.014Z" fill="#293241"/>
<path d="M703.293 653.597L579.638 599.858C577.517 598.933 575.776 596.995 574.797 594.469C573.819 591.944 573.684 589.038 574.42 586.388L606.554 471.248C607.097 469.308 608.235 467.716 609.717 466.822C611.2 465.928 612.906 465.804 614.462 466.477L742.297 522.033C743.878 522.723 745.176 524.167 745.905 526.049C746.634 527.931 746.735 530.097 746.186 532.072L714.088 647.085C713.346 649.733 711.793 651.906 709.77 653.127C707.746 654.347 705.417 654.516 703.293 653.597Z" fill="#E6E6E6"/>
<path d="M590.19 593.241L698.318 640.232C700.377 641.127 702.637 640.964 704.6 639.78C706.563 638.596 708.068 636.487 708.785 633.918L734.733 540.943C735.45 538.374 735.32 535.554 734.371 533.104C733.422 530.655 731.732 528.776 729.673 527.881L621.545 480.89C619.486 479.995 617.227 480.158 615.264 481.342C613.301 482.526 611.795 484.635 611.078 487.204L585.13 580.179C584.775 581.451 584.625 582.798 584.687 584.143C584.749 585.488 585.023 586.805 585.493 588.018C585.962 589.231 586.619 590.316 587.425 591.213C588.231 592.109 589.171 592.798 590.19 593.241Z" fill="white"/>
<path d="M617.343 527.918L611.988 525.591C611.697 525.464 611.459 525.199 611.325 524.854C611.192 524.508 611.173 524.111 611.274 523.748L613.139 517.066C613.24 516.704 613.453 516.406 613.73 516.239C614.006 516.072 614.325 516.049 614.616 516.175L619.971 518.502C620.261 518.629 620.499 518.894 620.633 519.239C620.767 519.585 620.785 519.982 620.684 520.345L618.82 527.027C618.718 527.39 618.506 527.687 618.229 527.854C617.952 528.021 617.633 528.044 617.343 527.918Z" fill="#EE6C4D"/>
<path d="M612.511 545.232L607.156 542.905C606.866 542.778 606.627 542.513 606.494 542.167C606.36 541.822 606.341 541.424 606.442 541.062L608.307 534.379C608.408 534.017 608.621 533.72 608.898 533.553C609.175 533.386 609.493 533.363 609.784 533.488L615.139 535.816C615.429 535.942 615.667 536.207 615.801 536.553C615.935 536.898 615.953 537.296 615.853 537.659L613.988 544.341C613.886 544.703 613.674 545 613.397 545.167C613.12 545.334 612.801 545.358 612.511 545.232Z" fill="#3F3D56"/>
<path d="M607.679 562.545L602.324 560.218C602.034 560.091 601.795 559.826 601.662 559.481C601.528 559.135 601.509 558.738 601.61 558.375L603.475 551.693C603.576 551.331 603.789 551.033 604.066 550.866C604.343 550.699 604.661 550.676 604.952 550.802L610.307 553.129C610.597 553.256 610.835 553.521 610.969 553.866C611.103 554.212 611.121 554.61 611.021 554.972L609.156 561.654C609.054 562.017 608.842 562.314 608.565 562.481C608.288 562.648 607.969 562.671 607.679 562.545Z" fill="#CCCCCC"/>
<path d="M653.326 539.81L627.525 528.597C627.38 528.535 627.248 528.438 627.133 528.311C627.019 528.185 626.926 528.032 626.86 527.86C626.793 527.689 626.754 527.503 626.745 527.313C626.736 527.123 626.758 526.932 626.808 526.753C626.858 526.573 626.936 526.407 627.038 526.265C627.139 526.123 627.262 526.007 627.4 525.925C627.537 525.842 627.686 525.794 627.839 525.783C627.991 525.773 628.144 525.8 628.288 525.863L654.089 537.076C654.233 537.138 654.366 537.235 654.48 537.362C654.594 537.488 654.687 537.641 654.754 537.812C654.821 537.984 654.859 538.17 654.868 538.36C654.877 538.55 654.856 538.74 654.806 538.92C654.756 539.1 654.677 539.266 654.576 539.408C654.474 539.55 654.351 539.665 654.214 539.748C654.076 539.831 653.927 539.879 653.775 539.889C653.622 539.9 653.47 539.873 653.326 539.81Z" fill="#CCCCCC"/>
<path d="M648.494 557.123L622.693 545.91C622.402 545.784 622.164 545.519 622.03 545.173C621.896 544.828 621.878 544.43 621.979 544.067C622.08 543.705 622.293 543.407 622.57 543.24C622.846 543.073 623.165 543.05 623.456 543.177L649.257 554.39C649.401 554.452 649.534 554.549 649.648 554.675C649.762 554.802 649.855 554.955 649.922 555.126C649.988 555.297 650.027 555.483 650.036 555.673C650.045 555.863 650.023 556.054 649.973 556.233C649.923 556.413 649.845 556.579 649.744 556.721C649.642 556.863 649.519 556.978 649.382 557.061C649.244 557.144 649.095 557.192 648.943 557.202C648.791 557.213 648.638 557.186 648.494 557.123Z" fill="#CCCCCC"/>
<path d="M643.662 574.437L617.861 563.224C617.57 563.098 617.332 562.832 617.198 562.487C617.064 562.141 617.046 561.743 617.147 561.381C617.248 561.018 617.461 560.721 617.738 560.554C618.015 560.387 618.333 560.364 618.624 560.49L644.425 571.703C644.716 571.829 644.954 572.094 645.088 572.44C645.222 572.786 645.24 573.183 645.139 573.546C645.038 573.908 644.825 574.206 644.549 574.373C644.272 574.54 643.953 574.563 643.662 574.437Z" fill="#CCCCCC"/>
<path d="M712.325 583.817C712.512 583.255 712.69 582.683 712.852 582.1C714.973 574.501 714.588 566.162 711.782 558.917C708.975 551.673 703.978 546.116 697.888 543.47L689.408 573.858L712.325 583.817Z" fill="#EE6C4D"/>
<path d="M686.942 575.707L695.422 545.319C690.94 543.371 686.1 543.102 681.497 544.546C676.895 545.99 672.731 549.084 669.521 553.445C666.31 557.806 664.193 563.245 663.429 569.09C662.666 574.935 663.29 580.931 665.225 586.339C667.16 591.747 670.321 596.33 674.318 599.522C678.315 602.715 682.974 604.378 687.719 604.307C692.464 604.235 697.089 602.432 701.023 599.12C704.958 595.807 708.029 591.13 709.858 585.666L686.942 575.707Z" fill="#3F3D56"/>
<path d="M717.303 532.116C717.207 530.646 717.37 529.167 717.782 527.784C718.193 526.402 718.843 525.148 719.684 524.113C720.526 523.077 721.539 522.284 722.653 521.79C723.767 521.296 724.954 521.113 726.13 521.253L738.089 488.653L746.001 504.453L733.432 532.989C733.112 535.44 732.083 537.659 730.539 539.226C728.995 540.793 727.045 541.6 725.056 541.492C723.068 541.384 721.181 540.371 719.752 538.642C718.323 536.914 717.451 534.592 717.303 532.116Z" fill="#FFB8B8"/>
<path d="M738.006 520.635C737.269 520.635 736.55 520.355 735.944 519.832L730.298 514.954C729.687 514.424 729.222 513.673 728.965 512.803C728.708 511.932 728.671 510.984 728.86 510.086L735.497 478.802L727.474 420.717C727.465 418.806 727.758 416.911 728.336 415.14C728.914 413.37 729.766 411.76 730.843 410.401C731.92 409.042 733.202 407.961 734.614 407.221C736.026 406.48 737.541 406.094 739.073 406.085C740.605 406.076 742.123 406.443 743.541 407.167C744.959 407.89 746.248 408.955 747.336 410.301C748.424 411.647 749.288 413.247 749.88 415.01C750.472 416.773 750.779 418.665 750.785 420.576L757.359 456.82C759.356 467.82 758.083 479.35 753.777 489.266L741.185 518.27C740.943 518.828 740.609 519.316 740.206 519.702C739.803 520.088 739.339 520.363 738.844 520.511C738.57 520.593 738.288 520.635 738.006 520.635Z" fill="#3F3D56"/>
<path d="M799.196 700H646.432C646.219 700 646.014 699.894 645.864 699.706C645.713 699.518 645.628 699.263 645.628 698.997C645.628 698.731 645.713 698.475 645.864 698.287C646.014 698.099 646.219 697.993 646.432 697.993H799.196C799.409 697.993 799.614 698.099 799.765 698.287C799.915 698.475 800 698.731 800 698.997C800 699.263 799.915 699.518 799.765 699.706C799.614 699.894 799.409 700 799.196 700Z" fill="#CCCCCC"/>
<path d="M394.405 687.517L404.262 687.516L408.951 640.071H394.403L394.405 687.517Z" fill="#A0616A"/>
<path d="M391.891 683.501L411.303 683.5C412.927 683.5 414.537 683.899 416.038 684.675C417.539 685.451 418.902 686.588 420.051 688.021C421.2 689.455 422.111 691.156 422.733 693.029C423.355 694.902 423.675 696.91 423.675 698.937V699.439L391.891 699.44V683.501Z" fill="#2F2E41"/>
<path d="M355.008 687.517L364.865 687.516L369.554 640.071H355.006L355.008 687.517Z" fill="#A0616A"/>
<path d="M352.494 683.501L371.906 683.5C373.53 683.5 375.14 683.899 376.641 684.675C378.142 685.451 379.505 686.588 380.654 688.021C381.803 689.455 382.714 691.156 383.336 693.029C383.958 694.902 384.278 696.91 384.278 698.937V699.439L352.494 699.44V683.501Z" fill="#2F2E41"/>
<path d="M396.372 359.047C407.279 359.047 416.12 348.015 416.12 334.405C416.12 320.795 407.279 309.762 396.372 309.762C385.466 309.762 376.625 320.795 376.625 334.405C376.625 348.015 385.466 359.047 396.372 359.047Z" fill="#A0616A"/>
<path d="M409.652 677.277H391.36C390.881 677.277 390.407 677.158 389.965 676.928C389.523 676.697 389.123 676.36 388.786 675.935C388.45 675.51 388.184 675.005 388.005 674.451C387.826 673.897 387.736 673.304 387.742 672.707L388.805 564.316C388.809 563.931 388.694 563.559 388.485 563.276C388.276 562.994 387.988 562.822 387.68 562.796C387.372 562.77 387.068 562.893 386.83 563.138C386.592 563.384 386.439 563.733 386.402 564.116L375.756 673.307C375.649 674.402 375.224 675.41 374.563 676.141C373.901 676.872 373.048 677.276 372.164 677.277H353.697C353.198 677.277 352.704 677.148 352.247 676.899C351.79 676.649 351.379 676.284 351.04 675.827C350.702 675.37 350.442 674.831 350.279 674.243C350.115 673.655 350.051 673.031 350.09 672.41L362.285 477.69L362.616 477.645L421.011 469.775L413.266 672.976C413.223 674.136 412.823 675.23 412.15 676.031C411.477 676.832 410.582 677.278 409.652 677.277Z" fill="#293241"/>
<path d="M362.995 489.643C362.057 489.641 361.157 489.183 360.484 488.367C359.811 487.551 359.419 486.441 359.39 485.27C359.071 472.958 358.525 430.356 364.875 399.08C366.608 390.536 370.498 382.914 375.97 377.342C381.442 371.77 388.206 368.543 395.261 368.138C402.206 367.665 409.093 369.933 414.946 374.619C420.8 379.306 425.322 386.174 427.871 394.248C438.545 428.063 448.629 469.744 436.057 476.282C419.579 484.849 376.139 488.668 363.217 489.634C363.143 489.64 363.069 489.643 362.995 489.643Z" fill="#3F3D56"/>
<path d="M438.47 309.498C438.78 309.896 439.115 310.263 439.472 310.595L437.399 360.286L428.776 365.795L433.738 383.12L449.761 375.219C451.056 374.58 452.15 373.435 452.878 371.955C453.607 370.475 453.931 368.74 453.802 367.011L449.604 310.645C450.978 309.366 452.007 307.595 452.555 305.569C453.102 303.542 453.143 301.355 452.67 299.3C452.198 297.244 451.235 295.416 449.909 294.06C448.584 292.704 446.959 291.883 445.251 291.707C443.543 291.531 441.833 292.008 440.347 293.075C438.862 294.142 437.672 295.748 436.936 297.679C436.2 299.611 435.952 301.776 436.226 303.887C436.5 305.999 437.283 307.956 438.47 309.498Z" fill="#A0616A"/>
<path d="M437.562 362.135L443.628 383.646C443.8 384.258 443.865 384.909 443.818 385.555C443.771 386.201 443.612 386.827 443.354 387.39C443.095 387.953 442.742 388.439 442.32 388.817C441.897 389.194 441.413 389.453 440.903 389.577L423.017 393.899C420.503 394.983 417.747 394.779 415.353 393.332C412.959 391.884 411.122 389.31 410.247 386.175C409.371 383.041 409.527 379.601 410.681 376.609C411.835 373.618 413.892 371.32 416.402 370.219L432.461 359.641C432.921 359.338 433.428 359.163 433.947 359.126C434.466 359.09 434.985 359.194 435.47 359.431C435.954 359.667 436.391 360.032 436.752 360.498C437.113 360.965 437.39 361.523 437.562 362.135Z" fill="#3F3D56"/>
<path d="M352.933 309.498C352.622 309.896 352.288 310.263 351.931 310.595L354.004 360.286L362.626 365.795L357.665 383.12L341.641 375.219C340.347 374.58 339.253 373.435 338.524 371.955C337.796 370.475 337.472 368.74 337.6 367.011L341.798 310.645C340.425 309.366 339.395 307.595 338.848 305.569C338.3 303.542 338.26 301.355 338.733 299.3C339.205 297.244 340.168 295.416 341.493 294.06C342.818 292.704 344.443 291.883 346.151 291.707C347.859 291.531 349.57 292.008 351.055 293.075C352.541 294.142 353.731 295.748 354.467 297.679C355.203 299.611 355.451 301.776 355.177 303.887C354.903 305.999 354.12 307.956 352.933 309.498Z" fill="#A0616A"/>
<path d="M355.933 359.43C356.417 359.193 356.937 359.09 357.456 359.126C357.975 359.162 358.482 359.338 358.941 359.641L375.001 370.219C377.51 371.32 379.568 373.618 380.722 376.609C381.875 379.6 382.032 383.041 381.156 386.175C380.28 389.31 378.444 391.884 376.05 393.332C373.656 394.779 370.9 394.983 368.385 393.899L350.5 389.577C349.989 389.453 349.506 389.194 349.083 388.817C348.66 388.439 348.307 387.953 348.049 387.39C347.79 386.827 347.632 386.201 347.585 385.555C347.537 384.909 347.602 384.258 347.775 383.646L353.84 362.135C354.013 361.523 354.289 360.965 354.65 360.498C355.011 360.031 355.449 359.667 355.933 359.43Z" fill="#3F3D56"/>
<path d="M404.042 338.605C403.938 335.462 404.571 332.349 405.861 329.646C407.152 326.944 409.046 324.769 411.311 323.387C417.314 319.52 421.085 311.272 419.432 303.74C417.317 294.099 406.802 287.847 398.282 291.164C395.977 292.185 393.753 293.475 391.64 295.016L386.074 298.739C383.696 300.224 381.404 301.913 379.213 303.794C375.931 306.812 373.358 310.874 371.764 315.556C370.17 320.238 369.613 325.369 370.151 330.412C371.247 340.213 376.391 349.202 383.432 355.355C386.124 357.867 389.234 359.592 392.532 360.403C395.907 361.098 399.664 360.309 402.132 357.689C405.988 353.597 405.59 346.742 404.342 341.018C404.178 340.228 404.077 339.42 404.042 338.605Z" fill="#293241"/>
<path d="M471.156 700H318.392C318.179 700 317.974 699.894 317.823 699.706C317.673 699.518 317.588 699.263 317.588 698.997C317.588 698.731 317.673 698.475 317.823 698.287C317.974 698.099 318.179 697.993 318.392 697.993H471.156C471.369 697.993 471.573 698.099 471.724 698.287C471.875 698.475 471.96 698.731 471.96 698.997C471.96 699.263 471.875 699.518 471.724 699.706C471.573 699.894 471.369 700 471.156 700Z" fill="#CCCCCC"/>
<path d="M221.837 516.966L95.7849 581.497C93.6201 582.602 91.1925 582.59 89.0347 581.464C86.877 580.338 85.1653 578.19 84.2752 575.491L45.6887 458.119C45.0401 456.14 45.0471 453.921 45.7082 451.948C46.3692 449.975 47.6303 448.41 49.2148 447.597L179.528 380.884C181.142 380.061 182.951 380.07 184.559 380.909C186.167 381.748 187.443 383.349 188.106 385.361L226.65 502.603C227.535 505.305 227.526 508.334 226.624 511.027C225.721 513.719 224 515.855 221.837 516.966Z" fill="#E6E6E6"/>
<path d="M100.351 567.261L210.575 510.833C212.674 509.759 214.344 507.688 215.22 505.076C216.095 502.464 216.103 499.525 215.242 496.906L184.084 402.129C183.657 400.832 183.03 399.652 182.239 398.658C181.447 397.663 180.506 396.873 179.47 396.332C178.433 395.791 177.322 395.51 176.199 395.506C175.075 395.501 173.962 395.772 172.923 396.304L62.6991 452.732C61.6598 453.264 60.7146 454.047 59.9176 455.034C59.1206 456.022 58.4873 457.196 58.0539 458.49C57.6205 459.783 57.3955 461.17 57.3917 462.572C57.3878 463.974 57.6053 465.363 58.0317 466.66L89.19 561.437C89.6164 562.734 90.2433 563.913 91.0349 564.908C91.8265 565.902 92.7674 566.693 93.8038 567.233C94.8402 567.774 95.9518 568.055 97.0751 568.06C98.1985 568.065 99.3116 567.793 100.351 567.261Z" fill="white"/>
<path d="M183.475 427.976L181.854 428.805L181.965 429.142L183.585 428.313L183.475 427.976Z" fill="#E6E6E6"/>
<path d="M178.691 430.818L175.417 432.494L175.307 432.157L178.58 430.481L178.691 430.818ZM172.144 434.17L168.87 435.846L168.759 435.509L172.033 433.833L172.144 434.17ZM165.596 437.522L162.322 439.198L162.212 438.861L165.485 437.185L165.596 437.522ZM159.049 440.874L155.775 442.55L155.664 442.213L158.938 440.537L159.049 440.874ZM152.501 444.226L149.227 445.902L149.116 445.565L152.39 443.889L152.501 444.226ZM145.953 447.578L142.68 449.254L142.569 448.917L145.843 447.241L145.953 447.578ZM139.406 450.93L136.132 452.606L136.021 452.269L139.295 450.593L139.406 450.93ZM132.858 454.282L129.585 455.958L129.474 455.621L132.748 453.945L132.858 454.282ZM126.311 457.634L123.037 459.31L122.926 458.973L126.2 457.297L126.311 457.634ZM119.763 460.986L116.49 462.662L116.379 462.325L119.652 460.649L119.763 460.986ZM113.216 464.338L109.942 466.014L109.831 465.677L113.105 464.001L113.216 464.338ZM106.668 467.69L103.394 469.366L103.284 469.029L106.557 467.353L106.668 467.69ZM100.121 471.042L96.847 472.718L96.7362 472.381L100.01 470.705L100.121 471.042ZM93.5732 474.394L90.2994 476.07L90.1886 475.733L93.4624 474.057L93.5732 474.394ZM87.0256 477.746L83.7519 479.422L83.6411 479.085L86.9148 477.409L87.0256 477.746ZM80.4781 481.098L77.2043 482.774L77.0935 482.437L80.3673 480.761L80.4781 481.098Z" fill="#E6E6E6"/>
<path d="M73.8197 484.113L72.1992 484.942L72.31 485.279L73.9305 484.45L73.8197 484.113Z" fill="#E6E6E6"/>
<path d="M140.572 486.559L138.952 487.389L139.062 487.726L140.683 486.896L140.572 486.559Z" fill="#E6E6E6"/>
<path d="M135.837 489.377L132.612 491.028L132.501 490.691L135.726 489.04L135.837 489.377ZM129.387 492.679L126.162 494.33L126.051 493.993L129.276 492.342L129.387 492.679ZM122.937 495.981L119.712 497.632L119.601 497.295L122.826 495.644L122.937 495.981ZM116.486 499.283L113.261 500.934L113.15 500.597L116.376 498.946L116.486 499.283ZM110.036 502.585L106.811 504.237L106.7 503.9L109.925 502.248L110.036 502.585ZM103.586 505.888L100.361 507.539L100.25 507.202L103.475 505.551L103.586 505.888ZM97.1354 509.19L93.9102 510.841L93.7994 510.504L97.0246 508.853L97.1354 509.19ZM90.6851 512.492L87.46 514.143L87.3491 513.806L90.5743 512.155L90.6851 512.492Z" fill="#E6E6E6"/>
<path d="M84.1242 515.457L82.5037 516.287L82.6145 516.624L84.235 515.794L84.1242 515.457Z" fill="#E6E6E6"/>
<path d="M113.847 517.566L112.227 518.396L112.338 518.733L113.958 517.903L113.847 517.566Z" fill="#E6E6E6"/>
<path d="M109.02 520.431L105.701 522.13L105.591 521.793L108.909 520.094L109.02 520.431ZM102.383 523.829L99.0648 525.528L98.954 525.19L102.272 523.492L102.383 523.829ZM95.7466 527.226L92.4284 528.925L92.3176 528.588L95.6358 526.889L95.7466 527.226Z" fill="#E6E6E6"/>
<path d="M88.9995 530.287L87.3789 531.116L87.4897 531.453L89.1103 530.624L88.9995 530.287Z" fill="#E6E6E6"/>
<path d="M122.167 542.873L120.547 543.703L120.658 544.04L122.278 543.21L122.167 542.873Z" fill="#E6E6E6"/>
<path d="M117.339 545.738L114.021 547.437L113.91 547.1L117.229 545.401L117.339 545.738ZM110.703 549.136L107.385 550.835L107.274 550.498L110.592 548.799L110.703 549.136ZM104.067 552.533L100.748 554.232L100.638 553.895L103.956 552.196L104.067 552.533Z" fill="#E6E6E6"/>
<path d="M97.3195 555.594L95.699 556.423L95.8098 556.76L97.4303 555.931L97.3195 555.594Z" fill="#E6E6E6"/>
<path d="M105.031 552.342L198.438 504.523C200.699 503.362 202.498 501.129 203.441 498.315C204.384 495.5 204.394 492.334 203.469 489.511L184.597 432.105L184.414 432.206L161.492 500.599L144.491 491.73C144.178 491.565 143.838 491.493 143.498 491.519C143.158 491.546 142.828 491.67 142.533 491.882C142.09 492.215 141.748 492.72 141.559 493.32L129.546 529.16L117.116 522.677C116.847 522.536 116.56 522.464 116.269 522.462C115.978 522.461 115.69 522.531 115.421 522.669C115.152 522.807 114.907 523.009 114.701 523.265C114.495 523.521 114.331 523.825 114.219 524.159C114.139 524.403 106.475 547.869 105.031 552.342Z" fill="#EE6C4D"/>
<path d="M104.744 552.882L104.474 552.742L114.086 524.06C114.34 523.303 114.825 522.703 115.434 522.391C116.042 522.08 116.725 522.082 117.333 522.398L129.517 528.757L141.462 493.114C141.716 492.357 142.201 491.757 142.81 491.445C143.418 491.133 144.101 491.136 144.708 491.452L161.463 500.196L184.503 431.444L184.773 431.585L161.62 500.672L144.596 491.788C144.33 491.649 144.046 491.578 143.758 491.576C143.471 491.575 143.186 491.645 142.92 491.781C142.654 491.917 142.412 492.117 142.208 492.37C142.004 492.623 141.842 492.923 141.731 493.254L129.674 529.233L117.22 522.734C116.684 522.456 116.082 522.454 115.545 522.729C115.008 523.003 114.58 523.533 114.355 524.201L104.744 552.882Z" fill="#3F3D56"/>
<path d="M113.903 520.285C115.031 520.285 115.946 519.143 115.946 517.735C115.946 516.326 115.031 515.184 113.903 515.184C112.774 515.184 111.859 516.326 111.859 517.735C111.859 519.143 112.774 520.285 113.903 520.285Z" fill="#3F3D56"/>
<path d="M140.628 489.278C141.756 489.278 142.671 488.136 142.671 486.728C142.671 485.319 141.756 484.177 140.628 484.177C139.499 484.177 138.584 485.319 138.584 486.728C138.584 488.136 139.499 489.278 140.628 489.278Z" fill="#3F3D56"/>
<path d="M182.241 430.604C183.37 430.604 184.285 429.462 184.285 428.054C184.285 426.646 183.37 425.504 182.241 425.504C181.112 425.504 180.198 426.646 180.198 428.054C180.198 429.462 181.112 430.604 182.241 430.604Z" fill="#3F3D56"/>
<path d="M67.8602 514.841C68.9225 514.181 69.856 513.239 70.595 512.08C71.3339 510.922 71.8602 509.575 72.1369 508.135C72.4136 506.695 72.434 505.197 72.1966 503.747C71.9591 502.296 71.4697 500.928 70.7627 499.738L76.8319 425.689H63.7157L58.8923 497.994C57.3701 499.609 56.3754 501.864 56.0967 504.333C55.818 506.801 56.2745 509.312 57.38 511.388C58.4854 513.465 60.1628 514.963 62.0944 515.6C64.026 516.236 66.0775 515.966 67.8602 514.841Z" fill="#FFB8B8"/>
<path d="M79.9033 384.822C90.1519 384.822 98.4601 374.455 98.4601 361.666C98.4601 348.877 90.1519 338.509 79.9033 338.509C69.6546 338.509 61.3464 348.877 61.3464 361.666C61.3464 374.455 69.6546 384.822 79.9033 384.822Z" fill="#FFB8B8"/>
<path d="M83.3968 468.813C82.654 468.813 81.9317 468.508 81.3409 467.946C80.7501 467.385 80.3233 466.596 80.126 465.703C78.6393 458.962 74.7712 447.565 68.6295 431.827C67.2436 428.27 66.4762 424.387 66.3776 420.433C66.2789 416.479 66.8513 412.544 68.0571 408.886C69.2629 405.228 71.0748 401.929 73.3741 399.206C75.6734 396.483 78.4081 394.398 81.3987 393.086C84.2328 391.837 87.2388 391.311 90.2389 391.537C93.239 391.764 96.1722 392.739 98.865 394.404C101.558 396.07 103.956 398.393 105.916 401.236C107.877 404.078 109.361 407.383 110.281 410.953C115.041 429.578 114.811 449.528 114.491 457.24C114.452 458.169 114.169 459.056 113.687 459.765C113.205 460.475 112.549 460.967 111.821 461.167L84.126 468.714C83.8865 468.78 83.642 468.813 83.3968 468.813Z" fill="#FF6584"/>
<path d="M110.217 688.707H119.479L123.886 644.122L110.215 644.123L110.217 688.707Z" fill="#FFB8B8"/>
<path d="M137.344 699.439L108.232 699.44L108.231 685.405L126.095 685.404C127.572 685.404 129.035 685.766 130.4 686.472C131.764 687.177 133.004 688.211 134.049 689.514C135.093 690.817 135.922 692.365 136.487 694.067C137.052 695.77 137.343 697.595 137.344 699.439Z" fill="#2F2E41"/>
<path d="M17.5935 673.727L25.7109 679.295L46.7859 642.877L34.8068 634.657L17.5935 673.727Z" fill="#FFB8B8"/>
<path d="M37.2212 699.44L11.7109 681.939L17.1296 669.639L32.7837 680.379C35.3977 682.172 37.3338 685.188 38.166 688.763C38.9982 692.337 38.6584 696.178 37.2212 699.44Z" fill="#2F2E41"/>
<path d="M109.784 663.96C108.958 663.96 108.161 663.584 107.542 662.904C106.922 662.224 106.522 661.285 106.415 660.264L94.8311 548.87C94.7799 548.378 94.6053 547.918 94.3321 547.556C94.0589 547.195 93.7012 546.95 93.3101 546.858C92.9189 546.765 92.5143 546.829 92.154 547.04C91.7937 547.252 91.4962 547.6 91.3039 548.035L43.026 657.338C42.6276 658.23 41.9858 658.914 41.2173 659.266C40.4488 659.618 39.6046 659.614 38.8382 659.255L28.315 654.252C27.8918 654.051 27.505 653.746 27.1774 653.356C26.8498 652.966 26.5881 652.498 26.4075 651.979C26.2269 651.461 26.1311 650.903 26.1257 650.338C26.1204 649.773 26.2056 649.212 26.3764 648.688L59.8198 546.168C59.9044 545.908 59.9618 545.635 59.9906 545.356C64.5203 501.606 76.0454 479.357 79.4697 473.58C79.7198 473.156 79.8844 472.662 79.9496 472.142C80.0148 471.621 79.9787 471.089 79.8444 470.589L79.3736 468.827C79.1856 468.127 79.1471 467.379 79.2618 466.655C79.3765 465.931 79.6406 465.258 80.0279 464.7C92.3669 447.162 113.873 456.732 114.089 456.831L114.197 456.88L114.264 456.995C138.379 498.265 129.463 632.309 127.431 658.76C127.355 659.754 127 660.683 126.428 661.382C125.857 662.08 125.106 662.504 124.308 662.578L110.048 663.949C109.959 663.957 109.871 663.96 109.784 663.96Z" fill="#293241"/>
<path d="M152.045 388.565C151.952 389.073 151.892 389.591 151.864 390.111L119.408 413.476L111.519 407.809L103.109 421.548L116.294 433.275C117.359 434.222 118.642 434.712 119.949 434.673C121.257 434.633 122.519 434.065 123.546 433.054L157.013 400.106C158.524 400.804 160.169 400.911 161.729 400.414C163.29 399.917 164.692 398.838 165.749 397.322C166.806 395.806 167.469 393.924 167.648 391.927C167.828 389.93 167.515 387.912 166.753 386.141C165.991 384.371 164.815 382.932 163.382 382.016C161.948 381.1 160.325 380.75 158.728 381.013C157.132 381.276 155.637 382.139 154.443 383.488C153.249 384.837 152.413 386.608 152.045 388.565Z" fill="#FFB8B8"/>
<path d="M118.323 414.583L107.834 431.548C107.535 432.031 107.157 432.427 106.724 432.711C106.292 432.995 105.816 433.159 105.328 433.193C104.84 433.226 104.352 433.128 103.897 432.905C103.443 432.681 103.032 432.339 102.693 431.899L90.8179 416.511C88.8475 414.592 87.5675 411.776 87.2585 408.68C86.9495 405.585 87.6368 402.462 89.1696 399.998C90.7024 397.534 92.9557 395.929 95.4354 395.535C97.9152 395.141 100.419 395.99 102.398 397.896L117.292 408.289C117.718 408.586 118.088 408.995 118.376 409.487C118.665 409.98 118.865 410.544 118.962 411.141C119.06 411.738 119.054 412.355 118.944 412.949C118.833 413.543 118.622 414.1 118.323 414.583Z" fill="#FF6584"/>
<path d="M77.6665 444.058L60.7682 440.25C60.2874 440.142 59.831 439.905 59.43 439.557C59.029 439.209 58.6928 438.757 58.4445 438.232C58.1961 437.707 58.0414 437.121 57.9907 436.514C57.9401 435.908 57.9948 435.295 58.1511 434.717L63.6292 414.478C64.0872 411.411 65.5011 408.696 67.5608 406.928C69.6205 405.16 72.158 404.484 74.6167 405.047C77.0755 405.61 79.2549 407.367 80.6771 409.933C82.0993 412.499 82.6481 415.663 82.2033 418.733L81.6688 440.017C81.6534 440.626 81.5328 441.224 81.3155 441.77C81.0981 442.316 80.789 442.797 80.4091 443.181C80.0293 443.564 79.5877 443.841 79.1144 443.992C78.6411 444.144 78.1473 444.166 77.6665 444.058Z" fill="#FF6584"/>
<path d="M82.8403 356.339C87.6098 360.413 93.8722 364.6 98.7435 360.262C100.267 358.814 101.374 356.789 101.899 354.491C102.423 352.192 102.337 349.743 101.653 347.511C99.3203 339.187 92.9117 335.522 86.7834 332.713C78.8167 329.062 70.1421 326.157 61.9178 328.772C53.6934 331.387 46.425 341.324 47.9096 351.751C49.1035 360.137 55.4423 367.115 54.5425 375.557C53.6368 384.054 45.9793 388.527 39.219 390.045C32.4586 391.564 24.8937 392.052 20.0353 398.111C13.8375 405.841 15.3852 419.658 21.217 427.819C27.0489 435.981 35.8495 439.68 44.3772 442.195C55.676 445.527 67.8964 447.278 78.6274 441.748C89.3584 436.218 97.7091 421.332 94.6005 407.373C93.2874 401.477 90.1942 396.494 87.2048 391.643C84.2154 386.791 81.1884 381.718 80.0481 375.766C79.0978 370.807 79.8011 365.048 82.437 361.327C82.9164 360.676 83.2181 359.852 83.2988 358.973C83.3794 358.095 83.235 357.207 82.886 356.437L82.8403 356.339Z" fill="#293241"/>
<path d="M153.568 700H0.80402C0.590781 700 0.386274 699.894 0.235491 699.706C0.0847084 699.518 0 699.263 0 698.997C0 698.731 0.0847084 698.475 0.235491 698.287C0.386274 698.099 0.590781 697.993 0.80402 697.993H153.568C153.781 697.993 153.986 698.099 154.136 698.287C154.287 698.475 154.372 698.731 154.372 698.997C154.372 699.263 154.287 699.518 154.136 699.706C153.986 699.894 153.781 700 153.568 700Z" fill="#CCCCCC"/>
</g>
</g>
<defs>
<clipPath id="clip0_1_115">
<rect width="800" height="700" fill="white"/>
</clipPath>
</defs>
</svg>
