<svg width="800" height="700" viewBox="0 0 800 700" fill="none" xmlns="http://www.w3.org/2000/svg">
<g clip-path="url(#clip0_1_210)">
<mask id="mask0_1_210" style="mask-type:luminance" maskUnits="userSpaceOnUse" x="0" y="0" width="800" height="700">
<path d="M800 0H0V700H800V0Z" fill="white"/>
</mask>
<g mask="url(#mask0_1_210)">
<path d="M533.895 246.139H266.348C261.755 246.134 257.352 244.368 254.105 241.229C250.857 238.09 249.03 233.834 249.025 229.395V26.2774C249.029 23.0251 250.367 19.907 252.746 17.6073C255.126 15.3075 258.351 14.0138 261.716 14.0101H538.308C541.73 14.0138 545.012 15.3299 547.432 17.6694C549.853 20.0089 551.214 23.1809 551.218 26.4895V229.395C551.213 233.834 549.386 238.09 546.138 241.229C542.891 244.368 538.488 246.134 533.895 246.139Z" fill="#F2F2F2"/>
<path d="M283.146 229.395H517.097C521.552 229.395 525.825 227.684 528.975 224.639C532.125 221.594 533.895 217.464 533.895 213.158V57.3365C533.895 53.0302 532.125 48.9003 528.975 45.8553C525.825 42.8103 521.552 41.0996 517.097 41.0996H283.146C278.691 41.0996 274.418 42.8103 271.268 45.8553C268.118 48.9003 266.348 53.0302 266.348 57.3365V213.158C266.348 217.464 268.118 221.594 271.268 224.639C274.418 227.684 278.691 229.395 283.146 229.395Z" fill="white"/>
<path d="M550.977 25.3196H248.782V16.7948C248.789 12.3408 250.623 8.0711 253.882 4.92255C257.142 1.774 261.56 0.00369326 266.168 0H533.591C538.199 0.00365838 542.617 1.77396 545.877 4.92251C549.136 8.07106 550.97 12.3407 550.977 16.7948V25.3196Z" fill="#293241"/>
<path d="M280.378 17.0319C282.862 17.0319 284.875 15.0858 284.875 12.6851C284.875 10.2844 282.862 8.33826 280.378 8.33826C277.895 8.33826 275.881 10.2844 275.881 12.6851C275.881 15.0858 277.895 17.0319 280.378 17.0319Z" fill="white"/>
<path d="M297.448 17.0319C299.932 17.0319 301.945 15.0858 301.945 12.6851C301.945 10.2844 299.932 8.33826 297.448 8.33826C294.964 8.33826 292.951 10.2844 292.951 12.6851C292.951 15.0858 294.964 17.0319 297.448 17.0319Z" fill="white"/>
<path d="M314.518 17.0319C317.001 17.0319 319.015 15.0858 319.015 12.6851C319.015 10.2844 317.001 8.33826 314.518 8.33826C312.034 8.33826 310.021 10.2844 310.021 12.6851C310.021 15.0858 312.034 17.0319 314.518 17.0319Z" fill="white"/>
<path d="M300.362 114.121H288.776C288.147 114.12 287.545 113.879 287.101 113.449C286.656 113.02 286.406 112.438 286.406 111.83V100.631C286.406 100.023 286.656 99.4411 287.101 99.0117C287.545 98.5822 288.147 98.3406 288.776 98.34H300.362C300.99 98.3406 301.593 98.5822 302.037 99.0117C302.481 99.4411 302.731 100.023 302.732 100.631V111.83C302.731 112.437 302.481 113.02 302.037 113.449C301.593 113.879 300.99 114.12 300.362 114.121Z" fill="#EE6C4D"/>
<path d="M300.362 143.138H288.776C288.147 143.137 287.545 142.895 287.101 142.466C286.656 142.036 286.406 141.454 286.406 140.847V129.647C286.406 129.04 286.656 128.458 287.101 128.028C287.545 127.599 288.147 127.357 288.776 127.357H300.362C300.99 127.357 301.593 127.599 302.037 128.028C302.481 128.458 302.731 129.04 302.732 129.647V140.847C302.731 141.454 302.481 142.036 302.037 142.466C301.593 142.895 300.99 143.137 300.362 143.138Z" fill="#3F3D56"/>
<path d="M300.362 172.154H288.776C288.147 172.154 287.545 171.912 287.101 171.483C286.656 171.053 286.406 170.471 286.406 169.863V158.664C286.406 158.057 286.656 157.474 287.101 157.045C287.545 156.616 288.147 156.374 288.776 156.373H300.362C300.99 156.374 301.593 156.616 302.037 157.045C302.481 157.474 302.731 158.057 302.732 158.664V169.863C302.731 170.471 302.481 171.053 302.037 171.483C301.593 171.912 300.99 172.154 300.362 172.154Z" fill="#CCCCCC"/>
<path d="M376.2 108.521H320.375C319.747 108.52 319.146 108.278 318.702 107.849C318.259 107.419 318.01 106.837 318.01 106.23C318.01 105.624 318.259 105.042 318.702 104.612C319.146 104.183 319.747 103.941 320.375 103.94H376.2C376.512 103.939 376.82 103.998 377.109 104.113C377.397 104.228 377.659 104.396 377.879 104.609C378.1 104.822 378.275 105.074 378.394 105.353C378.514 105.631 378.575 105.929 378.575 106.23C378.575 106.532 378.514 106.83 378.394 107.108C378.275 107.387 378.1 107.639 377.879 107.852C377.659 108.065 377.397 108.233 377.109 108.348C376.82 108.463 376.512 108.522 376.2 108.521Z" fill="#CCCCCC"/>
<path d="M376.2 137.538H320.375C319.747 137.537 319.146 137.295 318.702 136.865C318.259 136.436 318.01 135.854 318.01 135.247C318.01 134.64 318.259 134.058 318.702 133.629C319.146 133.2 319.747 132.958 320.375 132.956H376.2C376.829 132.956 377.431 133.198 377.876 133.627C378.32 134.057 378.57 134.64 378.57 135.247C378.57 135.855 378.32 136.437 377.876 136.867C377.431 137.297 376.829 137.538 376.2 137.538Z" fill="#CCCCCC"/>
<path d="M376.2 166.555H320.375C319.747 166.553 319.146 166.311 318.702 165.882C318.259 165.452 318.01 164.871 318.01 164.264C318.01 163.657 318.259 163.075 318.702 162.646C319.146 162.216 319.747 161.974 320.375 161.973H376.2C376.512 161.972 376.82 162.031 377.109 162.146C377.397 162.261 377.659 162.429 377.879 162.642C378.1 162.855 378.275 163.108 378.394 163.386C378.514 163.664 378.575 163.963 378.575 164.264C378.575 164.565 378.514 164.863 378.394 165.142C378.275 165.42 378.1 165.673 377.879 165.885C377.659 166.098 377.397 166.267 377.109 166.382C376.82 166.496 376.512 166.555 376.2 166.555Z" fill="#CCCCCC"/>
<path d="M513.744 135.975C513.804 135.012 513.837 134.042 513.837 133.064C513.837 120.329 508.604 108.116 499.287 99.1104C489.971 90.1053 477.335 85.0462 464.16 85.0462V135.975H513.744Z" fill="#EE6C4D"/>
<path d="M460.397 140.34V89.4115C450.699 89.4111 441.214 92.154 433.111 97.302C425.007 102.45 418.639 109.778 414.793 118.382C410.946 126.986 409.789 136.491 411.464 145.723C413.138 154.955 417.572 163.512 424.218 170.338C430.863 177.164 439.431 181.961 448.863 184.136C458.295 186.312 468.18 185.772 477.298 182.583C486.417 179.393 494.37 173.694 500.178 166.188C505.985 158.681 509.393 149.696 509.981 140.34H460.397Z" fill="#3F3D56"/>
<path d="M798.95 700H1.04987C0.771426 700 0.504387 699.893 0.307499 699.703C0.11061 699.512 0 699.254 0 698.985C0 698.716 0.11061 698.458 0.307499 698.268C0.504387 698.077 0.771426 697.97 1.04987 697.97H798.95C799.229 697.97 799.496 698.077 799.693 698.268C799.889 698.458 800 698.716 800 698.985C800 699.254 799.889 699.512 799.693 699.703C799.496 699.893 799.229 700 798.95 700Z" fill="#CCCCCC"/>
<path d="M529.858 419.039C530.209 419.499 530.521 419.985 530.792 420.492L583.405 426.21L591.057 416.217L608.168 425.408L593.105 449.682L528.648 433.331C527.008 434.855 524.927 435.86 522.681 436.213C520.435 436.566 518.131 436.25 516.076 435.306C514.021 434.363 512.311 432.837 511.175 430.931C510.039 429.026 509.53 426.831 509.715 424.639C509.901 422.447 510.772 420.362 512.214 418.66C513.656 416.959 515.599 415.722 517.786 415.114C519.972 414.506 522.298 414.556 524.455 415.257C526.612 415.958 528.496 417.278 529.858 419.039Z" fill="#FFB8B8"/>
<path d="M261.404 405.91C260.073 406.666 258.587 407.131 257.051 407.272C255.514 407.412 253.965 407.226 252.511 406.725C251.057 406.224 249.734 405.422 248.636 404.373C247.538 403.325 246.691 402.057 246.155 400.658L208.646 401.414L219.037 385.469L253.063 387.196C255.554 386.481 258.23 386.674 260.583 387.738C262.937 388.803 264.805 390.665 265.833 392.972C266.861 395.279 266.978 397.87 266.162 400.254C265.345 402.639 263.652 404.651 261.404 405.91Z" fill="#FFB8B8"/>
<path d="M244.919 401.346C244.621 402.307 244.004 403.146 243.164 403.736C242.324 404.325 241.307 404.631 240.269 404.607L171.622 402.921L109.463 385.132C107.752 384.642 106.16 383.829 104.777 382.739C103.395 381.65 102.25 380.305 101.41 378.784C100.57 377.263 100.051 375.596 99.8839 373.879C99.7164 372.162 99.9037 370.431 100.435 368.785C100.966 367.139 101.83 365.611 102.978 364.291C104.125 362.971 105.532 361.884 107.118 361.094C108.704 360.305 110.436 359.827 112.214 359.69C113.993 359.554 115.781 359.76 117.476 360.297L173.634 378.095L241.037 384.382C242.217 384.498 243.31 385.037 244.101 385.892C244.891 386.748 245.321 387.858 245.307 389.005L245.112 400.118C245.105 400.534 245.04 400.947 244.919 401.346Z" fill="#3F3D56"/>
<path d="M145.366 686.619L158.236 686.617L164.36 638.629L145.364 638.63L145.366 686.619Z" fill="#FFB8B8"/>
<path d="M142.082 682.556L167.43 682.555H167.431C169.553 682.555 171.653 682.959 173.613 683.744C175.573 684.528 177.354 685.678 178.854 687.128C180.354 688.578 181.544 690.3 182.355 692.194C183.167 694.088 183.585 696.119 183.585 698.169V698.677L142.083 698.678L142.082 682.556Z" fill="#2F2E41"/>
<path d="M107.571 686.619L120.441 686.617L126.565 638.629L107.568 638.63L107.571 686.619Z" fill="#FFB8B8"/>
<path d="M104.287 682.556L129.635 682.555H129.636C131.757 682.555 133.858 682.959 135.818 683.744C137.778 684.528 139.558 685.678 141.058 687.128C142.558 688.578 143.748 690.3 144.56 692.194C145.372 694.088 145.79 696.119 145.79 698.169V698.677L104.288 698.678L104.287 682.556Z" fill="#2F2E41"/>
<path d="M98.9323 492.681L102.006 668.946C102.015 669.505 102.144 670.055 102.384 670.563C102.624 671.071 102.969 671.525 103.399 671.898C103.829 672.271 104.333 672.555 104.882 672.731C105.43 672.906 106.01 672.971 106.585 672.921L121.646 671.597C122.634 671.51 123.559 671.088 124.255 670.406C124.952 669.723 125.376 668.824 125.453 667.868L134.271 557.919C134.292 557.661 134.414 557.42 134.612 557.246C134.811 557.072 135.07 556.978 135.338 556.983C135.606 556.988 135.862 557.092 136.053 557.273C136.244 557.455 136.357 557.7 136.367 557.959L140.774 670.425C140.815 671.475 141.275 672.468 142.058 673.196C142.84 673.924 143.884 674.331 144.97 674.331H161.123C162.193 674.331 163.222 673.937 164.001 673.228C164.78 672.52 165.25 671.551 165.315 670.519L176.623 491.666L109.431 475.429L98.9323 492.681Z" fill="#293241"/>
<path d="M147.668 327.17C161.91 327.17 173.454 316.01 173.454 302.245C173.454 288.479 161.91 277.32 147.668 277.32C133.427 277.32 121.883 288.479 121.883 302.245C121.883 316.01 133.427 327.17 147.668 327.17Z" fill="#FFB8B8"/>
<path d="M175.634 499.216C175.609 499.216 175.584 499.215 175.559 499.215L115.264 498.318C114.105 498.301 112.993 497.872 112.14 497.114C111.286 496.356 110.751 495.321 110.636 494.206L109.953 487.607C109.94 487.482 109.88 487.366 109.783 487.281C109.687 487.197 109.561 487.15 109.431 487.15C109.301 487.15 109.175 487.197 109.079 487.281C108.982 487.366 108.922 487.482 108.909 487.607L108.203 494.423C108.094 495.49 107.599 496.486 106.806 497.235C106.012 497.985 104.971 498.44 103.865 498.521L99.6038 498.838C98.8528 498.894 98.0989 498.776 97.4049 498.493C96.7109 498.21 96.0969 497.771 95.6143 497.212C95.1316 496.653 94.7942 495.99 94.6302 495.28C94.4662 494.569 94.4804 493.831 94.6715 493.127L98.3404 479.605C105.932 451.504 106.543 422.065 100.123 393.692L98.2996 385.675C96.9253 379.687 97.5543 373.431 100.096 367.81C102.638 362.19 106.961 357.495 112.442 354.403L124.284 347.692L129.658 339.902C130.697 338.398 132.097 337.159 133.738 336.289C135.378 335.42 137.212 334.945 139.083 334.906C146.578 334.748 159.436 336.075 161.852 346.669C167.838 348.646 173.022 352.406 176.66 357.41C180.297 362.413 182.2 368.402 182.095 374.516L180.356 494.712C180.338 495.912 179.833 497.057 178.95 497.899C178.066 498.742 176.875 499.215 175.634 499.216Z" fill="#3F3D56"/>
<path d="M145.651 316.612C145.546 320.136 143.015 322.174 139.908 324.019C136.801 325.865 133.169 326.665 129.611 327.437C129.133 327.682 128.598 327.805 128.057 327.792C127.516 327.779 126.988 327.631 126.523 327.364C126.058 327.096 125.673 326.717 125.403 326.263C125.134 325.81 124.991 325.297 124.986 324.774L121.723 312.775C120.568 308.943 119.728 305.028 119.21 301.067C118.424 293.447 120.293 285.25 125.795 279.74C131.298 274.23 140.841 272.273 147.435 276.518C155.26 266.857 191.029 288.202 182.206 294.919C180.636 296.115 178.236 294.602 176.244 294.456C174.252 294.309 172.019 294.648 170.753 296.143C169.1 298.095 169.82 301.004 169.139 303.44C168.857 304.297 168.402 305.092 167.801 305.778C167.2 306.465 166.464 307.029 165.636 307.439C164.808 307.85 163.904 308.097 162.977 308.168C162.049 308.239 161.116 308.132 160.232 307.853C158.585 307.068 157.035 306.105 155.612 304.982C154.084 303.998 152.153 303.271 150.433 303.892C148.165 304.71 147.36 307.393 147.155 309.724C146.809 312.049 146.307 314.35 145.651 316.612Z" fill="#293241"/>
<path opacity="0.2" d="M151.673 383.413L155.873 433.138L177.92 484.893L145.374 434.153L151.673 383.413Z" fill="black"/>
<path d="M422.907 655.713L192.807 523.761C188.86 521.492 186.005 517.802 184.869 513.5C183.733 509.199 184.408 504.638 186.747 500.817L293.965 326.129C295.685 323.333 298.482 321.312 301.742 320.507C305.002 319.703 308.459 320.181 311.355 321.837L549.234 458.25C552.176 459.941 554.303 462.691 555.15 465.897C555.997 469.103 555.493 472.503 553.75 475.35L446.644 649.856C444.296 653.671 440.479 656.431 436.029 657.529C431.579 658.627 426.86 657.974 422.907 655.713Z" fill="#F2F2F2"/>
<path d="M216.092 517.645L417.299 633.028C421.131 635.225 425.708 635.861 430.025 634.796C434.341 633.731 438.043 631.052 440.317 627.348L522.569 493.336C524.842 489.632 525.5 485.208 524.398 481.035C523.296 476.863 520.524 473.284 516.693 471.087L315.486 355.704C311.654 353.507 307.077 352.871 302.76 353.936C298.444 355.002 294.741 357.681 292.468 361.384L210.216 495.396C207.943 499.1 207.285 503.524 208.387 507.697C209.489 511.869 212.261 515.448 216.092 517.645Z" fill="white"/>
<path d="M554.16 474.225L294.262 325.185L298.761 317.853C301.118 314.026 304.95 311.259 309.415 310.158C313.88 309.058 318.614 309.714 322.579 311.984L552.573 443.874C556.534 446.15 559.399 449.852 560.54 454.167C561.682 458.482 561.005 463.059 558.66 466.893L554.16 474.225Z" fill="#293241"/>
<path d="M328.105 334.249C330.588 334.249 332.602 332.303 332.602 329.902C332.602 327.501 330.588 325.555 328.105 325.555C325.621 325.555 323.608 327.501 323.608 329.902C323.608 332.303 325.621 334.249 328.105 334.249Z" fill="white"/>
<path d="M342.785 342.667C345.269 342.667 347.282 340.721 347.282 338.32C347.282 335.92 345.269 333.974 342.785 333.974C340.302 333.974 338.288 335.92 338.288 338.32C338.288 340.721 340.302 342.667 342.785 342.667Z" fill="white"/>
<path d="M357.466 351.086C359.949 351.086 361.963 349.14 361.963 346.739C361.963 344.338 359.949 342.392 357.466 342.392C354.982 342.392 352.969 344.338 352.969 346.739C352.969 349.14 354.982 351.086 357.466 351.086Z" fill="white"/>
<path d="M496.333 499.666L496.04 500.143L498.998 501.839L499.291 501.363L496.333 499.666Z" fill="#E6E6E6"/>
<path d="M490.064 496.716L484.088 493.289L484.381 492.812L490.357 496.239L490.064 496.716ZM478.112 489.862L472.136 486.435L472.428 485.958L478.404 489.385L478.112 489.862ZM466.16 483.008L460.184 479.581L460.476 479.104L466.452 482.531L466.16 483.008ZM454.208 476.154L448.232 472.727L448.524 472.25L454.5 475.677L454.208 476.154ZM442.255 469.3L436.279 465.873L436.572 465.396L442.548 468.823L442.255 469.3ZM430.303 462.446L424.327 459.019L424.62 458.542L430.596 461.969L430.303 462.446ZM418.351 455.592L412.375 452.165L412.668 451.688L418.644 455.115L418.351 455.592ZM406.399 448.738L400.423 445.311L400.715 444.834L406.692 448.261L406.399 448.738ZM394.447 441.884L388.471 438.457L388.763 437.98L394.739 441.407L394.447 441.884ZM382.495 435.03L376.519 431.603L376.811 431.126L382.787 434.553L382.495 435.03ZM370.543 428.176L364.566 424.749L364.859 424.272L370.835 427.699L370.543 428.176ZM358.59 421.322L352.614 417.895L352.907 417.418L358.883 420.845L358.59 421.322ZM346.638 414.468L340.662 411.041L340.955 410.564L346.931 413.991L346.638 414.468ZM334.686 407.614L328.71 404.187L329.002 403.71L334.979 407.137L334.686 407.614ZM322.734 400.76L316.758 397.333L317.05 396.856L323.026 400.283L322.734 400.76ZM310.782 393.906L304.806 390.479L305.098 390.002L311.074 393.429L310.782 393.906Z" fill="#E6E6E6"/>
<path d="M296.164 384.879L295.871 385.355L298.83 387.052L299.122 386.575L296.164 384.879Z" fill="#E6E6E6"/>
<path d="M372.004 488.289L371.712 488.766L374.67 490.462L374.962 489.985L372.004 488.289Z" fill="#E6E6E6"/>
<path d="M365.824 485.389L359.937 482.013L360.229 481.537L366.117 484.913L365.824 485.389ZM354.05 478.637L348.162 475.261L348.455 474.785L354.342 478.161L354.05 478.637ZM342.275 471.885L336.388 468.509L336.68 468.032L342.568 471.409L342.275 471.885ZM330.5 465.133L324.613 461.757L324.906 461.28L330.793 464.656L330.5 465.133ZM318.726 458.381L312.838 455.005L313.131 454.528L319.018 457.904L318.726 458.381ZM306.951 451.628L301.064 448.252L301.356 447.776L307.244 451.152L306.951 451.628ZM295.177 444.876L289.289 441.5L289.582 441.024L295.469 444.4L295.177 444.876ZM283.402 438.124L277.515 434.748L277.807 434.271L283.694 437.647L283.402 438.124Z" fill="#E6E6E6"/>
<path d="M268.962 429.199L268.669 429.676L271.627 431.372L271.92 430.895L268.962 429.199Z" fill="#E6E6E6"/>
<path d="M301.45 476.179L301.158 476.655L304.116 478.352L304.409 477.875L301.45 476.179Z" fill="#E6E6E6"/>
<path d="M295.101 473.182L289.044 469.708L289.336 469.232L295.393 472.705L295.101 473.182ZM282.986 466.235L276.929 462.761L277.222 462.285L283.279 465.758L282.986 466.235ZM270.872 459.288L264.815 455.814L265.107 455.338L271.164 458.811L270.872 459.288Z" fill="#E6E6E6"/>
<path d="M256.092 450.168L255.799 450.644L258.758 452.341L259.05 451.864L256.092 450.168Z" fill="#E6E6E6"/>
<path d="M279.488 511.962L279.195 512.439L282.153 514.135L282.446 513.659L279.488 511.962Z" fill="#E6E6E6"/>
<path d="M273.138 508.965L267.081 505.492L267.373 505.015L273.43 508.489L273.138 508.965ZM261.024 502.018L254.966 498.545L255.259 498.068L261.316 501.542L261.024 502.018ZM248.909 495.071L242.852 491.598L243.145 491.121L249.202 494.595L248.909 495.071Z" fill="#E6E6E6"/>
<path d="M234.129 485.951L233.837 486.428L236.795 488.124L237.087 487.648L234.129 485.951Z" fill="#E6E6E6"/>
<path d="M250.29 496.358L420.799 594.137C424.931 596.5 429.863 597.182 434.514 596.034C439.165 594.887 443.156 592.002 445.61 588.014L495.429 506.844L495.087 506.66L382.052 534.548L373.098 500.66C372.935 500.034 372.623 499.452 372.188 498.962C371.754 498.471 371.207 498.084 370.592 497.832C369.651 497.466 368.611 497.409 367.633 497.672L308.398 512.284L301.851 487.508C301.71 486.973 301.461 486.47 301.119 486.028C300.777 485.587 300.348 485.214 299.857 484.933C299.366 484.651 298.822 484.466 298.257 484.387C297.692 484.309 297.116 484.339 296.563 484.476C296.163 484.578 257.618 494.45 250.29 496.358Z" fill="#EE6C4D"/>
<path d="M249.271 496.417L249.129 495.88L296.53 484.183C297.783 483.876 299.11 484.061 300.221 484.698C301.332 485.335 302.136 486.372 302.457 487.582L308.872 511.871L367.778 497.336C369.03 497.028 370.357 497.213 371.468 497.851C372.579 498.488 373.383 499.525 373.704 500.735L382.526 534.135L496.149 506.098L496.29 506.635L382.112 534.809L373.149 500.872C373.009 500.343 372.763 499.846 372.425 499.409C372.086 498.972 371.662 498.604 371.177 498.325C370.691 498.047 370.154 497.864 369.595 497.786C369.036 497.708 368.467 497.738 367.92 497.873L308.458 512.545L301.901 487.719C301.618 486.652 300.909 485.737 299.928 485.175C298.948 484.612 297.777 484.449 296.672 484.72L249.271 496.417Z" fill="#3F3D56"/>
<path d="M304.262 481.992C306.478 481.992 308.275 480.255 308.275 478.113C308.275 475.971 306.478 474.234 304.262 474.234C302.046 474.234 300.249 475.971 300.249 478.113C300.249 480.255 302.046 481.992 304.262 481.992Z" fill="#3F3D56"/>
<path d="M374.816 494.103C377.032 494.103 378.829 492.366 378.829 490.224C378.829 488.082 377.032 486.345 374.816 486.345C372.6 486.345 370.803 488.082 370.803 490.224C370.803 492.366 372.6 494.103 374.816 494.103Z" fill="#3F3D56"/>
<path d="M497.734 503.444C499.95 503.444 501.747 501.707 501.747 499.565C501.747 497.423 499.95 495.686 497.734 495.686C495.518 495.686 493.721 497.423 493.721 499.565C493.721 501.707 495.518 503.444 497.734 503.444Z" fill="#3F3D56"/>
<path d="M183.076 504.167C181.872 503.233 180.895 502.055 180.213 500.716C179.532 499.378 179.162 497.911 179.13 496.42C179.099 494.928 179.405 493.448 180.029 492.084C180.653 490.719 181.579 489.503 182.742 488.522L168.696 454.896L187.806 458.626L198.215 489.986C199.79 491.984 200.554 494.47 200.359 496.975C200.165 499.48 199.027 501.828 197.161 503.576C195.295 505.324 192.83 506.35 190.234 506.459C187.638 506.567 185.091 505.752 183.076 504.167Z" fill="#FFB8B8"/>
<path d="M182.843 489.597C181.807 489.669 180.776 489.41 179.908 488.86C179.04 488.31 178.383 487.5 178.038 486.553L155.301 423.921L150.442 361.436C150.308 359.717 150.529 357.989 151.092 356.353C151.655 354.717 152.549 353.205 153.722 351.906C154.895 350.607 156.323 349.546 157.924 348.785C159.525 348.025 161.267 347.579 163.047 347.475C164.828 347.37 166.612 347.609 168.296 348.177C169.981 348.746 171.531 349.632 172.858 350.785C174.185 351.937 175.261 353.333 176.025 354.892C176.788 356.45 177.224 358.14 177.306 359.862L180.026 416.927L197.871 480.068C198.178 481.176 198.045 482.355 197.498 483.373C196.951 484.39 196.03 485.174 194.916 485.568L184.098 489.336C183.694 489.478 183.271 489.566 182.843 489.597Z" fill="#3F3D56"/>
<path d="M604.429 434.102C604.006 433.922 603.611 433.683 603.257 433.395L582.112 416.177C581.604 415.763 581.19 415.252 580.897 414.675C580.603 414.099 580.437 413.47 580.408 412.828C580.379 412.187 580.488 411.546 580.728 410.947C580.968 410.348 581.334 409.804 581.803 409.349L600.992 390.725C601.797 389.936 602.869 389.454 604.012 389.366C605.155 389.278 606.293 389.59 607.218 390.246L621.729 400.431C622.634 401.067 623.282 401.989 623.559 403.037C623.837 404.085 623.727 405.194 623.249 406.173L610.695 431.828C610.161 432.92 609.208 433.767 608.039 434.192C606.869 434.616 605.575 434.584 604.429 434.102Z" fill="#EE6C4D"/>
<path d="M686.904 677.616L674.275 680.938L655.011 635.433L673.65 630.531L686.904 677.616Z" fill="#FFB8B8"/>
<path d="M664.018 679.889L688.629 673.417L692.801 688.24L653.11 698.678L653.041 698.432C651.952 694.566 652.498 690.441 654.556 686.963C656.615 683.485 660.019 680.941 664.018 679.889Z" fill="#2F2E41"/>
<path d="M578.941 686.931L565.853 686.93L559.626 638.133L578.944 638.134L578.941 686.931Z" fill="#FFB8B8"/>
<path d="M556.241 683.315H581.746V698.677H540.612V698.423C540.612 694.416 542.258 690.573 545.189 687.74C548.12 684.907 552.096 683.315 556.241 683.315Z" fill="#2F2E41"/>
<path d="M598.657 364.749C613.138 364.749 624.878 353.402 624.878 339.405C624.878 325.407 613.138 314.06 598.657 314.06C584.176 314.06 572.437 325.407 572.437 339.405C572.437 353.402 584.176 364.749 598.657 364.749Z" fill="#FFB8B8"/>
<path d="M578.14 652.139H560.254C559.032 652.137 557.855 651.685 556.964 650.876C556.073 650.067 555.534 648.961 555.455 647.782C550.125 565.888 553.243 507.144 565.265 462.912C565.318 462.718 565.383 462.528 565.46 462.342L566.418 460.027C566.772 459.164 567.387 458.423 568.183 457.903C568.978 457.382 569.918 457.105 570.879 457.108H607.658C608.351 457.108 609.036 457.252 609.666 457.532C610.296 457.812 610.855 458.221 611.306 458.729L616.302 464.364C616.399 464.474 616.49 464.585 616.578 464.703C639.105 495.068 659.293 554.432 682.673 634.224C683.019 635.383 682.882 636.627 682.292 637.691C681.702 638.754 680.705 639.553 679.515 639.916L660.294 645.862C659.19 646.198 657.999 646.139 656.936 645.698C655.873 645.256 655.009 644.46 654.502 643.455L604.623 543.456C604.274 542.757 603.702 542.185 602.99 541.825C602.279 541.465 601.467 541.336 600.674 541.458C599.881 541.579 599.15 541.943 598.588 542.498C598.026 543.052 597.664 543.766 597.555 544.535L582.9 648.124C582.739 649.235 582.169 650.252 581.294 650.99C580.42 651.727 579.3 652.135 578.14 652.139Z" fill="#293241"/>
<path d="M614.285 464.776C614.235 464.776 614.185 464.775 614.134 464.774L569.459 463.41C568.31 463.379 567.211 462.95 566.363 462.201C565.515 461.452 564.973 460.433 564.837 459.33C559.174 415.018 574.706 403.147 581.647 400.101C582.227 399.848 582.729 399.455 583.106 398.959C583.482 398.463 583.72 397.881 583.795 397.27L584.396 392.626C584.498 391.806 584.826 391.027 585.345 390.37C596.227 376.744 611.087 372.381 618.976 370.993C619.616 370.882 620.272 370.898 620.906 371.039C621.539 371.181 622.136 371.446 622.66 371.817C623.185 372.189 623.625 372.659 623.956 373.2C624.286 373.742 624.499 374.342 624.582 374.965L625.482 381.635C625.573 382.271 625.836 382.872 626.243 383.38C648.939 412.059 623.655 454.403 618.356 462.6C617.923 463.266 617.322 463.814 616.611 464.195C615.899 464.575 615.099 464.775 614.285 464.776Z" fill="#EE6C4D"/>
<path d="M627.507 323.642C625.559 317.936 624.121 312.078 623.21 306.134C622.923 302.674 623.84 298.95 626.447 296.562C631.327 292.094 639.617 294.222 644.719 298.451C652.094 304.563 655.772 313.955 657.162 323.248C658.552 332.541 657.94 341.992 658.275 351.376C658.609 360.76 659.998 370.409 664.947 378.488C669.897 386.567 679.081 392.769 688.769 392.081C692.68 391.877 696.393 390.356 699.264 387.782C700.674 386.486 701.741 384.882 702.377 383.105C703.013 381.328 703.199 379.429 702.919 377.568C707.871 386.139 705.361 397.754 697.975 404.492C690.589 411.229 679.228 413.134 669.519 410.257C659.809 407.381 651.818 400.168 647.044 391.503C642.271 382.839 640.522 372.83 640.775 363.017C640.97 355.481 642.295 347.883 640.978 340.454C639.66 333.024 634.85 325.48 627.264 323.73L627.507 323.642Z" fill="#293241"/>
<path d="M593.441 333.41C592.148 337.586 587.201 340.162 582.751 339.455C580.535 339.01 578.486 337.993 576.82 336.513C575.155 335.033 573.934 333.144 573.289 331.048C572.066 326.8 572.567 322.262 574.688 318.359C575.857 316.02 577.492 313.926 579.499 312.198C581.506 310.47 583.846 309.142 586.385 308.289C588.938 307.471 591.657 307.258 594.313 307.669C596.969 308.079 599.484 309.1 601.646 310.646C601.876 309.708 602.361 308.846 603.051 308.149C603.74 307.452 604.609 306.946 605.568 306.681C607.5 306.178 609.539 306.207 611.454 306.765C616.974 308.286 621.757 311.649 624.953 316.257C628.108 320.851 630.195 326.051 631.07 331.5C632.576 339.671 632.021 348.6 627.273 355.516C622.525 362.431 612.812 366.515 604.932 363.218C604.441 360.79 605.605 358.345 606.951 356.241C608.298 354.137 609.894 352.087 610.411 349.664C610.929 347.241 609.937 344.278 607.512 343.485C605.444 342.809 603.238 343.904 601.059 344.037C599.821 344.112 598.585 343.871 597.474 343.339C596.363 342.806 595.417 342 594.73 341.003C594.042 340.005 593.639 338.85 593.559 337.654C593.48 336.458 593.727 335.263 594.276 334.188L593.441 333.41Z" fill="#293241"/>
<path d="M526.987 437.821C527.421 438.209 527.823 438.629 528.188 439.077L580.972 435.107L586.538 423.898L605.136 429.807L595.077 456.39L528.586 452.077C527.273 453.872 525.425 455.239 523.288 455.995C521.151 456.751 518.827 456.86 516.625 456.308C514.422 455.756 512.446 454.568 510.958 452.904C509.471 451.24 508.543 449.177 508.298 446.991C508.052 444.805 508.502 442.598 509.586 440.664C510.67 438.73 512.337 437.161 514.366 436.166C516.395 435.17 518.689 434.796 520.944 435.091C523.198 435.387 525.306 436.339 526.987 437.821Z" fill="#FFB8B8"/>
<path d="M604.85 447.513C604.404 447.391 603.98 447.207 603.589 446.967L580.213 432.696C579.652 432.353 579.169 431.901 578.797 431.368C578.425 430.836 578.172 430.235 578.053 429.603C577.933 428.971 577.951 428.322 578.105 427.697C578.258 427.072 578.544 426.485 578.945 425.972L595.328 404.994C596.015 404.107 597.009 403.488 598.129 403.25C599.249 403.012 600.42 403.172 601.429 403.699L617.24 411.878C618.227 412.389 618.998 413.217 619.421 414.219C619.844 415.221 619.892 416.334 619.556 417.366L610.737 444.436C610.361 445.587 609.537 446.553 608.438 447.127C607.339 447.701 606.052 447.84 604.85 447.513Z" fill="#EE6C4D"/>
</g>
</g>
<defs>
<clipPath id="clip0_1_210">
<rect width="800" height="700" fill="white"/>
</clipPath>
</defs>
</svg>
