<svg width="800" height="700" viewBox="0 0 800 700" fill="none" xmlns="http://www.w3.org/2000/svg">
<g clip-path="url(#clip0_1_74)">
<mask id="mask0_1_74" style="mask-type:luminance" maskUnits="userSpaceOnUse" x="0" y="0" width="800" height="700">
<path d="M800 0H0V700H800V0Z" fill="white"/>
</mask>
<g mask="url(#mask0_1_74)">
<path d="M659.168 341.91L692.939 301.309L665.3 277.207L651.647 310.569L589.7 333.186C587.613 331.859 585.221 331.232 582.816 331.382C580.412 331.532 578.099 332.452 576.159 334.029C574.22 335.607 572.737 337.774 571.893 340.266C571.048 342.759 570.878 345.469 571.404 348.067C571.929 350.664 573.126 353.037 574.851 354.895C576.575 356.753 578.751 358.017 581.113 358.532C583.476 359.047 585.923 358.791 588.157 357.795C590.39 356.8 592.313 355.107 593.692 352.925L659.168 341.91Z" fill="#FFB6B6"/>
<path d="M721.074 250.177C727.196 265.263 689.847 308.361 689.847 308.361C679.633 317.491 678.014 340.341 665.353 342.885C631.201 349.748 652.442 342.566 643.62 346.316C635.318 349.845 642.964 319.641 637.41 317.722C634.234 316.624 651.899 303.996 651.899 303.996C651.899 303.996 667.819 269.491 677.608 251.593C680.29 246.476 684.101 242.193 688.684 239.141C693.267 236.09 698.475 234.369 703.821 234.14C703.821 234.14 714.952 235.091 721.074 250.177Z" fill="#E6E6E6"/>
<path d="M562.957 698.644H174.902C165.704 698.633 156.886 694.59 150.383 687.402C143.879 680.214 140.221 670.469 140.21 660.304V38.3409C140.221 28.1758 143.879 18.4303 150.383 11.2425C156.886 4.05464 165.704 0.0114797 174.902 0H562.957C572.154 0.0114827 580.972 4.05464 587.476 11.2425C593.98 18.4303 597.638 28.1758 597.648 38.3409V660.304C597.638 670.469 593.979 680.214 587.476 687.402C580.972 694.59 572.154 698.633 562.957 698.644Z" fill="#293241"/>
<path d="M563.64 674.182H174.219C171.384 674.179 168.665 672.932 166.661 670.716C164.656 668.501 163.528 665.497 163.525 662.363V36.2814C163.528 33.1479 164.656 30.1437 166.661 27.928C168.665 25.7123 171.384 24.4659 174.219 24.4623H563.64C566.475 24.4659 569.193 25.7123 571.198 27.928C573.203 30.1437 574.33 33.1479 574.334 36.2814V662.363C574.33 665.497 573.203 668.501 571.198 670.716C569.193 672.932 566.475 674.179 563.64 674.182Z" fill="white"/>
<path d="M193.217 312.552C194.304 296.239 196.099 276.184 210.703 267.469C217.594 263.357 224.891 264.811 231.819 268.017C238.513 271.114 244.82 274.806 252.031 276.262C264.46 278.633 277.249 276.513 288.502 270.218C299.837 263.989 308.931 253.703 314.303 241.035C317.068 234.592 319.353 227.609 323.427 221.986C325.477 219.034 328.194 216.731 331.305 215.308C334.416 213.885 337.812 213.392 341.15 213.88C356.463 215.97 366.625 230.799 378.833 239.528C384.704 243.726 391.446 246.792 398.554 246.416C405.846 246.03 412.456 242.215 418.044 237.235C429.901 226.668 436.384 210.325 448.828 200.478C454.728 195.926 461.574 193.098 468.729 192.257C475.884 191.417 483.115 192.591 489.748 195.672C502.502 201.752 511.531 215.375 513.917 230.367C514.488 234.061 514.636 237.82 514.356 241.555C514.2 243.757 517.306 243.745 517.461 241.555C517.926 233.784 516.761 226.001 514.054 218.811C511.348 211.621 507.175 205.22 501.86 200.107C490.851 189.61 475.469 186.199 461.48 190.238C454.356 192.325 447.81 196.325 442.421 201.881C436.666 207.747 432.126 214.855 427.268 221.593C422.528 228.166 417.299 234.513 410.647 238.758C407.462 240.903 403.892 242.256 400.186 242.722C396.48 243.188 392.727 242.755 389.187 241.455C382.006 238.778 375.922 233.262 370.177 227.982C364.254 222.538 358.36 217.091 351.242 213.633C344.623 210.417 337.033 208.857 330.143 212.024C323.931 214.879 319.82 220.807 316.773 227.217C313.68 233.725 311.477 240.741 307.868 246.947C304.377 252.886 299.897 258.039 294.667 262.131C284.043 270.52 271.124 274.6 258.093 273.68C251.013 273.124 244.575 270.651 238.164 267.412C231.088 263.837 223.635 260.119 215.673 261.851C208.805 263.345 203.027 268.502 199.015 274.662C194.383 281.774 192.348 290.494 191.286 299.058C190.73 303.538 190.413 308.044 190.112 312.552C189.965 314.755 193.071 314.745 193.217 312.552Z" fill="#E4E4E4"/>
<path d="M742.031 682.116L727.288 682.115L720.274 619.269L742.033 619.27L742.031 682.116Z" fill="#FFB6B6"/>
<path d="M741.638 676.791L725.907 669.729L725.443 669.518L716.757 676.791C711.99 676.79 707.407 678.823 703.965 682.467C700.522 686.11 698.484 691.082 698.278 696.345C698.254 696.635 698.254 696.937 698.254 697.24V697.91H745.79V676.791H741.638Z" fill="#2F2E41"/>
<path d="M707.505 666.952L693.598 672.36L668.109 615.65L688.633 607.67L707.505 666.952Z" fill="#FFB6B6"/>
<path d="M705.536 662.074L688.576 661.183L688.075 661.154L682.066 671.201C677.569 672.949 673.857 676.548 671.703 681.248C669.549 685.947 669.121 691.385 670.507 696.425C670.571 696.707 670.662 696.992 670.753 697.278L670.954 697.91L715.796 680.473L709.453 660.551L705.536 662.074Z" fill="#2F2E41"/>
<path d="M747.24 411.14C760.727 410.562 744.02 529.349 744.02 529.349C744.02 529.349 748.907 633.639 747.871 639.112C746.835 644.585 747.741 659.346 747.741 659.346C745.098 654.03 717.836 658.042 717.836 658.042L714.128 552.344L695.192 467.656L668.941 524.424L694.102 611.559C694.102 611.559 704.291 621.98 703.208 626.097C702.124 630.215 675.435 639.502 670.53 639.712C665.626 639.922 667.84 633.042 667.602 626.266C667.365 619.491 644.286 556.694 636.168 535.328C628.051 513.962 634.362 483.834 638.505 461.942C642.649 440.051 664.449 398.967 664.449 398.967C691.509 365.236 733.753 411.718 747.24 411.14Z" fill="#293241"/>
<path d="M709.497 213.782C723.704 213.782 735.221 201.053 735.221 185.352C735.221 169.65 723.704 156.921 709.497 156.921C695.289 156.921 683.772 169.65 683.772 185.352C683.772 201.053 695.289 213.782 709.497 213.782Z" fill="#FFB6B6"/>
<path d="M696.634 232.573C691.092 236.214 687.777 242.905 685.874 249.713C682.351 262.317 680.23 275.349 679.558 288.52L672.238 367.104L658.109 405.794C688.324 402.895 755.328 416.501 755.328 416.501C755.328 416.501 757.818 415.584 755.328 412.833C752.839 410.082 750.415 412.519 752.905 409.768C755.394 407.016 753.678 410.082 752.848 407.33C752.018 404.579 752.848 406.413 753.678 405.496C754.508 404.579 747.254 396.325 747.254 396.325L753.893 348.129L762.191 250.915C752.233 237.158 732.206 229.049 732.206 229.049L727.031 218.755L701.158 221.042L696.634 232.573Z" fill="#E6E6E6"/>
<path d="M771.937 341.259L765.553 299.671L743.338 304.12L745.289 340.497L735.566 416.217C733.301 417.122 731.323 418.736 729.874 420.862C728.425 422.988 727.568 425.534 727.405 428.19C727.243 430.845 727.783 433.495 728.96 435.817C730.137 438.139 731.9 440.033 734.033 441.267C736.167 442.501 738.58 443.022 740.977 442.767C743.374 442.511 745.652 441.491 747.534 439.829C749.415 438.168 750.818 435.937 751.573 433.41C752.327 430.882 752.399 428.166 751.781 425.594L771.937 341.259Z" fill="#FFB6B6"/>
<path d="M753.584 243.944C767.96 248.519 773.623 307.866 773.623 307.866C780.135 336.508 767.811 348.569 764.684 348.443C755.795 348.085 750.871 339.677 745.958 343.124C743.149 345.096 742.624 322.439 742.624 322.439C742.624 322.439 732.543 301.358 726.497 281.541C724.694 275.973 724.195 269.992 725.046 264.154C725.897 258.315 728.07 252.81 731.364 248.15C731.364 248.15 739.208 239.37 753.584 243.944Z" fill="#E6E6E6"/>
<path d="M738.933 176.663C738.849 172.045 738.375 166.136 735.448 161.425C732.978 157.461 727.996 154.319 723.351 155.89C723.404 154.864 723.197 153.842 722.755 152.937C722.313 152.033 721.653 151.281 720.848 150.767C719.067 149.76 717.103 149.214 715.104 149.168C710.392 148.682 705.511 148.177 700.74 149.178C695.386 150.299 691.004 153.347 688.729 157.545L688.678 157.676L688.213 160.162C688.151 160.496 688.024 160.811 687.841 161.085C687.659 161.359 687.425 161.587 687.155 161.752C686.885 161.919 686.586 162.018 686.277 162.043C685.968 162.067 685.659 162.015 685.37 161.892C685.055 161.761 684.713 161.724 684.381 161.783C684.048 161.843 683.735 161.997 683.472 162.231C683.21 162.465 683.008 162.771 682.885 163.118C682.763 163.465 682.724 163.842 682.773 164.211L682.9 165.202L681.555 164.921C681.218 164.849 680.869 164.877 680.545 165.004C680.22 165.131 679.932 165.351 679.711 165.641C679.489 165.932 679.342 166.283 679.284 166.657C679.226 167.032 679.26 167.417 679.381 167.772L679.754 168.904C679.476 168.908 679.201 168.974 678.947 169.097C678.693 169.221 678.464 169.4 678.273 169.624C678.002 169.95 677.831 170.362 677.785 170.803C677.739 171.243 677.822 171.688 678.019 172.073C679.527 174.917 681.663 177.291 684.228 178.972C685.382 179.74 686.626 180.329 687.925 180.721C688.196 180.805 688.475 180.88 688.762 180.945C699.148 183.419 709.856 183.774 720.357 181.992C719.739 184.282 719.501 186.676 719.655 189.06C719.746 190.412 720.17 191.71 720.881 192.814C721.593 193.918 722.564 194.786 723.69 195.324C724.169 195.503 724.662 195.634 725.162 195.716C725.641 195.802 726.114 195.93 726.574 196.1C727.255 196.375 727.857 196.844 728.321 197.459C728.785 198.075 729.093 198.815 729.215 199.604C729.337 200.393 729.268 201.204 729.015 201.955C728.762 202.705 728.335 203.369 727.776 203.878C727.776 203.878 729.992 205.906 730.271 205.804C731.36 205.272 732.272 204.376 732.877 203.242C737.097 196.529 739.136 187.592 738.933 176.663Z" fill="#293241"/>
<path d="M64.9911 605.477L61.9691 622.233C61.7414 623.514 61.5034 624.818 61.2447 626.111C58.7189 625.532 56.1 625.694 53.6483 626.58C55.5934 629.652 57.3366 632.874 58.8643 636.222C56.96 642.707 54.1657 648.7 49.4879 653.035C46.3636 655.866 42.632 657.76 38.653 658.533C34.674 659.306 30.5819 658.933 26.7712 657.45L26.9057 656.787C21.876 646.001 24.6082 632.401 30.8591 622.439C34.0474 617.524 37.8249 613.111 42.0881 609.32C46.3106 605.431 50.8747 601.942 55.3973 598.499C56.4131 597.727 57.6141 597.308 58.8468 597.294C60.0795 597.28 61.288 597.672 62.3178 598.421C63.3476 599.17 64.152 600.242 64.6282 601.498C65.1044 602.755 65.2307 604.14 64.9911 605.477Z" fill="#EE6C4D"/>
<path d="M27.8474 697.769C26.5755 687.528 25.2673 677.158 26.1594 666.808C26.9522 657.616 29.4888 648.638 34.6552 641.277C37.3972 637.377 40.7338 634.035 44.5149 631.403C45.5012 630.716 46.4078 632.442 45.4267 633.126C38.8846 637.696 33.8246 644.443 30.976 652.396C27.8298 661.24 27.3248 670.881 27.8712 680.275C28.1993 685.956 28.8937 691.598 29.5944 697.237C29.6508 697.492 29.6168 697.761 29.4995 697.99C29.3821 698.218 29.1902 698.388 28.9631 698.465C28.732 698.534 28.4856 698.5 28.2775 698.369C28.0694 698.238 27.9163 698.022 27.8515 697.768L27.8474 697.769Z" fill="#EE6C4D"/>
<path d="M367.454 15.0036C369.083 15.0036 370.405 13.5433 370.405 11.7419C370.405 9.94058 369.083 8.48029 367.454 8.48029C365.824 8.48029 364.502 9.94058 364.502 11.7419C364.502 13.5433 365.824 15.0036 367.454 15.0036Z" fill="white"/>
<path d="M540 313.669H189.944C189.653 313.669 189.374 313.542 189.169 313.315C188.964 313.087 188.848 312.78 188.848 312.458L189.38 311.111L540 311.248C540.29 311.246 540.57 311.373 540.776 311.599C540.982 311.825 541.098 312.133 541.099 312.454C541.101 312.775 540.986 313.083 540.782 313.311C540.577 313.539 540.299 313.668 540.008 313.669H540Z" fill="#3F3D56"/>
<path d="M256.53 305.199H254.382V311.965H256.53V305.199Z" fill="#3F3D56"/>
<path d="M320.858 266.31H318.709V311.965H320.858V266.31Z" fill="#3F3D56"/>
<path d="M385.317 211.408H383.169V311.965H385.317V211.408Z" fill="#3F3D56"/>
<path d="M449.777 164.513H447.629V311.965H449.777V164.513Z" fill="#3F3D56"/>
<path d="M514.237 272.029H512.089V311.965H514.237V272.029Z" fill="#3F3D56"/>
<path d="M448.835 156.294C452.466 156.294 455.409 153.042 455.409 149.029C455.409 145.017 452.466 141.765 448.835 141.765C445.205 141.765 442.262 145.017 442.262 149.029C442.262 153.042 445.205 156.294 448.835 156.294Z" fill="#EE6C4D"/>
<path d="M385.411 198.907C389.041 198.907 391.984 195.655 391.984 191.643C391.984 187.631 389.041 184.378 385.411 184.378C381.78 184.378 378.837 187.631 378.837 191.643C378.837 195.655 381.78 198.907 385.411 198.907Z" fill="#EE6C4D"/>
<path d="M513.295 265.912C516.926 265.912 519.868 262.66 519.868 258.648C519.868 254.636 516.926 251.383 513.295 251.383C509.665 251.383 506.722 254.636 506.722 258.648C506.722 262.66 509.665 265.912 513.295 265.912Z" fill="#EE6C4D"/>
<path d="M318.067 565.616V479.902C318.067 478.802 319.224 477.911 320.651 477.911H332.182C333.61 477.911 334.767 478.802 334.767 479.902V565.839L318.067 565.616Z" fill="#EE6C4D"/>
<path d="M356.153 565.904V500.412C356.153 499.356 357.31 498.5 358.737 498.5H370.269C371.696 498.5 372.853 499.356 372.853 500.412V565.763L356.153 565.904Z" fill="#3F3D56"/>
<path d="M432.325 565.752V532.443C432.224 532.045 433.377 531.7 434.909 531.669H446.441C447.973 531.7 449.126 532.045 449.025 532.443V565.839L432.325 565.752Z" fill="#3F3D56"/>
<path d="M279.981 565.753V532.443C279.981 532.016 281.138 531.669 282.565 531.669H294.096C295.523 531.669 296.68 532.016 296.68 532.443V565.839L279.981 565.753Z" fill="#3F3D56"/>
<path d="M394.239 565.42V404.573C394.239 402.51 395.396 400.838 396.823 400.838H408.354C409.781 400.838 410.938 402.51 410.938 404.573V565.839L394.239 565.42Z" fill="#EE6C4D"/>
<path d="M498.722 567.32H237.92C237.645 567.32 237.382 567.2 237.188 566.985C236.994 566.771 236.885 566.48 236.885 566.176C236.885 565.873 236.994 565.582 237.188 565.368C237.382 565.153 237.645 565.033 237.92 565.033H498.722C498.996 565.033 499.259 565.153 499.453 565.368C499.648 565.582 499.757 565.873 499.757 566.176C499.757 566.48 499.648 566.771 499.453 566.985C499.259 567.2 498.996 567.32 498.722 567.32Z" fill="#3F3D56"/>
<path d="M798.965 700H1.03493C0.760449 700 0.49721 699.879 0.303123 699.665C0.109036 699.45 0 699.16 0 698.856C0 698.553 0.109036 698.262 0.303123 698.047C0.49721 697.833 0.760449 697.712 1.03493 697.712H798.965C799.24 697.712 799.503 697.833 799.697 698.047C799.891 698.262 800 698.553 800 698.856C800 699.16 799.891 699.45 799.697 699.665C799.503 699.879 799.24 700 798.965 700Z" fill="#CACACA"/>
<path d="M255.75 297.677C259.38 297.677 262.323 294.425 262.323 290.412C262.323 286.4 259.38 283.148 255.75 283.148C252.12 283.148 249.177 286.4 249.177 290.412C249.177 294.425 252.12 297.677 255.75 297.677Z" fill="#EE6C4D"/>
<path d="M319.916 257.644C323.546 257.644 326.489 254.392 326.489 250.38C326.489 246.368 323.546 243.115 319.916 243.115C316.286 243.115 313.343 246.368 313.343 250.38C313.343 254.392 316.286 257.644 319.916 257.644Z" fill="#EE6C4D"/>
</g>
</g>
<defs>
<clipPath id="clip0_1_74">
<rect width="800" height="700" fill="white"/>
</clipPath>
</defs>
</svg>
