<svg width="800" height="700" viewBox="0 0 800 700" fill="none" xmlns="http://www.w3.org/2000/svg">
<g clip-path="url(#clip0_1_2)">
<mask id="mask0_1_2" style="mask-type:luminance" maskUnits="userSpaceOnUse" x="0" y="0" width="800" height="700">
<path d="M800 0H0V700H800V0Z" fill="white"/>
</mask>
<g mask="url(#mask0_1_2)">
<path d="M53.6838 700L52.7071 697.762C65.8021 688.988 82.0995 678.068 90.6118 660.148C99.003 642.482 99.1912 618.493 91.1031 597.543C84.22 579.713 71.576 563.739 54.5384 551.347C51.1777 548.902 47.6499 546.586 44.2382 544.345C35.9916 538.931 27.4643 533.331 20.433 525.386C10.7488 514.444 3.42145 496.082 8.88277 479.727C10.6789 474.506 13.6204 470.015 17.3733 466.761C21.1262 463.508 25.5402 461.624 30.114 461.322L30.2298 463.863C26.0397 464.138 21.9957 465.863 18.5568 468.842C15.118 471.821 12.4219 475.935 10.7746 480.716C5.69965 495.915 12.6625 513.163 21.8168 523.507C28.6558 531.234 37.0663 536.756 45.1999 542.097C48.6309 544.35 52.179 546.68 55.5782 549.153C72.9703 561.802 85.8953 578.155 92.9556 596.445C101.335 618.149 101.115 643.053 92.3816 661.438C83.5792 679.969 67.0031 691.076 53.6838 700Z" fill="#F1F1F1"/>
<path d="M43.1293 474.732C53.0531 474.732 61.0979 469.891 61.0979 463.919C61.0979 457.947 53.0531 453.105 43.1293 453.105C33.2055 453.105 25.1606 457.947 25.1606 463.919C25.1606 469.891 33.2055 474.732 43.1293 474.732Z" fill="#EE6C4D"/>
<path d="M57.5042 545.974C67.428 545.974 75.4728 541.132 75.4728 535.16C75.4728 529.188 67.428 524.347 57.5042 524.347C47.5804 524.347 39.5355 529.188 39.5355 535.16C39.5355 541.132 47.5804 545.974 57.5042 545.974Z" fill="#EE6C4D"/>
<path d="M24.6472 557.423C34.571 557.423 42.6159 552.582 42.6159 546.61C42.6159 540.638 34.571 535.796 24.6472 535.796C14.7234 535.796 6.67859 540.638 6.67859 546.61C6.67859 552.582 14.7234 557.423 24.6472 557.423Z" fill="#EE6C4D"/>
<path d="M75.9862 617.215C85.91 617.215 93.9549 612.374 93.9549 606.402C93.9549 600.43 85.91 595.588 75.9862 595.588C66.0624 595.588 58.0176 600.43 58.0176 606.402C58.0176 612.374 66.0624 617.215 75.9862 617.215Z" fill="#EE6C4D"/>
<path d="M111.923 617.215C121.847 617.215 129.892 612.374 129.892 606.402C129.892 600.43 121.847 595.588 111.923 595.588C102 595.588 93.9548 600.43 93.9548 606.402C93.9548 612.374 102 617.215 111.923 617.215Z" fill="#EE6C4D"/>
<path d="M773.854 590.287H481.393C474.461 590.277 467.816 586.861 462.914 580.788C458.012 574.715 455.255 566.481 455.247 557.893V32.3944C455.255 23.8058 458.012 15.5718 462.914 9.49881C467.816 3.42579 474.461 0.00969397 481.393 0H773.854C780.786 0.00969733 787.432 3.42579 792.333 9.49881C797.235 15.5718 799.992 23.8058 800 32.3944V557.893C799.992 566.481 797.235 574.715 792.333 580.788C787.432 586.861 780.786 590.277 773.854 590.287Z" fill="#293241"/>
<path d="M774.369 569.619H480.878C478.742 569.616 476.693 568.563 475.182 566.691C473.671 564.819 472.821 562.28 472.819 559.633V30.6542C472.821 28.0067 473.671 25.4685 475.182 23.5964C476.693 21.7244 478.742 20.6713 480.878 20.6683H774.369C776.506 20.6713 778.554 21.7244 780.065 23.5964C781.576 25.4685 782.426 28.0067 782.429 30.6542V559.633C782.426 562.28 781.576 564.819 780.065 566.691C778.554 568.563 776.506 569.616 774.369 569.619Z" fill="white"/>
<path d="M626.512 12.6766C627.74 12.6766 628.736 11.4428 628.736 9.92082C628.736 8.39885 627.74 7.16504 626.512 7.16504C625.283 7.16504 624.287 8.39885 624.287 9.92082C624.287 11.4428 625.283 12.6766 626.512 12.6766Z" fill="white"/>
<path d="M745.92 368.993H509.328C509.131 368.993 508.943 368.896 508.804 368.724C508.665 368.552 508.587 368.319 508.587 368.075V227.575C508.587 227.332 508.665 227.099 508.804 226.927C508.943 226.755 509.131 226.658 509.328 226.658C509.524 226.658 509.712 226.755 509.851 226.927C509.99 227.099 510.068 227.332 510.068 227.575V367.158H745.92C746.116 367.159 746.303 367.256 746.442 367.428C746.58 367.6 746.658 367.833 746.658 368.075C746.658 368.318 746.58 368.551 746.442 368.723C746.303 368.895 746.116 368.992 745.92 368.993Z" fill="#3F3D56"/>
<path d="M559.877 358.902H538.358C537.775 358.901 537.217 358.614 536.805 358.103C536.393 357.593 536.161 356.9 536.16 356.178V319.425C536.161 318.703 536.393 318.011 536.805 317.5C537.217 316.99 537.775 316.703 538.358 316.702H559.877C560.46 316.703 561.018 316.99 561.431 317.5C561.843 318.011 562.074 318.703 562.075 319.425V356.178C562.074 356.9 561.843 357.593 561.431 358.103C561.018 358.614 560.46 358.901 559.877 358.902Z" fill="#EE6C4D"/>
<path d="M599.12 358.902H577.601C577.018 358.901 576.459 358.614 576.047 358.103C575.635 357.593 575.403 356.9 575.403 356.179V284.565C575.403 283.843 575.635 283.15 576.047 282.64C576.459 282.129 577.018 281.842 577.601 281.842H599.12C599.702 281.842 600.261 282.129 600.673 282.64C601.085 283.15 601.317 283.843 601.317 284.565V356.179C601.317 356.9 601.085 357.593 600.673 358.103C600.261 358.614 599.702 358.901 599.12 358.902Z" fill="#EE6C4D"/>
<path d="M638.362 358.902H616.843C616.261 358.901 615.702 358.614 615.29 358.103C614.878 357.593 614.646 356.9 614.645 356.178V319.425C614.646 318.703 614.878 318.011 615.29 317.5C615.702 316.99 616.261 316.703 616.843 316.702H638.362C638.945 316.703 639.504 316.99 639.916 317.5C640.328 318.011 640.559 318.703 640.56 319.425V356.178C640.559 356.9 640.328 357.593 639.916 358.103C639.504 358.614 638.945 358.901 638.362 358.902Z" fill="#EE6C4D"/>
<path d="M677.605 358.902H656.086C655.516 358.917 654.965 358.652 654.553 358.164C654.141 357.677 653.902 357.007 653.888 356.302V270.68C653.902 269.975 654.141 269.305 654.553 268.818C654.965 268.331 655.516 268.066 656.086 268.081H677.605C678.174 268.066 678.725 268.331 679.137 268.818C679.549 269.305 679.789 269.975 679.803 270.68V356.302C679.789 357.007 679.549 357.677 679.137 358.164C678.725 358.652 678.174 358.917 677.605 358.902Z" fill="#EE6C4D"/>
<path d="M716.847 358.901H695.328C694.746 358.901 694.187 358.614 693.775 358.103C693.363 357.593 693.131 356.9 693.13 356.178V246.035C693.131 245.313 693.363 244.62 693.775 244.11C694.187 243.599 694.746 243.312 695.328 243.312H716.847C717.43 243.312 717.989 243.599 718.401 244.11C718.813 244.62 719.045 245.313 719.045 246.035V356.178C719.045 356.9 718.813 357.593 718.401 358.103C717.989 358.614 717.43 358.901 716.847 358.901Z" fill="#EE6C4D"/>
<path d="M549.118 305.693C551.571 305.693 553.56 303.229 553.56 300.189C553.56 297.149 551.571 294.685 549.118 294.685C546.664 294.685 544.675 297.149 544.675 300.189C544.675 303.229 546.664 305.693 549.118 305.693Z" fill="#3F3D56"/>
<path d="M588.36 269.916C590.814 269.916 592.803 267.451 592.803 264.411C592.803 261.371 590.814 258.907 588.36 258.907C585.907 258.907 583.917 261.371 583.917 264.411C583.917 267.451 585.907 269.916 588.36 269.916Z" fill="#3F3D56"/>
<path d="M627.603 305.693C630.056 305.693 632.045 303.229 632.045 300.189C632.045 297.149 630.056 294.685 627.603 294.685C625.149 294.685 623.16 297.149 623.16 300.189C623.16 303.229 625.149 305.693 627.603 305.693Z" fill="#3F3D56"/>
<path d="M666.845 252.485C669.299 252.485 671.288 250.021 671.288 246.981C671.288 243.941 669.299 241.477 666.845 241.477C664.392 241.477 662.403 243.941 662.403 246.981C662.403 250.021 664.392 252.485 666.845 252.485Z" fill="#3F3D56"/>
<path d="M706.088 232.303C708.541 232.303 710.53 229.839 710.53 226.799C710.53 223.759 708.541 221.294 706.088 221.294C703.634 221.294 701.645 223.759 701.645 226.799C701.645 229.839 703.634 232.303 706.088 232.303Z" fill="#3F3D56"/>
<path d="M627.696 301.422L588.36 264.918L549.561 300.923L548.673 299.455L588.36 262.624L627.509 298.956L666.412 246.208L666.569 246.129L705.811 226.539L706.365 228.241L667.278 247.754L627.696 301.422Z" fill="#3F3D56"/>
<path d="M281.982 285.584C280.481 285.582 278.997 285.99 277.637 286.778C276.277 287.566 275.073 288.714 274.111 290.143L228.102 288.361L226.301 278.75L202.49 293.146L205.571 319.467L275.69 308.343C276.98 309.585 278.491 310.427 280.097 310.8C281.703 311.173 283.357 311.065 284.923 310.486C286.488 309.907 287.92 308.873 289.098 307.47C290.276 306.068 291.167 304.337 291.696 302.422C292.226 300.507 292.379 298.463 292.142 296.46C291.906 294.457 291.287 292.552 290.337 290.906C289.386 289.259 288.133 287.917 286.68 286.991C285.227 286.065 283.616 285.583 281.982 285.584Z" fill="#9F616A"/>
<path d="M196.759 683.264H209.347L215.336 623.105L196.757 623.107L196.759 683.264Z" fill="#9F616A"/>
<path d="M193.548 678.172L218.339 678.171C222.529 678.171 226.548 680.233 229.511 683.904C232.473 687.575 234.138 692.553 234.138 697.745V698.381L193.549 698.382L193.548 678.172Z" fill="#2F2E41"/>
<path d="M149.26 670.861L161.353 675.192L180.587 619.458L162.738 613.068L149.26 670.861Z" fill="#9F616A"/>
<path d="M147.316 664.865L171.132 673.392C175.157 674.833 178.556 678.197 180.58 682.743C182.604 687.288 183.087 692.644 181.924 697.631L181.782 698.242L142.788 684.281L147.316 664.865Z" fill="#2F2E41"/>
<path d="M181.3 422.04C181.3 422.04 176.823 437.518 183.886 458.635L189.337 545.611L190.95 669.307H213.899L227.787 543.206L236.128 428.866L181.3 422.04Z" fill="#293241"/>
<path d="M168.393 422.04C168.393 422.04 163.915 437.518 170.979 458.635L176.429 545.611L149.292 663.418H172.241L214.879 543.207L223.22 428.866L168.393 422.04Z" fill="#293241"/>
<path d="M235.715 222.551C249.643 222.551 260.934 208.561 260.934 191.305C260.934 174.048 249.643 160.059 235.715 160.059C221.787 160.059 210.496 174.048 210.496 191.305C210.496 208.561 221.787 222.551 235.715 222.551Z" fill="#9F616A"/>
<path d="M239.088 267.31L233.977 237.889L207.954 219.583L202.677 228.736C202.677 228.736 165.442 240.859 169.945 293.835C174.448 346.811 172.395 372.255 172.395 372.255L162.127 430.775C162.127 430.775 165.288 431.447 237.831 447.149L240.911 319.932L239.088 267.31Z" fill="#CBCBCB"/>
<path opacity="0.1" d="M213.843 553.61L190.212 612.752V629.705L213.843 553.61Z" fill="black"/>
<path d="M208.524 201.188C210.928 209.166 220.027 210.272 223.236 202.741C223.486 202.156 223.689 201.543 223.843 200.91C224.722 197.293 224.169 193.308 225.793 189.849C226.188 188.983 226.755 188.258 227.441 187.74C232.837 183.796 238.15 196.31 243.168 192.809C246.246 190.662 245.588 184.427 248.326 181.664C251.94 178.017 257.161 183.449 261.795 182.829C266.951 182.139 269.391 174.046 268.27 167.772C266.903 160.121 262.072 153.911 256.403 150.437C250.734 146.962 244.292 145.913 237.97 145.719C230.786 145.497 223.268 146.442 217.194 151.2C209.807 156.985 205.645 167.756 204.724 178.523C204.163 185.073 206.56 194.673 208.524 201.188Z" fill="#293241"/>
<path d="M332.102 415.659C332.139 415.659 332.176 415.658 332.213 415.656C351.213 414.424 369.122 404.273 382.296 387.265C395.471 370.258 402.922 347.672 403.136 324.1C403.349 300.528 396.308 277.741 383.444 260.372C370.581 243.003 352.861 232.356 333.888 230.597C333.653 230.574 333.417 230.612 333.195 230.707C332.972 230.803 332.768 230.954 332.595 231.152C332.423 231.347 332.285 231.583 332.19 231.847C332.095 232.111 332.045 232.396 332.043 232.685L330.407 413.517C330.403 414.08 330.579 414.621 330.897 415.022C331.215 415.424 331.648 415.653 332.102 415.659Z" fill="#EE6C4D"/>
<path d="M273.41 260.499C273.993 260.508 274.549 260.802 274.957 261.318L325.202 324.982C325.404 325.237 325.564 325.539 325.671 325.87C325.778 326.202 325.832 326.556 325.828 326.914L325.045 413.443C325.042 413.814 324.978 414.181 324.856 414.52C324.734 414.859 324.556 415.163 324.335 415.413C324.113 415.666 323.851 415.86 323.566 415.983C323.281 416.105 322.978 416.154 322.677 416.126C308.707 414.831 295.305 408.734 283.978 398.521C272.65 388.308 263.846 374.384 258.554 358.313C253.262 342.241 251.692 324.66 254.021 307.544C256.349 290.428 262.484 274.456 271.736 261.423C271.936 261.142 272.181 260.915 272.455 260.756C272.729 260.597 273.026 260.51 273.329 260.5C273.356 260.499 273.383 260.499 273.41 260.499Z" fill="#E6E6E6"/>
<path d="M324.502 229.858C325.063 229.866 325.601 230.138 326.006 230.619C326.223 230.875 326.395 231.185 326.511 231.527C326.628 231.87 326.685 232.239 326.681 232.611L325.974 310.683C325.969 311.22 325.836 311.744 325.591 312.188C325.346 312.631 325 312.975 324.597 313.175C324.195 313.375 323.753 313.423 323.328 313.312C322.904 313.202 322.515 312.937 322.212 312.553L278.367 256.998C278.165 256.742 278.006 256.439 277.899 256.107C277.791 255.775 277.738 255.42 277.741 255.062C277.745 254.704 277.805 254.351 277.919 254.022C278.032 253.693 278.197 253.395 278.404 253.145C278.43 253.113 278.457 253.082 278.485 253.052C291.237 239.145 307.402 230.974 324.366 229.861C324.411 229.858 324.457 229.857 324.502 229.858Z" fill="#293241"/>
<path d="M256.313 321.204C254.811 321.203 253.328 321.611 251.968 322.399C250.608 323.186 249.404 324.335 248.442 325.763L202.432 323.981L200.631 314.371L176.821 328.767L179.901 355.087L250.02 343.964C251.31 345.206 252.821 346.048 254.427 346.421C256.033 346.793 257.688 346.686 259.253 346.106C260.819 345.527 262.25 344.493 263.428 343.091C264.606 341.688 265.497 339.958 266.027 338.043C266.556 336.127 266.709 334.083 266.473 332.08C266.236 330.077 265.617 328.173 264.667 326.526C263.717 324.88 262.463 323.537 261.01 322.612C259.557 321.686 257.947 321.204 256.313 321.204Z" fill="#9F616A"/>
<path d="M172.942 339.607L171.663 261.2C171.618 258.456 172.012 255.729 172.824 253.175C173.635 250.621 174.847 248.292 176.389 246.322C177.931 244.353 179.774 242.781 181.809 241.699C183.845 240.617 186.033 240.045 188.248 240.018C190.463 239.99 192.66 240.506 194.713 241.537C196.766 242.568 198.633 244.093 200.207 246.024C201.782 247.955 203.031 250.253 203.884 252.786C204.737 255.319 205.176 258.036 205.176 260.78V318.082L172.942 339.607Z" fill="#CBCBCB"/>
<path d="M392.23 699.694H1.02678C0.754461 699.694 0.493295 699.56 0.300736 699.321C0.108177 699.083 0 698.759 0 698.422C0 698.084 0.108177 697.761 0.300736 697.522C0.493295 697.283 0.754461 697.149 1.02678 697.149H392.23C392.502 697.149 392.763 697.283 392.956 697.522C393.148 697.761 393.257 698.084 393.257 698.422C393.257 698.759 393.148 699.083 392.956 699.321C392.763 699.56 392.502 699.694 392.23 699.694Z" fill="#CBCBCB"/>
</g>
</g>
<defs>
<clipPath id="clip0_1_2">
<rect width="800" height="700" fill="white"/>
</clipPath>
</defs>
</svg>
