<svg width="800" height="700" viewBox="0 0 800 700" fill="none" xmlns="http://www.w3.org/2000/svg">
<g clip-path="url(#clip0_1_45)">
<mask id="mask0_1_45" style="mask-type:luminance" maskUnits="userSpaceOnUse" x="0" y="0" width="800" height="700">
<path d="M800 0H0V700H800V0Z" fill="white"/>
</mask>
<g mask="url(#mask0_1_45)">
<path d="M736.506 686.519L724.562 686.518L718.88 638.392H736.508L736.506 686.519Z" fill="#9E616A"/>
<path d="M739.552 698.614L701.04 698.612V698.103C701.041 693.95 702.62 689.968 705.431 687.031C708.242 684.095 712.055 682.445 716.03 682.444L739.553 682.445L739.552 698.614Z" fill="#2F2E41"/>
<path d="M690.718 686.519L678.774 686.518L673.092 638.392H690.719L690.718 686.519Z" fill="#9E616A"/>
<path d="M693.764 698.614L655.252 698.612V698.103C655.252 693.95 656.832 689.968 659.643 687.031C662.454 684.095 666.266 682.445 670.242 682.444L693.764 682.445V698.614Z" fill="#2F2E41"/>
<path d="M174.709 696.752V310.207C174.709 307.826 175.614 305.543 177.226 303.859C178.837 302.176 181.023 301.23 183.302 301.23H221.647C223.926 301.23 226.112 302.176 227.723 303.859C229.335 305.543 230.24 307.826 230.24 310.207V697.76L174.709 696.752Z" fill="#EE6C4D"/>
<path d="M301.358 697.964V390.608C301.358 388.227 302.263 385.944 303.875 384.26C305.486 382.577 307.672 381.631 309.951 381.631H348.296C350.575 381.631 352.761 382.577 354.372 384.26C355.983 385.944 356.889 388.227 356.889 390.608V697.302L301.358 697.964Z" fill="#293241"/>
<path d="M76.3118 332.799C75.7474 332.799 75.1951 332.628 74.7216 332.307C74.2481 331.986 73.8738 331.529 73.6437 330.99C73.4137 330.452 73.3378 329.856 73.4253 329.273C73.5127 328.691 73.7598 328.147 74.1366 327.708L202.35 178.314L328.529 252.333L455.459 23.854L584.766 135.037C585.062 135.291 585.308 135.605 585.489 135.958C585.67 136.312 585.782 136.7 585.819 137.099C585.856 137.499 585.818 137.902 585.706 138.285C585.594 138.669 585.411 139.026 585.167 139.336C584.923 139.646 584.623 139.902 584.284 140.091C583.945 140.279 583.574 140.396 583.191 140.435C582.809 140.473 582.423 140.433 582.056 140.316C581.689 140.198 581.347 140.007 581.051 139.752L457.06 33.1388L330.692 260.605L203.574 186.035L78.4888 331.784C78.2149 332.104 77.8794 332.36 77.5042 332.535C77.129 332.71 76.7227 332.8 76.3118 332.799Z" fill="#293241"/>
<path d="M75.8256 358.243C90.891 358.243 103.104 345.484 103.104 329.746C103.104 314.008 90.891 301.249 75.8256 301.249C60.7603 301.249 48.5474 314.008 48.5474 329.746C48.5474 345.484 60.7603 358.243 75.8256 358.243Z" fill="#E6E6E6"/>
<path d="M202.475 210.671C217.54 210.671 229.753 197.913 229.753 182.175C229.753 166.436 217.54 153.678 202.475 153.678C187.409 153.678 175.196 166.436 175.196 182.175C175.196 197.913 187.409 210.671 202.475 210.671Z" fill="#EE6C4D"/>
<path d="M329.123 284.966C344.189 284.966 356.402 272.207 356.402 256.469C356.402 240.731 344.189 227.973 329.123 227.973C314.058 227.973 301.845 240.731 301.845 256.469C301.845 272.207 314.058 284.966 329.123 284.966Z" fill="#E6E6E6"/>
<path d="M455.772 56.9931C470.838 56.9931 483.05 44.2348 483.05 28.4966C483.05 12.7584 470.838 0 455.772 0C440.707 0 428.494 12.7584 428.494 28.4966C428.494 44.2348 440.707 56.9931 455.772 56.9931Z" fill="#EE6C4D"/>
<path d="M699.328 269.226C714.393 269.226 726.606 256.468 726.606 240.73C726.606 224.992 714.393 212.233 699.328 212.233C684.262 212.233 672.049 224.992 672.049 240.73C672.049 256.468 684.262 269.226 699.328 269.226Z" fill="#EE6C4D"/>
<path d="M689.683 462.719C699.893 464.004 726.001 454.274 727.416 469.076C740.854 510.402 740.455 668.813 740.455 668.813L719.997 669.831C719.997 669.831 703.648 543.963 695.918 517.036C692.039 549.765 692.719 674.92 692.719 674.92L674.208 675.937C674.208 675.937 657.604 569.363 657.51 538.082C655.492 515.169 660.441 481.215 658.323 459.065C668.446 462.417 679.101 463.659 689.683 462.719Z" fill="#293241"/>
<path d="M554.656 696.594V251.076C554.656 245.363 558.503 240.73 563.248 240.73H601.594C606.339 240.73 610.186 245.362 610.186 251.076V697.76L554.656 696.594Z" fill="#293241"/>
<path d="M654.952 342.83C650.857 334.085 645.855 325.836 640.037 318.231C638.821 316.746 637.714 315.168 636.724 313.509C634.63 309.713 634.006 305.255 632.681 301.103C628.979 289.46 619.744 280.107 617.493 268.067C616.675 263.691 609.762 276.411 611.58 281.837C614.824 291.658 615.243 302.06 619.373 311.545C623.504 321.03 628.356 330.129 631.921 339.828C633.948 345.334 635.565 351.023 638.536 356.112C641.508 361.2 646.145 365.464 651.747 366.228C651.709 362.539 652.245 358.868 653.335 355.358C654.553 351.349 656.715 346.626 654.952 342.83Z" fill="#9E616A"/>
<path d="M716.24 349.425C715.99 342.229 717.065 335.049 719.406 328.276C720.303 325.681 721.355 323.045 721.267 320.287C721.141 317.723 719.972 315.372 718.91 313.051C715.247 305.062 712.675 296.594 710.142 288.147L705.271 272.22C703.682 271.003 712.957 270.581 714.935 273.441C721.404 282.824 726.304 293.602 731.428 303.851C732.736 306.293 733.85 308.842 734.76 311.474C736.012 315.738 736.604 320.184 736.514 324.643C736.514 332.978 735.462 341.283 734.371 349.547C733.679 354.727 732.773 360.366 729.022 363.795C725.125 358.585 721.209 353.496 716.24 349.425Z" fill="#9E616A"/>
<path d="M690.482 341.179C701.646 341.179 710.697 331.724 710.697 320.061C710.697 308.398 701.646 298.943 690.482 298.943C679.317 298.943 670.267 308.398 670.267 320.061C670.267 331.724 679.317 341.179 690.482 341.179Z" fill="#9E616A"/>
<path d="M674.048 298.992C673.821 298.351 673.77 297.657 673.901 296.987C674.032 296.318 674.339 295.7 674.788 295.203C675.293 294.787 675.964 294.632 676.505 294.236C677.274 293.56 677.904 292.728 678.355 291.79C679.736 289.771 681.757 288.328 684.059 287.718C686.361 287.108 688.796 287.369 690.932 288.455C694.272 290.282 696.289 293.939 699.261 296.402C700.769 297.678 702.518 298.625 704.036 299.901C707.075 302.644 709.236 306.295 710.226 310.361C711.212 314.4 711.787 318.536 711.943 322.701C712.101 323.951 712.054 325.219 711.804 326.452C711.497 327.487 711.038 328.465 710.445 329.353C707.391 334.186 703.365 338.576 698.322 341.07C693.278 343.564 687.143 343.97 682.168 341.36C681.668 341.149 681.237 340.789 680.929 340.326C680.646 339.62 680.578 338.84 680.735 338.093C681.005 335.138 680.445 332.165 679.125 329.537C678.199 327.604 676.811 325.941 676.071 323.94C675.382 321.7 675.087 319.349 675.2 317C675.112 310.912 675.508 304.851 674.048 298.992Z" fill="#293241"/>
<path d="M48.0594 697.199V482.11C48.0594 479.352 51.9066 477.115 56.652 477.115H94.9974C99.7428 477.115 103.59 479.354 103.59 482.11V697.76L48.0594 697.199Z" fill="#293241"/>
<path d="M799.027 700H0.974222C0.715843 700 0.468045 699.893 0.285343 699.702C0.10264 699.511 0 699.252 0 698.982C0 698.712 0.10264 698.454 0.285343 698.263C0.468045 698.072 0.715843 697.965 0.974222 697.965H799.026C799.284 697.965 799.532 698.072 799.715 698.263C799.897 698.454 800 698.712 800 698.982C800 699.252 799.897 699.511 799.715 699.702C799.532 699.893 799.285 700 799.027 700Z" fill="#E6E6E6"/>
<path d="M428.006 696.442V190.862C428.006 184.378 431.853 179.121 436.599 179.121H474.944C479.689 179.121 483.537 184.378 483.537 190.862V697.76L428.006 696.442Z" fill="#EE6C4D"/>
<path d="M611.015 279.231C615.857 279.231 619.783 275.13 619.783 270.072C619.783 265.013 615.857 260.912 611.015 260.912C606.173 260.912 602.247 265.013 602.247 270.072C602.247 275.13 606.173 279.231 611.015 279.231Z" fill="#A0616A"/>
<path d="M708.437 275.16C713.28 275.16 717.205 271.06 717.205 266.001C717.205 260.942 713.28 256.841 708.437 256.841C703.595 256.841 699.669 260.942 699.669 266.001C699.669 271.06 703.595 275.16 708.437 275.16Z" fill="#A0616A"/>
<path d="M729.743 379.387C730.599 378.569 737.573 335.956 737.533 334.996C737.425 329.746 722.091 323.75 719.023 325.837C716.127 327.805 711.086 350.389 707.841 354.501L704.409 348.227H677.131L675.478 351.434C671.898 349.182 668.679 347.105 667.53 346.418C667.135 346.138 666.706 345.917 666.253 345.761C663.418 345.099 660.757 343.792 658.459 341.935C656.218 340.133 645.82 321.267 643.033 321.766C639.887 322.315 629.273 331.902 629.394 341.103C630.73 341.073 648.113 377.382 648.357 378.736C649.691 384.455 654.098 467.869 655.521 471.757C662.073 471.095 656.9 469.915 663.243 471.757C670.072 473.741 677.281 471.594 684.325 470.8C687.258 470.497 690.204 470.361 693.151 470.393C703.868 470.444 719.163 471.065 729.538 473.843C729.597 466.739 723.625 451.372 721.413 444.665C721.124 442.66 721.133 440.621 721.443 438.619C721.725 436.167 727.43 382.099 729.743 379.387Z" fill="#E6E6E6"/>
</g>
</g>
<defs>
<clipPath id="clip0_1_45">
<rect width="800" height="700" fill="white"/>
</clipPath>
</defs>
</svg>
