<svg width="2165" height="538" viewBox="0 0 2165 538" fill="none" xmlns="http://www.w3.org/2000/svg">
<g clip-path="url(#clip0_2_124)">
<path d="M1.40726 226.3L120.731 116.099C121.402 115.484 122.255 115.066 123.183 114.898C124.111 114.729 125.072 114.818 125.945 115.152C126.819 115.486 127.565 116.052 128.092 116.777C128.618 117.502 128.901 118.355 128.904 119.228V364.071C128.904 364.66 128.777 365.243 128.529 365.785C128.282 366.327 127.92 366.819 127.464 367.23L8.14041 475.132C7.4676 475.744 6.61403 476.157 5.68709 476.322C4.76015 476.486 3.80126 476.394 2.93108 476.056C2.0609 475.718 1.31832 475.151 0.79677 474.424C0.275219 473.698 -0.00199459 472.845 1.08039e-05 471.973V229.419C0.000959622 228.839 0.125745 228.265 0.367223 227.73C0.6087 227.195 0.962125 226.709 1.40726 226.3Z" fill="#EE6C4D"/>
<path d="M495.471 226.3L376.148 116.099C375.478 115.479 374.625 115.057 373.695 114.886C372.766 114.714 371.802 114.802 370.927 115.137C370.051 115.472 369.303 116.04 368.778 116.768C368.252 117.497 367.973 118.353 367.975 119.228V364.071C367.975 364.66 368.102 365.243 368.349 365.785C368.597 366.328 368.959 366.819 369.414 367.23L488.738 475.132C489.411 475.744 490.265 476.157 491.192 476.322C492.119 476.486 493.077 476.394 493.948 476.056C494.818 475.718 495.56 475.151 496.082 474.424C496.604 473.698 496.881 472.845 496.879 471.973V229.419C496.878 228.839 496.753 228.265 496.512 227.73C496.27 227.195 495.917 226.709 495.471 226.3Z" fill="#EE6C4D"/>
<path d="M165.969 365.931H331.787C332.59 365.932 333.379 366.121 334.082 366.478C334.786 366.835 335.381 367.35 335.812 367.976C336.243 368.601 336.497 369.316 336.55 370.056C336.604 370.796 336.455 371.536 336.117 372.209L254.139 535.441C253.753 536.2 253.14 536.842 252.373 537.291C251.607 537.741 250.717 537.98 249.809 537.98C248.901 537.98 248.011 537.741 247.245 537.291C246.478 536.842 245.865 536.2 245.479 535.441L161.65 372.249C161.303 371.575 161.146 370.831 161.194 370.087C161.242 369.342 161.493 368.621 161.924 367.99C162.356 367.36 162.953 366.84 163.66 366.48C164.367 366.12 165.162 365.931 165.969 365.931Z" fill="#EE6C4D"/>
<path d="M245.056 1.29964L159.712 80.1018C158.813 80.9319 158.307 82.0569 158.305 83.2307V334.882C158.308 336.055 158.814 337.178 159.713 338.007C160.612 338.835 161.83 339.3 163.1 339.3H334.59C335.218 339.3 335.84 339.186 336.421 338.964C337.001 338.742 337.529 338.416 337.973 338.006C338.417 337.596 338.77 337.109 339.01 336.573C339.251 336.037 339.374 335.462 339.374 334.882L339.19 334.552V83.8105C339.19 83.2291 339.066 82.6535 338.824 82.1165C338.583 81.5796 338.229 81.092 337.783 80.6816L251.822 1.29964C251.378 0.888284 250.851 0.561873 250.271 0.339148C249.69 0.116423 249.068 0.00177002 248.439 0.00177002C247.81 0.00177002 247.188 0.116423 246.607 0.339148C246.027 0.561873 245.5 0.888284 245.056 1.29964Z" fill="#EE6C4D"/>
<path d="M803.215 108.359H711.73V343.879H656.282V108.359H563.982V59.9788H803.215V108.359Z" fill="#3D5A80"/>
<path d="M838.938 343.879V59.9809H966.089C978.588 59.893 990.942 62.6293 1002.21 67.9818C1013.23 73.2032 1023.1 80.5194 1031.27 89.5141C1039.38 98.4327 1045.8 108.724 1050.23 119.897C1054.62 130.844 1056.88 142.514 1056.89 154.292C1056.94 166.036 1054.82 177.688 1050.63 188.676C1046.59 199.398 1040.49 209.242 1032.67 217.665C1025 225.971 1015.65 232.578 1005.22 237.056L1070.59 343.879H1009.25L950.327 248.683H894.632V343.879H838.938ZM894.632 200.337H964.408C971.129 200.429 977.679 198.242 982.973 194.138C988.575 189.731 993.008 184.036 995.887 177.547C999.19 170.261 1000.84 162.347 1000.73 154.36C1000.87 146.151 998.924 138.037 995.075 130.765C991.706 124.293 986.876 118.677 980.959 114.356C975.574 110.448 969.07 108.348 962.395 108.361H894.632V200.337Z" fill="#3D5A80"/>
<path d="M1181.67 59.9788H1238.12L1343.38 343.879H1286.12L1262.32 273.105H1157.16L1133.27 343.879H1076L1181.67 59.9788ZM1249.29 234.312L1209.9 117.153L1170.3 234.312H1249.29Z" fill="#3D5A80"/>
<path d="M1375.86 343.879V59.9788H1480.11C1511.37 59.9788 1537.51 66.3101 1558.53 78.9727C1579.02 91.0801 1595.47 108.877 1605.82 130.152C1616.33 151.616 1621.58 175.415 1621.58 201.549C1621.58 230.335 1615.79 255.392 1604.21 276.72C1593.04 297.61 1575.98 314.837 1555.09 326.301C1533.97 338.019 1509 343.879 1480.17 343.879H1375.86ZM1565.43 201.538C1565.43 183.148 1562.05 166.954 1555.31 152.954C1549.03 139.466 1538.92 128.075 1526.21 120.168C1513.54 112.31 1498.18 108.378 1480.13 108.37H1431.63V295.487H1480.13C1498.73 295.487 1514.29 291.354 1526.82 283.089C1539.36 274.779 1549.29 263.141 1555.46 249.51C1562.12 235.359 1565.45 219.364 1565.46 201.526L1565.43 201.538Z" fill="#3D5A80"/>
<path d="M1639.99 302.684L1799.88 108.359H1644.42V59.9788H1866.1V101.162L1711.45 295.487H1867.31V343.879H1639.99V302.684Z" fill="#3D5A80"/>
<path d="M2025.34 345.871C2004.34 345.871 1985.36 341.874 1968.42 333.88C1951.69 326.052 1936.72 314.967 1924.41 301.286C1912.12 287.67 1902.43 271.956 1895.81 254.91C1889.14 238.027 1885.72 220.057 1885.72 201.928C1885.65 183.345 1889.29 164.933 1896.41 147.744C1903.39 130.797 1913.37 115.225 1925.89 101.765C1938.46 88.2671 1953.63 77.3935 1970.51 69.7826C1988.1 61.8404 2007.24 57.8134 2026.57 57.9847C2047.29 57.9847 2066.2 62.1176 2083.29 70.3833C2100.01 78.3955 2114.91 89.7068 2127.06 103.624C2139.08 117.339 2148.58 133.035 2155.12 149.999C2165.05 175.619 2167.56 203.48 2162.35 230.436C2157.14 257.392 2144.43 282.368 2125.65 302.544C2113.15 315.972 2098.05 326.765 2081.24 334.277C2063.68 342.112 2044.6 346.068 2025.34 345.871ZM1942.18 201.939C1942.15 214.023 1944.06 226.035 1947.83 237.525C1951.39 248.613 1956.93 258.977 1964.18 268.125C1971.25 277.009 1980.21 284.244 1990.42 289.318C2000.77 294.524 2012.54 297.123 2025.74 297.115C2039.47 297.115 2051.44 294.384 2061.66 288.921C2071.79 283.543 2080.66 276.118 2087.71 267.128C2094.9 257.933 2100.31 247.491 2103.64 236.335C2107.1 225.193 2108.87 213.606 2108.9 201.95C2108.93 189.933 2107.02 177.988 2103.24 166.568C2099.63 155.528 2094.02 145.23 2086.7 136.173C2079.56 127.342 2070.62 120.112 2060.45 114.957C2050.22 109.751 2038.52 107.148 2025.34 107.148C2012.16 107.148 2000.38 109.883 1990.02 115.353C1979.85 120.64 1970.91 127.975 1963.77 136.886C1956.57 145.959 1951.1 156.255 1947.63 167.271C1944.03 178.477 1942.2 190.168 1942.21 201.928L1942.18 201.939Z" fill="#3D5A80"/>
<path d="M751.197 508.82H739.753V471.546C739.753 464.565 738.608 459.411 736.319 456.082C734.031 452.754 730.597 451.093 726.02 451.101C721.345 451.106 716.846 452.862 713.431 456.014C709.593 459.419 706.815 463.83 705.421 468.733V508.82H693.977V471.546C693.977 464.475 692.832 459.298 690.543 456.014C688.255 452.739 684.821 451.101 680.347 451.101C675.736 451.131 671.297 452.831 667.873 455.879C663.99 459.227 661.202 463.638 659.862 468.552V508.82H648.418V441.906H658.878V456.365C661.413 451.677 665.15 447.728 669.715 444.911C674.24 442.2 679.448 440.802 684.741 440.879C690.395 440.879 694.923 442.385 698.325 445.397C701.739 448.458 703.957 452.602 704.597 457.11C707.25 452.25 711.059 448.098 715.697 445.013C720.138 442.221 725.31 440.776 730.575 440.856C733.989 440.742 737.379 441.468 740.439 442.968C743.049 444.333 745.239 446.365 746.779 448.853C748.448 451.596 749.611 454.61 750.212 457.754C750.933 461.419 751.282 465.146 751.254 468.88L751.197 508.82Z" fill="#3D5A80"/>
<path d="M825.31 509.817C820.55 509.879 815.831 508.946 811.46 507.079C807.409 505.321 803.759 502.772 800.727 499.585C797.703 496.399 795.328 492.666 793.734 488.59C792.106 484.414 791.283 479.973 791.308 475.497C791.286 470.974 792.12 466.488 793.768 462.269C795.359 458.192 797.734 454.458 800.761 451.274C803.809 448.075 807.484 445.525 811.562 443.78C815.759 441.918 820.295 440.921 824.894 440.849C829.493 440.776 834.058 441.631 838.313 443.361C842.567 445.09 846.422 447.658 849.642 450.909C852.863 454.16 855.381 458.025 857.045 462.269C858.698 466.486 859.532 470.974 859.504 475.497C859.524 479.976 858.69 484.418 857.045 488.59C855.455 492.666 853.084 496.399 850.063 499.585C847.013 502.781 843.338 505.331 839.262 507.079C834.856 508.949 830.103 509.881 825.31 509.817ZM802.925 475.62C802.889 479.954 803.961 484.227 806.042 488.04C807.937 491.608 810.718 494.639 814.123 496.847C817.496 498.975 821.412 500.106 825.412 500.106C829.412 500.106 833.328 498.975 836.701 496.847C840.153 494.597 842.963 491.507 844.861 487.872C846.905 484.023 847.948 479.732 847.899 475.385C847.954 471.058 846.909 466.787 844.861 462.965C842.944 459.371 840.136 456.317 836.701 454.09C833.338 451.9 829.392 450.752 825.367 450.792C821.353 450.752 817.422 451.926 814.101 454.158C810.705 456.449 807.93 459.531 806.02 463.133C803.965 466.978 802.917 471.271 802.971 475.62H802.925Z" fill="#3D5A80"/>
<path d="M936.362 451.279C931.019 451.266 925.782 452.766 921.26 455.607C916.966 458.33 913.705 462.405 911.995 467.185V508.82H900.64V441.706H911.268V456.967C913.421 452.516 916.596 448.635 920.533 445.637C924.017 442.925 928.205 441.262 932.604 440.845H934.807C935.328 440.838 935.85 440.883 936.362 440.981V451.279Z" fill="#3D5A80"/>
<path d="M1000.51 509.817C995.667 509.876 990.863 508.941 986.409 507.074C982.248 505.307 978.492 502.741 975.363 499.528C972.261 496.339 969.811 492.598 968.144 488.509C966.433 484.29 965.567 479.789 965.592 475.251C965.519 469.237 967.057 463.31 970.052 458.058C973.074 452.747 977.516 448.34 982.902 445.309C988.288 442.279 994.415 440.738 1000.63 440.853C1006.98 440.707 1013.25 442.367 1018.66 445.632C1023.68 448.714 1027.8 453.019 1030.6 458.125C1033.44 463.233 1034.9 468.957 1034.87 474.767C1034.87 475.622 1034.87 476.454 1034.8 477.253C1034.78 477.875 1034.71 478.495 1034.6 479.108H977.811C978.082 483.177 979.369 487.119 981.558 490.589C983.62 493.853 986.485 496.559 989.892 498.46C993.245 500.344 997.048 501.326 1000.91 501.305C1005.08 501.314 1009.18 500.252 1012.79 498.224C1016.22 496.477 1018.93 493.62 1020.46 490.139L1030.43 492.838C1028.88 496.17 1026.62 499.143 1023.81 501.564C1020.78 504.194 1017.27 506.243 1013.47 507.602C1009.32 509.096 1004.93 509.846 1000.51 509.817ZM977.42 471.304H1024.13C1023.87 467.246 1022.56 463.32 1020.33 459.891C1018.23 456.67 1015.34 454.011 1011.93 452.154C1008.48 450.278 1004.59 449.313 1000.65 449.354C996.748 449.323 992.905 450.288 989.501 452.154C986.098 454.001 983.231 456.663 981.167 459.891C978.973 463.334 977.686 467.255 977.42 471.304Z" fill="#3D5A80"/>
<path d="M1168.02 505.546C1167.06 505.976 1165.74 506.543 1164.11 507.235C1162.26 507.986 1160.35 508.589 1158.4 509.037C1156.14 509.569 1153.82 509.831 1151.5 509.819C1148.86 509.845 1146.25 509.34 1143.81 508.334C1141.52 507.377 1139.57 505.753 1138.22 503.675C1136.76 501.29 1136.03 498.531 1136.13 495.74V450.297H1126.88V441.364H1136.13V418.852H1147.54V441.364H1162.78V450.297H1147.54V492.238C1147.55 493.255 1147.77 494.258 1148.2 495.183C1148.63 496.107 1149.25 496.931 1150.02 497.599C1151.5 498.765 1153.34 499.383 1155.23 499.345C1157.37 499.379 1159.49 498.994 1161.48 498.212C1162.77 497.721 1164.03 497.161 1165.26 496.534L1168.02 505.546Z" fill="#3D5A80"/>
<path d="M1264.22 508.82H1252.93V471.208C1252.93 464.369 1251.7 459.21 1249.25 455.729C1248.07 454.049 1246.49 452.697 1244.65 451.797C1242.81 450.897 1240.78 450.477 1238.74 450.578C1235.65 450.611 1232.62 451.393 1229.9 452.857C1226.93 454.409 1224.28 456.526 1222.11 459.092C1219.85 461.727 1218.18 464.816 1217.2 468.153V508.82H1205.91V413.854H1217.2V455.889C1219.77 451.184 1223.54 447.25 1228.11 444.491C1232.59 441.729 1237.74 440.277 1243 440.297C1246.51 440.168 1249.99 440.899 1253.16 442.428C1255.83 443.808 1258.08 445.882 1259.68 448.435C1261.38 451.19 1262.58 454.227 1263.23 457.405C1264 461.078 1264.37 464.822 1264.36 468.575L1264.22 508.82Z" fill="#3D5A80"/>
<path d="M1303.33 489.271C1303.25 485.279 1304.56 481.38 1307.05 478.233C1309.76 474.963 1313.31 472.471 1317.32 471.021C1322.15 469.235 1327.28 468.369 1332.43 468.467C1335.66 468.481 1338.88 468.718 1342.07 469.176C1345.13 469.574 1348.14 470.282 1351.05 471.291V466.442C1351.05 461.379 1349.49 457.388 1346.36 454.47C1343.24 451.552 1338.81 450.097 1333.08 450.104C1329.4 450.095 1325.76 450.77 1322.33 452.096C1318.52 453.625 1314.87 455.541 1311.46 457.812L1307.29 449.846C1311.39 447.013 1315.86 444.742 1320.58 443.095C1325.02 441.594 1329.69 440.834 1334.38 440.844C1343.06 440.844 1349.91 443.2 1354.92 447.91C1359.93 452.621 1362.45 459.177 1362.48 467.578V495.707C1362.39 496.772 1362.69 497.833 1363.32 498.7C1363.69 499.061 1364.12 499.347 1364.6 499.54C1365.08 499.733 1365.6 499.83 1366.12 499.825V508.534C1364.97 508.703 1364.02 508.826 1363.19 508.916C1362.37 509.006 1361.69 509.04 1361.17 509.04C1360.06 509.125 1358.95 508.975 1357.9 508.598C1356.86 508.221 1355.91 507.628 1355.12 506.857C1353.86 505.603 1353.06 503.979 1352.83 502.233L1352.57 498.002C1349.52 501.84 1345.53 504.845 1340.98 506.734C1336.52 508.724 1331.68 509.774 1326.78 509.816C1322.58 509.885 1318.43 508.942 1314.68 507.071C1311.27 505.385 1308.39 502.828 1306.34 499.668C1304.34 496.561 1303.29 492.95 1303.33 489.271ZM1347.63 493.974C1348.61 492.878 1349.44 491.66 1350.09 490.351C1350.63 489.393 1350.94 488.328 1351.01 487.235V478.965C1348.26 477.935 1345.43 477.148 1342.54 476.613C1339.67 476.07 1336.75 475.795 1333.82 475.792C1328 475.792 1323.29 476.917 1319.69 479.167C1318.03 480.083 1316.65 481.423 1315.69 483.047C1314.74 484.671 1314.25 486.518 1314.28 488.394C1314.3 490.566 1314.9 492.695 1316.03 494.559C1317.29 496.628 1319.09 498.32 1321.25 499.454C1323.88 500.8 1326.82 501.455 1329.78 501.355C1333.28 501.368 1336.74 500.655 1339.94 499.263C1342.87 498.068 1345.5 496.264 1347.65 493.974H1347.63Z" fill="#3D5A80"/>
<path d="M1466.74 508.82H1455.22V471.533C1455.22 464.46 1454.1 459.281 1451.86 455.997C1449.63 452.712 1446.23 451.074 1441.66 451.081C1438.39 451.101 1435.17 451.875 1432.26 453.341C1429.13 454.881 1426.32 456.977 1423.97 459.522C1421.57 462.09 1419.79 465.162 1418.77 468.505V508.82H1407.25V441.884H1417.77V456.347C1419.6 453.208 1422.02 450.43 1424.88 448.155C1427.83 445.817 1431.17 443.997 1434.75 442.776C1438.45 441.497 1442.35 440.847 1446.27 440.856C1449.71 440.743 1453.12 441.469 1456.19 442.969C1458.81 444.326 1461 446.362 1462.51 448.855C1464.14 451.609 1465.25 454.624 1465.81 457.759C1466.48 461.431 1466.81 465.157 1466.79 468.889L1466.74 508.82Z" fill="#3D5A80"/>
<path d="M1605.35 505.546C1604.39 505.976 1603.06 506.543 1601.44 507.235C1599.58 507.984 1597.67 508.586 1595.72 509.037C1593.48 509.564 1591.18 509.827 1588.87 509.819C1586.23 509.845 1583.61 509.34 1581.17 508.334C1578.87 507.378 1576.92 505.754 1575.56 503.675C1574.1 501.29 1573.37 498.531 1573.47 495.74V450.297H1564.21V441.364H1573.47V418.852H1584.9V441.364H1600.16V450.297H1584.9V492.238C1584.9 493.255 1585.13 494.261 1585.55 495.186C1585.98 496.111 1586.6 496.934 1587.38 497.599C1588.86 498.767 1590.7 499.385 1592.59 499.345C1594.74 499.38 1596.86 498.995 1598.86 498.212C1600.15 497.725 1601.41 497.165 1602.64 496.534L1605.35 505.546Z" fill="#3D5A80"/>
<path d="M1677.87 451.327C1672.53 451.31 1667.29 452.81 1662.77 455.651C1658.47 458.364 1655.21 462.438 1653.51 467.22V508.82H1642.15V441.762H1652.69V457.01C1654.85 452.565 1658.02 448.688 1661.96 445.69C1665.45 442.953 1669.66 441.272 1674.08 440.845H1676.27C1676.8 440.838 1677.32 440.883 1677.84 440.981L1677.87 451.327Z" fill="#3D5A80"/>
<path d="M1709.27 489.271C1709.18 485.28 1710.51 481.381 1713.04 478.233C1715.8 474.965 1719.4 472.474 1723.49 471.021C1728.4 469.236 1733.61 468.37 1738.85 468.467C1742.14 468.48 1745.41 468.717 1748.66 469.176C1751.78 469.574 1754.84 470.283 1757.8 471.291V466.442C1757.8 461.379 1756.21 457.388 1753.04 454.47C1749.86 451.552 1745.35 450.097 1739.52 450.105C1735.78 450.094 1732.07 450.769 1728.59 452.096C1724.71 453.621 1721.01 455.537 1717.53 457.812L1713.29 449.846C1717.46 447.011 1722.01 444.74 1726.81 443.095C1731.33 441.593 1736.07 440.832 1740.85 440.844C1749.67 440.844 1756.63 443.2 1761.74 447.91C1766.85 452.621 1769.41 459.177 1769.42 467.578V495.707C1769.33 496.772 1769.64 497.833 1770.28 498.7C1770.66 499.061 1771.1 499.346 1771.59 499.539C1772.08 499.732 1772.61 499.829 1773.14 499.825V508.534C1771.97 508.703 1770.99 508.826 1770.15 508.916C1769.32 509.006 1768.63 509.04 1768.1 509.04C1766.97 509.125 1765.84 508.975 1764.77 508.598C1763.71 508.222 1762.74 507.628 1761.94 506.857C1760.66 505.604 1759.85 503.979 1759.62 502.233L1759.35 498.002C1756.25 501.837 1752.19 504.842 1747.56 506.734C1743.01 508.723 1738.09 509.773 1733.11 509.817C1728.84 509.883 1724.61 508.941 1720.8 507.071C1717.34 505.382 1714.41 502.826 1712.31 499.668C1710.28 496.56 1709.23 492.949 1709.27 489.271ZM1754.31 493.974C1755.31 492.878 1756.16 491.66 1756.83 490.351C1757.37 489.391 1757.69 488.327 1757.76 487.235V478.965C1754.97 477.936 1752.08 477.149 1749.15 476.613C1746.22 476.071 1743.25 475.796 1740.27 475.792C1734.35 475.792 1729.56 476.917 1725.89 479.167C1724.2 480.083 1722.8 481.424 1721.84 483.048C1720.87 484.672 1720.37 486.519 1720.4 488.394C1720.42 490.567 1721.03 492.697 1722.19 494.559C1723.46 496.628 1725.29 498.32 1727.48 499.454C1730.16 500.8 1733.15 501.455 1736.16 501.355C1739.72 501.369 1743.24 500.656 1746.49 499.263C1749.46 498.066 1752.13 496.262 1754.31 493.974Z" fill="#3D5A80"/>
<path d="M1808.86 475.037C1808.79 468.992 1810.16 463.016 1812.88 457.595C1815.39 452.506 1819.19 448.142 1823.91 444.922C1828.65 441.734 1834.28 440.072 1840.02 440.164C1845.3 440.096 1850.47 441.587 1854.87 444.445C1859.04 447.086 1862.55 450.632 1865.12 454.813V413.854H1876.63V495.511C1876.54 496.593 1876.84 497.673 1877.48 498.554C1877.85 498.921 1878.29 499.21 1878.77 499.405C1879.26 499.6 1879.78 499.697 1880.3 499.69V508.467C1878.61 508.761 1876.9 508.932 1875.18 508.978C1872.96 509.018 1870.82 508.203 1869.21 506.707C1868.42 506.075 1867.79 505.285 1867.35 504.389C1866.9 503.493 1866.66 502.514 1866.64 501.518V495.84C1863.96 500.116 1860.2 503.636 1855.74 506.06C1851.41 508.5 1846.52 509.795 1841.54 509.819C1837.03 509.862 1832.56 508.915 1828.46 507.048C1824.52 505.224 1820.99 502.619 1818.1 499.394C1815.16 496.125 1812.85 492.354 1811.28 488.266C1809.65 484.043 1808.83 479.556 1808.86 475.037ZM1865.11 484.905V465.669C1864.01 462.696 1862.26 460 1859.98 457.777C1857.68 455.454 1854.99 453.535 1852.03 452.099C1849.24 450.702 1846.16 449.973 1843.03 449.973C1839.9 449.973 1836.81 450.702 1834.03 452.099C1831.29 453.496 1828.88 455.428 1826.93 457.777C1824.95 460.161 1823.41 462.876 1822.4 465.794C1821.35 468.808 1820.81 471.974 1820.82 475.162C1820.81 478.407 1821.41 481.627 1822.59 484.655C1823.74 487.587 1825.44 490.283 1827.59 492.604C1829.69 494.888 1832.24 496.723 1835.08 497.998C1838 499.294 1841.16 499.948 1844.35 499.917C1846.57 499.897 1848.77 499.513 1850.86 498.781C1853.11 497.997 1855.26 496.916 1857.22 495.568C1859.18 494.253 1860.91 492.63 1862.34 490.764C1863.69 489.037 1864.64 487.036 1865.11 484.905Z" fill="#3D5A80"/>
<path d="M1922.52 428.156V413.854H1933.34V428.156H1922.52ZM1922.52 508.82V440.909H1933.34V508.809L1922.52 508.82Z" fill="#3D5A80"/>
<path d="M2037.21 508.82H2025.89V471.533C2025.89 464.46 2024.8 459.281 2022.6 455.997C2020.41 452.713 2017.07 451.074 2012.59 451.082C2009.38 451.101 2006.22 451.875 2003.36 453.342C2000.29 454.879 1997.53 456.975 1995.23 459.522C1992.86 462.09 1991.12 465.162 1990.12 468.505V508.82H1978.81V441.884H1989.14V456.347C1990.94 453.208 1993.3 450.431 1996.12 448.155C1999.01 445.818 2002.29 443.998 2005.8 442.777C2009.44 441.497 2013.26 440.847 2017.12 440.856C2020.49 440.742 2023.84 441.468 2026.87 442.969C2029.44 444.326 2031.58 446.363 2033.07 448.856C2034.66 451.61 2035.76 454.624 2036.3 457.759C2036.97 461.431 2037.29 465.157 2037.26 468.889L2037.21 508.82Z" fill="#3D5A80"/>
<path d="M2108.7 510.296C2104.3 510.341 2099.96 509.388 2095.99 507.511C2092.18 505.703 2088.79 503.123 2086.05 499.937C2083.25 496.67 2081.06 492.926 2079.6 488.887C2078.08 484.748 2077.31 480.375 2077.32 475.97C2077.29 471.39 2078.06 466.84 2079.6 462.521C2081.02 458.397 2083.2 454.575 2086.05 451.256C2088.82 448.069 2092.21 445.473 2096.02 443.626C2100 441.743 2104.37 440.794 2108.79 440.852C2114.03 440.724 2119.2 442.143 2123.63 444.928C2127.84 447.644 2131.46 451.179 2134.26 455.321V441.928H2144.42V508.348C2144.62 514.051 2143.02 519.675 2139.85 524.436C2136.69 528.86 2132.34 532.316 2127.29 534.409C2121.75 536.734 2115.79 537.891 2109.77 537.806C2102.16 537.806 2095.91 536.474 2091 533.809C2086.17 531.165 2082.03 527.449 2078.88 522.952L2085.53 517.133C2088.12 521.009 2091.75 524.093 2096.02 526.043C2100.3 528.025 2104.98 529.042 2109.71 529.021C2113.67 529.059 2117.59 528.312 2121.24 526.824C2124.66 525.432 2127.6 523.093 2129.71 520.088C2131.93 516.733 2133.04 512.777 2132.9 508.767V496.88C2130.4 501.015 2126.84 504.415 2122.58 506.729C2118.34 509.082 2113.56 510.31 2108.7 510.296ZM2112.21 500.99C2114.62 500.994 2117.01 500.557 2119.26 499.699C2121.49 498.86 2123.6 497.717 2125.51 496.303C2127.36 494.945 2128.99 493.31 2130.33 491.457C2131.56 489.796 2132.45 487.906 2132.93 485.899V466.483C2130.57 460.425 2125.95 455.5 2120.03 452.728C2117.27 451.411 2114.24 450.723 2111.17 450.713C2107.93 450.675 2104.72 451.454 2101.86 452.977C2099.14 454.423 2096.76 456.426 2094.89 458.853C2091.03 463.843 2088.93 469.945 2088.89 476.23C2088.87 479.485 2089.49 482.711 2090.72 485.729C2091.89 488.636 2093.57 491.317 2095.67 493.654C2097.74 495.979 2100.29 497.839 2103.14 499.11C2105.99 500.381 2109.09 501.033 2112.21 501.024V500.99Z" fill="#3D5A80"/>
</g>
<defs>
<clipPath id="clip0_2_124">
<rect width="2165" height="538" fill="white"/>
</clipPath>
</defs>
</svg>
