<svg width="670" height="787" viewBox="0 0 670 787" fill="none" xmlns="http://www.w3.org/2000/svg">
<g clip-path="url(#clip0_17_2)">
<path d="M1.84998 332.21L162.59 171.47C163.493 170.572 164.641 169.961 165.89 169.714C167.139 169.467 168.434 169.596 169.61 170.083C170.786 170.571 171.792 171.396 172.5 172.454C173.209 173.512 173.588 174.757 173.59 176.03V533.18C173.589 534.039 173.417 534.889 173.083 535.68C172.75 536.472 172.263 537.189 171.65 537.79L10.92 695.18C10.015 696.081 8.86308 696.693 7.61009 696.938C6.3571 697.184 5.05943 697.052 3.88147 696.559C2.70351 696.066 1.69825 695.235 0.993031 694.171C0.287811 693.107 -0.0856395 691.857 -0.0800155 690.58V336.77C-0.0745552 335.92 0.0987601 335.08 0.429972 334.297C0.761184 333.515 1.24376 332.805 1.84998 332.21Z" fill="#EE6C4D"/>
<path d="M667.37 332.21L506.64 171.47C505.738 170.572 504.589 169.961 503.34 169.714C502.091 169.467 500.796 169.596 499.62 170.083C498.444 170.571 497.438 171.396 496.73 172.454C496.022 173.512 495.642 174.757 495.64 176.03V533.18C495.642 534.038 495.813 534.887 496.144 535.678C496.476 536.469 496.96 537.187 497.57 537.79L658.3 695.18C659.205 696.081 660.357 696.693 661.61 696.938C662.863 697.184 664.161 697.052 665.339 696.559C666.517 696.066 667.522 695.235 668.227 694.171C668.932 693.107 669.306 691.857 669.3 690.58V336.77C669.295 335.92 669.121 335.08 668.79 334.297C668.459 333.515 667.976 332.805 667.37 332.21Z" fill="#EE6C4D"/>
<path d="M223.53 535.89H446.88C447.963 535.891 449.028 536.164 449.977 536.684C450.927 537.205 451.73 537.956 452.313 538.868C452.896 539.781 453.239 540.825 453.312 541.906C453.385 542.986 453.185 544.067 452.73 545.05L342.29 783.15C341.772 784.259 340.949 785.197 339.918 785.856C338.887 786.516 337.69 786.868 336.466 786.874C335.242 786.879 334.042 786.536 333.005 785.886C331.968 785.236 331.138 784.304 330.61 783.2L217.7 545.1C217.234 544.117 217.025 543.032 217.092 541.946C217.158 540.861 217.498 539.809 218.08 538.89C218.661 537.971 219.466 537.214 220.419 536.69C221.372 536.165 222.442 535.89 223.53 535.89Z" fill="#EE6C4D"/>
<path d="M330.05 4L215.05 119C213.84 120.209 213.16 121.85 213.16 123.56V490.59C213.16 492.301 213.839 493.941 215.049 495.151C216.259 496.36 217.899 497.04 219.61 497.04H450.61C452.321 497.04 453.961 496.36 455.171 495.151C456.38 493.941 457.06 492.301 457.06 490.59L456.81 490.1V124.36C456.831 122.661 456.18 121.022 455 119.8L339.17 4C337.96 2.7909 336.32 2.11168 334.61 2.11168C332.9 2.11168 331.259 2.7909 330.05 4Z" fill="#EE6C4D"/>
</g>
<defs>
<clipPath id="clip0_17_2">
<rect width="669.74" height="786.68" fill="white"/>
</clipPath>
</defs>
</svg>
