<svg id="Layer_1" data-name="Layer 1" xmlns="http://www.w3.org/2000/svg" viewBox="0 0 669.74 786.68"><defs><style>.cls-1{fill:#3d5a80;}</style></defs><title>logo</title><path class="cls-1" d="M1.85,332.21,162.59,171.47a6.45,6.45,0,0,1,11,4.56V533.18a6.47,6.47,0,0,1-1.94,4.61L10.92,695.18a6.45,6.45,0,0,1-11-4.6V336.77A6.45,6.45,0,0,1,1.85,332.21Z"/><path class="cls-1" d="M667.37,332.21,506.64,171.47a6.45,6.45,0,0,0-11,4.56V533.18a6.5,6.5,0,0,0,1.93,4.61L658.3,695.18a6.45,6.45,0,0,0,11-4.6V336.77A6.45,6.45,0,0,0,667.37,332.21Z"/><path class="cls-1" d="M223.53,535.89H446.88a6.45,6.45,0,0,1,5.85,9.16L342.29,783.15a6.46,6.46,0,0,1-11.68.05L217.7,545.1A6.45,6.45,0,0,1,223.53,535.89Z"/><path class="cls-1" d="M330.05,4l-115,115a6.45,6.45,0,0,0-1.89,4.56V490.59a6.45,6.45,0,0,0,6.45,6.45h231a6.45,6.45,0,0,0,6.45-6.45h0l-.25-.49V124.36A6.45,6.45,0,0,0,455,119.8L339.17,4A6.45,6.45,0,0,0,330.05,4Z"/><path class="cls-1" d="M652.85,223.53l.12-.22q3.31-8.25,6.65-16.5.9-2.22,1.79-4.44a.33.33,0,0,1,.37-.25h5q1.07,14.61,2.12,29.23h-5.31q-.64-9.17-1.3-18.3h-.06c-.15.37-.31.74-.46,1.12q-3.48,8.47-7,17a.33.33,0,0,1-.37.25c-1,0-2,0-3.07,0a.36.36,0,0,1-.4-.28L645,216.7c-.48-1.17-1-2.33-1.43-3.49a1.31,1.31,0,0,0-.12-.22c0,.32-.05.57-.06.82q-.33,4.49-.64,9l-.6,8.37c0,.14,0,.23-.21.22h-5l-.15,0c.7-9.74,1.4-19.46,2.11-29.22h4.94a.38.38,0,0,1,.42.29l4.23,10.5q2.12,5.22,4.21,10.44C652.78,223.4,652.81,223.45,652.85,223.53Z"/><path class="cls-1" d="M626.55,231.37h-5.42V207H610.85v-4.85h25.84V207H626.55Z"/></svg>