<svg xmlns="http://www.w3.org/2000/svg" xmlns:xlink="http://www.w3.org/1999/xlink" width="580" zoomAndPan="magnify" viewBox="0 0 434.88 225" height="300" preserveAspectRatio="xMidYMid meet" version="1.0"><defs><g/><clipPath id="d56394f7c1"><path d="M 0 0.03125 L 434.761719 0.03125 L 434.761719 224.96875 L 0 224.96875 Z M 0 0.03125 " clip-rule="nonzero"/></clipPath></defs><g clip-path="url(#d56394f7c1)"><path fill="#ffffff" d="M 0 0.03125 L 434.878906 0.03125 L 434.878906 224.96875 L 0 224.96875 Z M 0 0.03125 " fill-opacity="1" fill-rule="nonzero"/><path fill="#ee6c4d" d="M 0 0.03125 L 434.878906 0.03125 L 434.878906 224.96875 L 0 224.96875 Z M 0 0.03125 " fill-opacity="1" fill-rule="nonzero"/></g><g fill="#f7f7f7" fill-opacity="1"><g transform="translate(86.253304, 104.603126)"><g><path d="M 59.84375 -55.859375 L 48.515625 -55.859375 L 32.5625 -29.4375 L 16.515625 -55.859375 L 5.1875 -55.859375 L 5.1875 0 L 16.203125 0 L 16.203125 -36.140625 L 31.921875 -10.296875 L 33.203125 -10.296875 L 48.921875 -36.234375 L 48.921875 0 L 59.84375 0 Z M 59.84375 -55.859375 "/></g></g></g><g fill="#f7f7f7" fill-opacity="1"><g transform="translate(151.283311, 104.603126)"><g><path d="M 35.03125 -39.890625 L 35.03125 -35.1875 C 32.15625 -38.78125 27.84375 -41.015625 22.03125 -41.015625 C 11.40625 -41.015625 2.640625 -31.84375 2.640625 -19.953125 C 2.640625 -8.0625 11.40625 1.109375 22.03125 1.109375 C 27.84375 1.109375 32.15625 -1.109375 35.03125 -4.703125 L 35.03125 0 L 45.328125 0 L 45.328125 -39.890625 Z M 23.9375 -8.703125 C 17.640625 -8.703125 12.921875 -13.25 12.921875 -19.953125 C 12.921875 -26.65625 17.640625 -31.203125 23.9375 -31.203125 C 30.328125 -31.203125 35.03125 -26.65625 35.03125 -19.953125 C 35.03125 -13.25 30.328125 -8.703125 23.9375 -8.703125 Z M 23.9375 -8.703125 "/></g></g></g><g fill="#f7f7f7" fill-opacity="1"><g transform="translate(201.232737, 104.603126)"><g><path d="M 15 -33.03125 L 15 -39.890625 L 4.703125 -39.890625 L 4.703125 0 L 15 0 L 15 -19.078125 C 15 -27.453125 21.78125 -29.84375 27.125 -29.203125 L 27.125 -40.703125 C 22.109375 -40.703125 17.078125 -38.46875 15 -33.03125 Z M 15 -33.03125 "/></g></g></g><g fill="#f7f7f7" fill-opacity="1"><g transform="translate(229.638487, 104.603126)"><g><path d="M 41.5 0 L 24.96875 -20.1875 L 41.015625 -39.890625 L 28.734375 -39.890625 L 15 -22.34375 L 15 -55.859375 L 4.703125 -55.859375 L 4.703125 0 L 15 0 L 15 -18.109375 L 29.53125 0 Z M 41.5 0 "/></g></g></g><g fill="#f7f7f7" fill-opacity="1"><g transform="translate(271.528986, 104.603126)"><g><path d="M 13.40625 -15.71875 L 43.484375 -15.71875 C 43.734375 -17.078125 43.890625 -18.4375 43.890625 -19.953125 C 43.890625 -31.671875 35.515625 -41.015625 23.703125 -41.015625 C 11.171875 -41.015625 2.640625 -31.84375 2.640625 -19.953125 C 2.640625 -8.0625 11.09375 1.109375 24.5 1.109375 C 32.15625 1.109375 38.140625 -2 41.890625 -7.421875 L 33.59375 -12.203125 C 31.84375 -9.890625 28.640625 -8.21875 24.65625 -8.21875 C 19.234375 -8.21875 14.84375 -10.453125 13.40625 -15.71875 Z M 13.25 -23.703125 C 14.4375 -28.8125 18.1875 -31.765625 23.703125 -31.765625 C 28.015625 -31.765625 32.3125 -29.4375 33.59375 -23.703125 Z M 13.25 -23.703125 "/></g></g></g><g fill="#f7f7f7" fill-opacity="1"><g transform="translate(317.887797, 104.603126)"><g><path d="M 27.53125 -30 L 27.53125 -39.890625 L 18.515625 -39.890625 L 18.515625 -51.0625 L 8.21875 -47.953125 L 8.21875 -39.890625 L 1.28125 -39.890625 L 1.28125 -30 L 8.21875 -30 L 8.21875 -13.40625 C 8.21875 -2.640625 13.09375 1.59375 27.53125 0 L 27.53125 -9.34375 C 21.625 -9.015625 18.515625 -9.09375 18.515625 -13.40625 L 18.515625 -30 Z M 27.53125 -30 "/></g></g></g><g fill="#f7f7f7" fill-opacity="1"><g transform="translate(73.160398, 174.797555)"><g><path d="M 5.1875 -55.859375 L 5.1875 0 L 16.203125 0 L 16.203125 -55.859375 Z M 5.1875 -55.859375 "/></g></g></g><g fill="#f7f7f7" fill-opacity="1"><g transform="translate(94.544497, 174.797555)"><g><path d="M 48.828125 -41.015625 C 43.40625 -41.015625 39.421875 -38.859375 36.953125 -35.265625 C 34.71875 -38.9375 31.046875 -41.015625 26.09375 -41.015625 C 20.984375 -41.015625 17.234375 -39.015625 15 -35.671875 L 15 -39.890625 L 4.703125 -39.890625 L 4.703125 0 L 15 0 L 15 -22.421875 C 15 -28.40625 18.109375 -31.4375 22.5 -31.4375 C 26.8125 -31.4375 29.203125 -28.5625 29.203125 -23.859375 L 29.203125 0 L 39.5 0 L 39.5 -22.421875 C 39.5 -28.40625 42.375 -31.4375 46.921875 -31.4375 C 51.234375 -31.4375 53.625 -28.5625 53.625 -23.859375 L 53.625 0 L 63.921875 0 L 63.921875 -24.578125 C 63.921875 -34.546875 57.9375 -41.015625 48.828125 -41.015625 Z M 48.828125 -41.015625 "/></g></g></g><g fill="#f7f7f7" fill-opacity="1"><g transform="translate(162.526793, 174.797555)"><g><path d="M 27.921875 -41.015625 C 22.109375 -41.015625 17.875 -38.859375 15 -35.1875 L 15 -39.890625 L 4.703125 -39.890625 L 4.703125 15.953125 L 15 15.953125 L 15 -4.703125 C 17.875 -1.03125 22.109375 1.109375 27.921875 1.109375 C 38.625 1.109375 47.40625 -8.0625 47.40625 -19.953125 C 47.40625 -31.84375 38.625 -41.015625 27.921875 -41.015625 Z M 26.015625 -8.703125 C 19.703125 -8.703125 15 -13.25 15 -19.953125 C 15 -26.65625 19.703125 -31.203125 26.015625 -31.203125 C 32.390625 -31.203125 37.109375 -26.65625 37.109375 -19.953125 C 37.109375 -13.25 32.390625 -8.703125 26.015625 -8.703125 Z M 26.015625 -8.703125 "/></g></g></g><g fill="#f7f7f7" fill-opacity="1"><g transform="translate(212.476219, 174.797555)"><g><path d="M 31.046875 -39.890625 L 31.046875 -18.359375 C 31.046875 -11.40625 27.296875 -8.453125 22.265625 -8.453125 C 17.640625 -8.453125 14.359375 -11.25 14.359375 -16.671875 L 14.359375 -39.890625 L 4.0625 -39.890625 L 4.0625 -15.40625 C 4.0625 -4.78125 10.6875 1.109375 19.15625 1.109375 C 24.5 1.109375 28.640625 -0.875 31.046875 -4.46875 L 31.046875 0 L 41.328125 0 L 41.328125 -39.890625 Z M 31.046875 -39.890625 "/></g></g></g><g fill="#f7f7f7" fill-opacity="1"><g transform="translate(258.515874, 174.797555)"><g><path d="M 4.703125 0 L 15 0 L 15 -58.25 L 4.703125 -58.25 Z M 4.703125 0 "/></g></g></g><g fill="#f7f7f7" fill-opacity="1"><g transform="translate(278.224359, 174.797555)"><g><path d="M 14.203125 -28.5625 C 14.203125 -30.71875 16.28125 -31.84375 18.828125 -31.84375 C 21.78125 -31.84375 24.015625 -30.328125 25.21875 -27.765625 L 34 -32.5625 C 30.875 -38.0625 25.296875 -41.015625 18.828125 -41.015625 C 10.609375 -41.015625 3.671875 -36.46875 3.671875 -28.328125 C 3.671875 -14.28125 24.265625 -17.46875 24.265625 -11.65625 C 24.265625 -9.34375 22.03125 -8.21875 18.75 -8.21875 C 14.765625 -8.21875 12.046875 -10.140625 10.9375 -13.40625 L 2 -8.375 C 4.875 -2.234375 10.765625 1.109375 18.75 1.109375 C 27.296875 1.109375 34.796875 -3.03125 34.796875 -11.65625 C 34.796875 -26.328125 14.203125 -22.65625 14.203125 -28.5625 Z M 14.203125 -28.5625 "/></g></g></g><g fill="#f7f7f7" fill-opacity="1"><g transform="translate(315.327375, 174.797555)"><g><path d="M 13.40625 -15.71875 L 43.484375 -15.71875 C 43.734375 -17.078125 43.890625 -18.4375 43.890625 -19.953125 C 43.890625 -31.671875 35.515625 -41.015625 23.703125 -41.015625 C 11.171875 -41.015625 2.640625 -31.84375 2.640625 -19.953125 C 2.640625 -8.0625 11.09375 1.109375 24.5 1.109375 C 32.15625 1.109375 38.140625 -2 41.890625 -7.421875 L 33.59375 -12.203125 C 31.84375 -9.890625 28.640625 -8.21875 24.65625 -8.21875 C 19.234375 -8.21875 14.84375 -10.453125 13.40625 -15.71875 Z M 13.25 -23.703125 C 14.4375 -28.8125 18.1875 -31.765625 23.703125 -31.765625 C 28.015625 -31.765625 32.3125 -29.4375 33.59375 -23.703125 Z M 13.25 -23.703125 "/></g></g></g></svg>