<svg width="28" height="28" viewBox="0 0 28 28" fill="none" xmlns="http://www.w3.org/2000/svg">
<path d="M13.9998 25.6668C13.3582 25.6668 12.8089 25.4384 12.3519 24.9814C11.895 24.5245 11.6665 23.9752 11.6665 23.3335H16.3332C16.3332 23.9752 16.1047 24.5245 15.6478 24.9814C15.1908 25.4384 14.6415 25.6668 13.9998 25.6668ZM5.83317 22.1668C5.50261 22.1668 5.22553 22.055 5.00192 21.8314C4.77831 21.6078 4.6665 21.3307 4.6665 21.0002C4.6665 20.6696 4.77831 20.3925 5.00192 20.1689C5.22553 19.9453 5.50261 19.8335 5.83317 19.8335H6.99984V11.6668C6.99984 10.0529 7.48595 8.61891 8.45817 7.36475C9.43039 6.11058 10.6943 5.28905 12.2498 4.90016V4.0835C12.2498 3.59738 12.42 3.18419 12.7603 2.84391C13.1005 2.50363 13.5137 2.3335 13.9998 2.3335C14.4859 2.3335 14.8991 2.50363 15.2394 2.84391C15.5797 3.18419 15.7498 3.59738 15.7498 4.0835V4.46266C15.5554 4.85155 15.4096 5.25989 15.3123 5.68766C15.2151 6.11544 15.1665 6.55294 15.1665 7.00016C15.1665 8.61405 15.7353 9.98975 16.8728 11.1272C18.0103 12.2647 19.3859 12.8335 20.9998 12.8335V19.8335H22.1665C22.4971 19.8335 22.7741 19.9453 22.9978 20.1689C23.2214 20.3925 23.3332 20.6696 23.3332 21.0002C23.3332 21.3307 23.2214 21.6078 22.9978 21.8314C22.7741 22.055 22.4971 22.1668 22.1665 22.1668H5.83317ZM20.9998 10.5002C20.0276 10.5002 19.2012 10.1599 18.5207 9.47933C17.8401 8.79877 17.4998 7.97238 17.4998 7.00016C17.4998 6.02794 17.8401 5.20155 18.5207 4.521C19.2012 3.84044 20.0276 3.50016 20.9998 3.50016C21.9721 3.50016 22.7984 3.84044 23.479 4.521C24.1596 5.20155 24.4998 6.02794 24.4998 7.00016C24.4998 7.97238 24.1596 8.79877 23.479 9.47933C22.7984 10.1599 21.9721 10.5002 20.9998 10.5002Z" fill="#1D2839"/>
<path d="M21 11C23.2091 11 25 9.20914 25 7C25 4.79086 23.2091 3 21 3C18.7909 3 17 4.79086 17 7C17 9.20914 18.7909 11 21 11Z" fill="#FF3422"/>
</svg>
