<svg width="24" height="24" viewBox="0 0 24 24" fill="none" xmlns="http://www.w3.org/2000/svg">
<g clip-path="url(#clip0_397_3291)">
<path d="M4.20021 17.78L9.50021 12.48L12.7502 15.73C13.1602 16.14 13.8202 16.12 14.2002 15.69L21.3702 7.62003C21.7202 7.23003 21.7002 6.63003 21.3302 6.25003C20.9302 5.85003 20.2602 5.86003 19.8802 6.29003L13.4902 13.47L10.2002 10.18C9.81021 9.79003 9.18021 9.79003 8.79021 10.18L2.70021 16.28C2.31021 16.67 2.31021 17.3 2.70021 17.69L2.79021 17.78C3.18021 18.17 3.82021 18.17 4.20021 17.78Z" fill="#FF6B49"/>
</g>
<rect x="0.5" y="0.5" width="23" height="23" rx="2.5" stroke="#FF6B49"/>
<defs>
<clipPath id="clip0_397_3291">
<rect width="24" height="24" rx="3" fill="white"/>
</clipPath>
</defs>
</svg>
