<svg width="24" height="24" viewBox="0 0 24 24" fill="none" xmlns="http://www.w3.org/2000/svg">
<g clip-path="url(#clip0_491_3506)">
<path d="M4.19973 17.78L9.49973 12.48L12.7497 15.73C13.1597 16.14 13.8197 16.12 14.1997 15.69L21.3697 7.62003C21.7197 7.23003 21.6997 6.63003 21.3297 6.25003C20.9297 5.85003 20.2597 5.86003 19.8797 6.29003L13.4897 13.47L10.1997 10.18C9.80973 9.79003 9.17973 9.79003 8.78973 10.18L2.69973 16.28C2.30973 16.67 2.30973 17.3 2.69973 17.69L2.78973 17.78C3.17973 18.17 3.81973 18.17 4.19973 17.78Z" fill="#1D2839"/>
</g>
<rect x="0.5" y="0.5" width="23" height="23" rx="2.5" stroke="#355782"/>
<defs>
<clipPath id="clip0_491_3506">
<rect width="24" height="24" rx="3" fill="white"/>
</clipPath>
</defs>
</svg>
