<?xml version="1.0" encoding="utf-8"?>
<!-- Generator: Adobe Illustrator 24.0.1, SVG Export Plug-In . SVG Version: 6.00 Build 0)  -->
<svg version="1.1" id="Layer_1" xmlns="http://www.w3.org/2000/svg" xmlns:xlink="http://www.w3.org/1999/xlink" x="0px" y="0px"
	 viewBox="0 0 1920 1080" style="enable-background:new 0 0 1920 1080;" xml:space="preserve">
<style type="text/css">
	.st0{fill:#EE6C4D;}
	.st1{fill:#3D5A80;}
</style>
<g>
	<g>
		<path class="st0" d="M328.16,511.81l72.74-72.74c1.84-1.84,4.98-0.54,4.98,2.06v161.61c0,0.78-0.32,1.54-0.88,2.09l-72.74,71.23
			c-1.85,1.81-4.96,0.5-4.96-2.09v-160.1C327.3,513.1,327.61,512.36,328.16,511.81z"/>
		<path class="st0" d="M629.32,511.81l-72.74-72.74c-1.84-1.84-4.98-0.54-4.98,2.06v161.61c0,0.78,0.32,1.54,0.88,2.09l72.74,71.23
			c1.85,1.81,4.96,0.5,4.96-2.09v-160.1C630.18,513.1,629.87,512.36,629.32,511.81z"/>
		<g>
			<path class="st0" d="M428.47,603.98h101.07c2.13,0,3.54,2.21,2.65,4.15l-49.98,107.74c-1.04,2.24-4.22,2.26-5.28,0.02
				l-51.09-107.74C424.92,606.21,426.33,603.98,428.47,603.98z"/>
		</g>
		<path class="st0" d="M476.68,363.29l-52.02,52.02c-0.55,0.55-0.85,1.29-0.85,2.06l0,166.1c0,1.61,1.31,2.92,2.92,2.92l104.53,0
			c1.61,0,2.92-1.31,2.92-2.92l0,0l-0.12-0.22l0-165.5c0-0.77-0.31-1.52-0.85-2.06l-52.4-52.4
			C479.66,362.15,477.82,362.15,476.68,363.29z"/>
	</g>
	<g>
		<g>
			<path class="st1" d="M808.62,429.86h-52.61v137.12h-31.89V429.86h-53.08v-28.17h137.59V429.86z"/>
			<path class="st1" d="M829.34,566.98V401.69h73.33c7.45,0,14.39,1.55,20.84,4.66c6.44,3.11,12.03,7.3,16.76,12.57
				c4.73,5.28,8.38,11.17,10.94,17.69c2.56,6.52,3.84,13.19,3.84,20.02c0,6.98-1.2,13.66-3.61,20.02
				c-2.41,6.36-5.86,11.99-10.36,16.88c-4.5,4.89-9.78,8.65-15.83,11.29l37.71,62.16h-35.39l-33.99-55.41h-32.13v55.41H829.34z
				 M861.47,483.41h40.27c4.03,0,7.6-1.2,10.71-3.61c3.1-2.4,5.59-5.62,7.45-9.66c1.86-4.03,2.79-8.53,2.79-13.5
				c0-5.12-1.09-9.7-3.26-13.74c-2.18-4.03-4.89-7.22-8.15-9.54c-3.26-2.33-6.83-3.49-10.71-3.49h-39.11V483.41z"/>
			<path class="st1" d="M1026.52,401.69h32.59l60.76,165.29h-33.06l-13.74-41.21h-60.69l-13.81,41.21h-33.06L1026.52,401.69z
				 M1065.56,503.2l-22.74-68.21l-22.85,68.21H1065.56z"/>
			<path class="st1" d="M1138.27,566.98V401.69h60.06c18,0,33.06,3.69,45.16,11.06c12.11,7.37,21.18,17.31,27.24,29.8
				c6.05,12.49,9.08,26.35,9.08,41.55c0,16.76-3.34,31.35-10.01,43.77c-6.67,12.42-16.1,22.04-28.29,28.87
				c-12.19,6.83-26.58,10.24-43.18,10.24H1138.27z M1247.45,484.11c0-10.71-1.94-20.14-5.82-28.29
				c-3.88-8.15-9.47-14.51-16.76-19.09c-7.3-4.58-16.14-6.87-26.54-6.87h-27.94v108.95h27.94c10.71,0,19.67-2.41,26.89-7.22
				c7.22-4.81,12.72-11.33,16.53-19.55C1245.55,503.82,1247.45,494.51,1247.45,484.11z"/>
			<path class="st1" d="M1290.52,543.01l92.19-113.14h-89.63v-28.17h127.81v23.98l-89.16,113.14h89.86v28.17h-131.07V543.01z"/>
			<path class="st1" d="M1512.15,568.15c-12.11,0-23.05-2.33-32.83-6.98c-9.78-4.66-18.24-10.98-25.37-18.97
				c-7.14-7.99-12.65-16.99-16.53-27.01c-3.88-10.01-5.82-20.29-5.82-30.85c0-11.02,2.05-21.53,6.17-31.55
				c4.11-10.01,9.78-18.93,16.99-26.77c7.22-7.84,15.79-14.04,25.72-18.62c9.93-4.58,20.72-6.87,32.36-6.87
				c11.95,0,22.85,2.41,32.71,7.22c9.85,4.81,18.28,11.25,25.26,19.32c6.98,8.07,12.38,17.07,16.18,27c3.8,9.93,5.7,20.18,5.7,30.73
				c0,10.86-1.98,21.3-5.94,31.31c-3.96,10.01-9.55,18.94-16.76,26.77c-7.22,7.84-15.75,14.01-25.61,18.51
				C1534.53,565.9,1523.79,568.15,1512.15,568.15z M1464.19,484.34c0,7.14,1.08,14.05,3.26,20.72c2.17,6.67,5.31,12.61,9.43,17.81
				c4.11,5.2,9.16,9.31,15.13,12.34c5.97,3.03,12.76,4.54,20.37,4.54c7.91,0,14.82-1.59,20.72-4.77c5.9-3.18,10.9-7.41,15.02-12.69
				c4.11-5.28,7.18-11.25,9.2-17.93c2.02-6.67,3.03-13.35,3.03-20.02c0-7.14-1.09-14-3.26-20.6c-2.18-6.6-5.36-12.49-9.55-17.69
				c-4.19-5.2-9.24-9.31-15.13-12.34c-5.9-3.03-12.65-4.54-20.25-4.54c-7.61,0-14.4,1.59-20.37,4.77
				c-5.98,3.18-11.02,7.37-15.13,12.57c-4.11,5.2-7.22,11.1-9.31,17.69C1465.24,470.8,1464.19,477.51,1464.19,484.34z"/>
		</g>
		<g>
			<path class="st1" d="M778.99,662.67h-6.63v-21.8c0-4.08-0.67-7.09-2-9.03c-1.33-1.94-3.3-2.91-5.91-2.91
				c-2.66,0-5.07,0.96-7.23,2.87c-2.16,1.92-3.69,4.39-4.59,7.43v23.44H746v-21.8c0-4.13-0.65-7.15-1.96-9.07
				c-1.31-1.92-3.26-2.87-5.87-2.87c-2.61,0-5.01,0.93-7.19,2.79c-2.19,1.86-3.73,4.33-4.63,7.4v23.55h-6.63v-39.09h6.03v8.44
				c1.61-2.89,3.69-5.12,6.25-6.69c2.56-1.57,5.45-2.35,8.66-2.35c3.26,0,5.87,0.89,7.83,2.65c1.96,1.77,3.16,4.05,3.61,6.84
				c1.76-3.09,3.89-5.44,6.4-7.06c2.51-1.62,5.37-2.43,8.59-2.43c2.26,0,4.15,0.41,5.69,1.23c1.53,0.82,2.75,1.97,3.65,3.44
				c0.9,1.47,1.56,3.2,1.96,5.2c0.4,1.99,0.6,4.16,0.6,6.5V662.67z"/>
			<path class="st1" d="M821.55,663.42c-2.96,0-5.65-0.54-8.06-1.61c-2.41-1.07-4.49-2.54-6.25-4.41c-1.76-1.87-3.11-4.02-4.07-6.47
				c-0.95-2.44-1.43-5.01-1.43-7.7c0-2.74,0.48-5.33,1.43-7.78c0.95-2.44,2.31-4.6,4.07-6.47c1.76-1.87,3.85-3.34,6.29-4.41
				c2.44-1.07,5.11-1.61,8.02-1.61c2.96,0,5.65,0.54,8.06,1.61c2.41,1.07,4.51,2.54,6.29,4.41c1.78,1.87,3.15,4.03,4.11,6.47
				c0.95,2.44,1.43,5.04,1.43,7.78c0,2.69-0.48,5.26-1.43,7.7c-0.95,2.44-2.31,4.6-4.07,6.47c-1.76,1.87-3.85,3.34-6.29,4.41
				C827.21,662.89,824.51,663.42,821.55,663.42z M808.52,643.31c0,2.68,0.59,5.12,1.77,7.31c1.18,2.19,2.75,3.91,4.71,5.18
				c1.96,1.27,4.14,1.9,6.55,1.9c2.41,0,4.61-0.65,6.59-1.94c1.98-1.29,3.57-3.04,4.75-5.25c1.18-2.21,1.77-4.66,1.77-7.34
				c0-2.68-0.59-5.12-1.77-7.3c-1.18-2.19-2.76-3.93-4.75-5.22c-1.98-1.29-4.18-1.94-6.59-1.94c-2.41,0-4.59,0.66-6.55,1.98
				c-1.96,1.32-3.53,3.07-4.71,5.26C809.11,638.12,808.52,640.58,808.52,643.31z"/>
			<path class="st1" d="M885.35,629.15c-3.31,0.05-6.24,0.89-8.77,2.52c-2.54,1.63-4.33,3.88-5.39,6.74v24.25h-6.63v-39.09h6.18
				v8.89c1.36-2.71,3.15-4.91,5.39-6.59c2.23-1.68,4.58-2.62,7.04-2.82c0.5,0,0.93,0,1.28,0c0.35,0,0.65,0.03,0.9,0.08V629.15z"/>
			<path class="st1" d="M922.4,663.42c-2.96,0-5.66-0.54-8.1-1.61c-2.44-1.07-4.54-2.54-6.33-4.41c-1.78-1.87-3.16-4.02-4.14-6.47
				c-0.98-2.44-1.47-5.03-1.47-7.78c0-3.69,0.85-7.05,2.56-10.09c1.71-3.04,4.08-5.48,7.12-7.33c3.04-1.84,6.51-2.77,10.43-2.77
				c3.97,0,7.42,0.94,10.36,2.81c2.94,1.87,5.22,4.32,6.85,7.33c1.63,3.02,2.45,6.27,2.45,9.77c0,0.5-0.01,0.99-0.04,1.46
				c-0.03,0.47-0.06,0.84-0.11,1.09h-32.61c0.2,2.53,0.92,4.78,2.15,6.74c1.23,1.96,2.82,3.5,4.78,4.62
				c1.96,1.12,4.07,1.67,6.33,1.67c2.41,0,4.68-0.6,6.82-1.81c2.13-1.2,3.6-2.79,4.41-4.74l5.72,1.58c-0.85,1.91-2.12,3.61-3.8,5.12
				c-1.68,1.51-3.67,2.69-5.95,3.54C927.54,663,925.07,663.42,922.4,663.42z M909.15,640.83h26.81c-0.2-2.53-0.93-4.76-2.18-6.7
				c-1.26-1.94-2.86-3.45-4.82-4.54c-1.96-1.09-4.12-1.64-6.48-1.64c-2.31,0-4.44,0.55-6.4,1.64c-1.96,1.09-3.55,2.61-4.78,4.54
				C910.06,636.07,909.35,638.3,909.15,640.83z"/>
			<path class="st1" d="M1019.04,660.94c-0.55,0.25-1.31,0.58-2.26,0.98c-0.95,0.4-2.06,0.75-3.31,1.05
				c-1.26,0.3-2.59,0.45-3.99,0.45c-1.61,0-3.09-0.29-4.44-0.87c-1.36-0.58-2.44-1.48-3.24-2.71c-0.8-1.23-1.21-2.77-1.21-4.63
				v-26.44h-5.35v-5.2h5.35v-13.11h6.63v13.11h8.81v5.2h-8.81v24.4c0.1,1.4,0.58,2.45,1.43,3.12c0.85,0.68,1.86,1.02,3.01,1.02
				c1.31,0,2.51-0.23,3.62-0.68c1.1-0.45,1.83-0.78,2.18-0.98L1019.04,660.94z"/>
			<path class="st1" d="M1074.4,662.67h-6.63v-21.8c0-3.98-0.71-6.97-2.15-8.96c-1.43-1.99-3.48-2.99-6.14-2.99
				c-1.71,0-3.43,0.45-5.16,1.34c-1.73,0.89-3.25,2.1-4.56,3.61c-1.31,1.51-2.26,3.26-2.86,5.25v23.55h-6.63v-54.98h6.63v24.34
				c1.56-2.79,3.68-5,6.36-6.62c2.69-1.62,5.59-2.43,8.7-2.43c2.36,0,4.33,0.41,5.91,1.23c1.58,0.82,2.85,1.98,3.8,3.48
				c0.95,1.5,1.64,3.23,2.07,5.2c0.43,1.97,0.64,4.12,0.64,6.46V662.67z"/>
			<path class="st1" d="M1096.7,651.37c0-2.5,0.71-4.65,2.15-6.48c1.43-1.82,3.4-3.23,5.91-4.23c2.51-1,5.42-1.5,8.74-1.5
				c1.76,0,3.62,0.14,5.57,0.41c1.96,0.28,3.69,0.69,5.2,1.24v-2.85c0-2.97-0.9-5.31-2.71-7.02c-1.81-1.71-4.37-2.56-7.68-2.56
				c-2.16,0-4.23,0.39-6.21,1.17c-1.98,0.78-4.08,1.9-6.29,3.35l-2.41-4.67c2.56-1.76,5.12-3.08,7.68-3.95
				c2.56-0.88,5.22-1.32,7.98-1.32c5.02,0,8.99,1.38,11.9,4.15c2.91,2.76,4.37,6.61,4.37,11.54v16.5c0,0.8,0.16,1.38,0.49,1.76
				c0.33,0.37,0.87,0.59,1.62,0.64v5.12c-0.65,0.1-1.22,0.18-1.69,0.23c-0.48,0.05-0.87,0.07-1.17,0.07c-1.56,0-2.72-0.43-3.5-1.28
				c-0.78-0.85-1.22-1.76-1.32-2.71l-0.15-2.49c-1.71,2.21-3.94,3.92-6.7,5.12c-2.76,1.2-5.5,1.81-8.21,1.81
				c-2.61,0-4.95-0.54-7-1.61c-2.06-1.07-3.67-2.52-4.82-4.34S1096.7,653.62,1096.7,651.37z M1122.3,654.13
				c0.6-0.7,1.08-1.4,1.43-2.13c0.35-0.72,0.53-1.33,0.53-1.83v-4.85c-1.56-0.6-3.19-1.06-4.9-1.38c-1.71-0.32-3.39-0.48-5.05-0.48
				c-3.36,0-6.09,0.66-8.17,1.98c-2.09,1.32-3.13,3.12-3.13,5.41c0,1.24,0.34,2.45,1.02,3.62c0.68,1.17,1.68,2.13,3.01,2.87
				c1.33,0.74,2.98,1.12,4.93,1.12c2.06,0,4.02-0.41,5.87-1.23C1119.72,656.4,1121.2,655.37,1122.3,654.13z"/>
			<path class="st1" d="M1190.69,662.67h-6.63v-21.8c0-4.13-0.64-7.15-1.92-9.07c-1.28-1.92-3.23-2.87-5.84-2.87
				c-1.81,0-3.6,0.45-5.39,1.34c-1.78,0.89-3.37,2.1-4.75,3.61c-1.38,1.51-2.37,3.26-2.97,5.25v23.55h-6.63v-39.09h6.03v8.44
				c1.05-1.84,2.41-3.44,4.07-4.78c1.66-1.34,3.54-2.39,5.65-3.14c2.11-0.75,4.32-1.12,6.63-1.12c2.26,0,4.15,0.41,5.69,1.23
				c1.53,0.82,2.74,1.97,3.61,3.44c0.88,1.47,1.51,3.2,1.88,5.2c0.38,1.99,0.57,4.16,0.57,6.5V662.67z"/>
			<path class="st1" d="M1270.53,660.94c-0.55,0.25-1.31,0.58-2.26,0.98c-0.95,0.4-2.06,0.75-3.31,1.05
				c-1.26,0.3-2.59,0.45-3.99,0.45c-1.61,0-3.09-0.29-4.44-0.87c-1.36-0.58-2.44-1.48-3.24-2.71c-0.8-1.23-1.21-2.77-1.21-4.63
				v-26.44h-5.35v-5.2h5.35v-13.11h6.63v13.11h8.81v5.2h-8.81v24.4c0.1,1.4,0.58,2.45,1.43,3.12c0.85,0.68,1.86,1.02,3.01,1.02
				c1.31,0,2.51-0.23,3.62-0.68c1.1-0.45,1.83-0.78,2.18-0.98L1270.53,660.94z"/>
			<path class="st1" d="M1312.56,629.15c-3.31,0.05-6.24,0.89-8.78,2.52c-2.54,1.63-4.33,3.88-5.39,6.74v24.25h-6.63v-39.09h6.18
				v8.89c1.36-2.71,3.15-4.91,5.39-6.59c2.23-1.68,4.58-2.62,7.04-2.82c0.5,0,0.93,0,1.28,0s0.65,0.03,0.9,0.08V629.15z"/>
			<path class="st1" d="M1330.57,651.37c0-2.5,0.71-4.65,2.15-6.48c1.43-1.82,3.4-3.23,5.91-4.23c2.51-1,5.42-1.5,8.74-1.5
				c1.76,0,3.62,0.14,5.57,0.41c1.96,0.28,3.69,0.69,5.2,1.24v-2.85c0-2.97-0.9-5.31-2.71-7.02c-1.81-1.71-4.37-2.56-7.68-2.56
				c-2.16,0-4.23,0.39-6.21,1.17c-1.98,0.78-4.08,1.9-6.29,3.35l-2.41-4.67c2.56-1.76,5.12-3.08,7.68-3.95
				c2.56-0.88,5.22-1.32,7.98-1.32c5.02,0,8.99,1.38,11.9,4.15c2.91,2.76,4.37,6.61,4.37,11.54v16.5c0,0.8,0.16,1.38,0.49,1.76
				c0.33,0.37,0.87,0.59,1.62,0.64v5.12c-0.65,0.1-1.22,0.18-1.69,0.23c-0.48,0.05-0.87,0.07-1.17,0.07c-1.56,0-2.72-0.43-3.5-1.28
				c-0.78-0.85-1.22-1.76-1.32-2.71l-0.15-2.49c-1.71,2.21-3.94,3.92-6.7,5.12c-2.76,1.2-5.5,1.81-8.21,1.81
				c-2.61,0-4.95-0.54-7-1.61c-2.06-1.07-3.67-2.52-4.82-4.34S1330.57,653.62,1330.57,651.37z M1356.17,654.13
				c0.6-0.7,1.08-1.4,1.43-2.13c0.35-0.72,0.53-1.33,0.53-1.83v-4.85c-1.56-0.6-3.19-1.06-4.9-1.38c-1.71-0.32-3.39-0.48-5.05-0.48
				c-3.37,0-6.09,0.66-8.17,1.98c-2.09,1.32-3.13,3.12-3.13,5.41c0,1.24,0.34,2.45,1.02,3.62c0.68,1.17,1.68,2.13,3.01,2.87
				c1.33,0.74,2.98,1.12,4.93,1.12c2.06,0,4.02-0.41,5.87-1.23C1353.59,656.4,1355.07,655.37,1356.17,654.13z"/>
			<path class="st1" d="M1387.88,643.24c0-3.69,0.77-7.06,2.3-10.13c1.53-3.06,3.64-5.52,6.33-7.36s5.76-2.77,9.23-2.77
				c3.16,0,6,0.83,8.51,2.49c2.51,1.66,4.47,3.67,5.87,6.03v-23.8h6.63v47.45c0,0.8,0.16,1.39,0.49,1.77
				c0.33,0.38,0.87,0.59,1.62,0.64v5.12c-1.26,0.2-2.24,0.3-2.94,0.3c-1.31,0-2.45-0.45-3.43-1.35c-0.98-0.91-1.47-1.91-1.47-3.01
				v-3.31c-1.56,2.51-3.64,4.49-6.25,5.95c-2.61,1.46-5.32,2.18-8.14,2.18c-2.71,0-5.21-0.54-7.49-1.61
				c-2.29-1.07-4.27-2.55-5.95-4.45c-1.68-1.89-2.99-4.05-3.92-6.47C1388.35,648.48,1387.88,645.93,1387.88,643.24z M1420.12,648.98
				V637.8c-0.6-1.69-1.58-3.22-2.94-4.59c-1.36-1.37-2.88-2.46-4.56-3.28c-1.68-0.82-3.35-1.23-5.01-1.23
				c-1.96,0-3.73,0.41-5.31,1.23c-1.58,0.82-2.94,1.91-4.07,3.28c-1.13,1.37-2,2.92-2.6,4.66c-0.6,1.74-0.9,3.55-0.9,5.44
				c0,1.94,0.34,3.78,1.02,5.52c0.68,1.74,1.63,3.28,2.86,4.62c1.23,1.34,2.66,2.39,4.29,3.13c1.63,0.75,3.4,1.12,5.31,1.12
				c1.21,0,2.45-0.22,3.73-0.67c1.28-0.45,2.5-1.07,3.65-1.86s2.13-1.73,2.94-2.8C1419.34,651.3,1419.87,650.17,1420.12,648.98z"/>
			<path class="st1" d="M1452.89,615.97v-8.29h6.63v8.29H1452.89z M1452.89,662.67v-39.32h6.63v39.32H1452.89z"/>
			<path class="st1" d="M1519.39,662.67h-6.63v-21.8c0-4.13-0.64-7.15-1.92-9.07c-1.28-1.92-3.23-2.87-5.84-2.87
				c-1.81,0-3.6,0.45-5.39,1.34c-1.78,0.89-3.37,2.1-4.75,3.61c-1.38,1.51-2.37,3.26-2.97,5.25v23.55h-6.63v-39.09h6.03v8.44
				c1.05-1.84,2.41-3.44,4.07-4.78c1.66-1.34,3.54-2.39,5.65-3.14c2.11-0.75,4.32-1.12,6.63-1.12c2.26,0,4.15,0.41,5.69,1.23
				c1.53,0.82,2.74,1.97,3.61,3.44c0.88,1.47,1.51,3.2,1.88,5.2c0.38,1.99,0.57,4.16,0.57,6.5V662.67z"/>
			<path class="st1" d="M1560.44,663.42c-2.66,0-5.11-0.54-7.34-1.62c-2.23-1.08-4.16-2.56-5.76-4.44
				c-1.61-1.88-2.85-4.03-3.73-6.44c-0.88-2.41-1.32-4.92-1.32-7.53c0-2.76,0.44-5.37,1.32-7.83c0.88-2.46,2.13-4.63,3.77-6.52
				c1.63-1.88,3.55-3.36,5.76-4.44c2.21-1.08,4.67-1.62,7.38-1.62c3.26,0,6.11,0.79,8.55,2.37c2.44,1.58,4.48,3.6,6.14,6.06v-7.83
				h5.87v38.71c0,3.7-0.89,6.83-2.67,9.38c-1.78,2.55-4.19,4.49-7.23,5.81c-3.04,1.33-6.42,1.99-10.13,1.99
				c-4.42,0-8.03-0.78-10.85-2.33c-2.81-1.56-5.15-3.67-7-6.33l3.84-3.39c1.56,2.31,3.58,4.04,6.06,5.2
				c2.49,1.16,5.13,1.73,7.95,1.73c2.41,0,4.63-0.43,6.67-1.28c2.03-0.86,3.66-2.16,4.9-3.92c1.23-1.76,1.85-3.97,1.85-6.62v-6.93
				c-1.46,2.41-3.45,4.32-5.99,5.72C1565.93,662.72,1563.25,663.42,1560.44,663.42z M1562.48,658c1.41,0,2.76-0.25,4.07-0.75
				c1.31-0.5,2.51-1.17,3.62-2c1.1-0.83,2.03-1.77,2.79-2.82c0.75-1.05,1.25-2.13,1.51-3.24v-11.3c-0.7-1.81-1.71-3.4-3.01-4.78
				c-1.31-1.38-2.79-2.46-4.44-3.24c-1.66-0.78-3.37-1.17-5.12-1.17c-2.01,0-3.8,0.43-5.39,1.28c-1.58,0.85-2.93,2-4.03,3.43
				c-1.1,1.43-1.96,3.03-2.56,4.78c-0.6,1.76-0.9,3.54-0.9,5.35c0,1.96,0.35,3.8,1.05,5.54c0.7,1.73,1.66,3.28,2.86,4.63
				c1.21,1.36,2.64,2.41,4.29,3.16C1558.86,657.63,1560.62,658,1562.48,658z"/>
		</g>
	</g>
</g>
</svg>
