<?xml version="1.0" encoding="utf-8"?>
<!-- Generator: Adobe Illustrator 24.0.1, SVG Export Plug-In . SVG Version: 6.00 Build 0)  -->
<svg version="1.1" id="Layer_1" xmlns="http://www.w3.org/2000/svg" xmlns:xlink="http://www.w3.org/1999/xlink" x="0px" y="0px"
	 viewBox="0 0 1920 1080" style="enable-background:new 0 0 1920 1080;" xml:space="preserve">
<style type="text/css">
	.st0{fill:#EE6C4D;}
	.st1{fill:#3D5A80;}
</style>
<g>
	<g>
		<path class="st0" d="M716.38,494.4l117.68-117.68c2.97-2.97,8.06-0.87,8.06,3.34v261.47c0,1.27-0.51,2.49-1.42,3.37L723.02,760.13
			c-2.99,2.93-8.02,0.81-8.02-3.37V497.73C715,496.48,715.5,495.28,716.38,494.4z"/>
		<path class="st0" d="M1203.62,494.4l-117.68-117.68c-2.97-2.97-8.06-0.87-8.06,3.34v261.47c0,1.27,0.51,2.49,1.42,3.37
			l117.68,115.23c2.99,2.93,8.02,0.81,8.02-3.37V497.73C1205,496.48,1204.5,495.28,1203.62,494.4z"/>
		<g>
			<path class="st0" d="M878.68,643.51h163.52c3.45,0,5.73,3.58,4.28,6.71l-80.86,174.31c-1.68,3.63-6.83,3.65-8.55,0.04
				l-82.66-174.31C872.93,647.12,875.21,643.51,878.68,643.51z"/>
		</g>
		<path class="st0" d="M956.66,254.12l-84.16,84.16c-0.89,0.89-1.38,2.09-1.38,3.34l0,268.73c0,2.61,2.11,4.72,4.72,4.72l169.12,0
			c2.61,0,4.72-2.11,4.72-4.72l0,0l-0.19-0.36l0-267.76c0-1.25-0.5-2.45-1.38-3.34l-84.77-84.77
			C961.49,252.27,958.51,252.27,956.66,254.12z"/>
	</g>
</g>
</svg>
